<mxfile host="app.diagrams.net" modified="2023-04-08T13:48:41.404Z" agent="Mozilla/5.0 (Windows NT 10.0; Win64; x64) AppleWebKit/537.36 (KHTML, like Gecko) Chrome/112.0.0.0 Safari/537.36" etag="MLaRGghALN0x6RXl29O-" version="21.1.2" type="device">
  <diagram name="Page-1" id="CaeLVAM-GXH4mI56F0_e">
    <mxGraphModel dx="1429" dy="772" grid="1" gridSize="10" guides="1" tooltips="1" connect="1" arrows="1" fold="1" page="1" pageScale="1" pageWidth="3300" pageHeight="4681" math="0" shadow="0">
      <root>
        <mxCell id="0" />
        <mxCell id="1" parent="0" />
        <mxCell id="-4r8OW4_0r0s2cTVPzxK-1" value="Transaction" style="swimlane;fontStyle=0;childLayout=stackLayout;horizontal=1;startSize=26;horizontalStack=0;resizeParent=1;resizeParentMax=0;resizeLast=0;collapsible=1;marginBottom=0;align=center;fontSize=14;" parent="1" vertex="1">
          <mxGeometry x="1200" y="1320" width="160" height="266" as="geometry" />
        </mxCell>
        <mxCell id="-4r8OW4_0r0s2cTVPzxK-2" value="&lt;u&gt;transaction_id&lt;/u&gt;" style="text;strokeColor=none;fillColor=none;spacingLeft=4;spacingRight=4;overflow=hidden;rotatable=0;points=[[0,0.5],[1,0.5]];portConstraint=eastwest;fontSize=12;whiteSpace=wrap;html=1;" parent="-4r8OW4_0r0s2cTVPzxK-1" vertex="1">
          <mxGeometry y="26" width="160" height="30" as="geometry" />
        </mxCell>
        <mxCell id="-4r8OW4_0r0s2cTVPzxK-3" value="transaction_date" style="text;strokeColor=none;fillColor=none;spacingLeft=4;spacingRight=4;overflow=hidden;rotatable=0;points=[[0,0.5],[1,0.5]];portConstraint=eastwest;fontSize=12;whiteSpace=wrap;html=1;" parent="-4r8OW4_0r0s2cTVPzxK-1" vertex="1">
          <mxGeometry y="56" width="160" height="30" as="geometry" />
        </mxCell>
        <mxCell id="-4r8OW4_0r0s2cTVPzxK-4" value="total_quantity" style="text;strokeColor=none;fillColor=none;spacingLeft=4;spacingRight=4;overflow=hidden;rotatable=0;points=[[0,0.5],[1,0.5]];portConstraint=eastwest;fontSize=12;whiteSpace=wrap;html=1;" parent="-4r8OW4_0r0s2cTVPzxK-1" vertex="1">
          <mxGeometry y="86" width="160" height="30" as="geometry" />
        </mxCell>
        <mxCell id="-4r8OW4_0r0s2cTVPzxK-49" value="total_amount" style="text;strokeColor=none;fillColor=none;spacingLeft=4;spacingRight=4;overflow=hidden;rotatable=0;points=[[0,0.5],[1,0.5]];portConstraint=eastwest;fontSize=12;whiteSpace=wrap;html=1;" parent="-4r8OW4_0r0s2cTVPzxK-1" vertex="1">
          <mxGeometry y="116" width="160" height="30" as="geometry" />
        </mxCell>
        <mxCell id="jqzxEzm6aeWW69DF150y-2" value="VAT" style="text;strokeColor=none;fillColor=none;spacingLeft=4;spacingRight=4;overflow=hidden;rotatable=0;points=[[0,0.5],[1,0.5]];portConstraint=eastwest;fontSize=12;whiteSpace=wrap;html=1;" parent="-4r8OW4_0r0s2cTVPzxK-1" vertex="1">
          <mxGeometry y="146" width="160" height="30" as="geometry" />
        </mxCell>
        <mxCell id="jqzxEzm6aeWW69DF150y-1" value="net_amount" style="text;strokeColor=none;fillColor=none;spacingLeft=4;spacingRight=4;overflow=hidden;rotatable=0;points=[[0,0.5],[1,0.5]];portConstraint=eastwest;fontSize=12;whiteSpace=wrap;html=1;" parent="-4r8OW4_0r0s2cTVPzxK-1" vertex="1">
          <mxGeometry y="176" width="160" height="30" as="geometry" />
        </mxCell>
        <mxCell id="jqzxEzm6aeWW69DF150y-3" value="cash_received" style="text;strokeColor=none;fillColor=none;spacingLeft=4;spacingRight=4;overflow=hidden;rotatable=0;points=[[0,0.5],[1,0.5]];portConstraint=eastwest;fontSize=12;whiteSpace=wrap;html=1;" parent="-4r8OW4_0r0s2cTVPzxK-1" vertex="1">
          <mxGeometry y="206" width="160" height="30" as="geometry" />
        </mxCell>
        <mxCell id="jqzxEzm6aeWW69DF150y-4" value="change_due" style="text;strokeColor=none;fillColor=none;spacingLeft=4;spacingRight=4;overflow=hidden;rotatable=0;points=[[0,0.5],[1,0.5]];portConstraint=eastwest;fontSize=12;whiteSpace=wrap;html=1;" parent="-4r8OW4_0r0s2cTVPzxK-1" vertex="1">
          <mxGeometry y="236" width="160" height="30" as="geometry" />
        </mxCell>
        <mxCell id="-4r8OW4_0r0s2cTVPzxK-5" value="Transaction detail" style="swimlane;fontStyle=0;childLayout=stackLayout;horizontal=1;startSize=26;horizontalStack=0;resizeParent=1;resizeParentMax=0;resizeLast=0;collapsible=1;marginBottom=0;align=center;fontSize=14;rounded=0;shadow=0;glass=0;swimlaneLine=1;" parent="1" vertex="1">
          <mxGeometry x="1600" y="1360" width="160" height="146" as="geometry">
            <mxRectangle x="1430" y="259" width="150" height="30" as="alternateBounds" />
          </mxGeometry>
        </mxCell>
        <mxCell id="cPn5eDL4V85z7vKzDj59-236" value="" style="endArrow=none;html=1;rounded=0;exitX=0.066;exitY=1.004;exitDx=0;exitDy=0;exitPerimeter=0;entryX=0;entryY=0.654;entryDx=0;entryDy=0;entryPerimeter=0;" parent="-4r8OW4_0r0s2cTVPzxK-5" edge="1">
          <mxGeometry width="50" height="50" relative="1" as="geometry">
            <mxPoint x="160" y="10" as="sourcePoint" />
            <mxPoint x="149" as="targetPoint" />
          </mxGeometry>
        </mxCell>
        <mxCell id="cPn5eDL4V85z7vKzDj59-235" value="" style="endArrow=none;html=1;rounded=0;exitX=0.931;exitY=0.989;exitDx=0;exitDy=0;exitPerimeter=0;entryX=1;entryY=0.659;entryDx=0;entryDy=0;entryPerimeter=0;" parent="-4r8OW4_0r0s2cTVPzxK-5" edge="1">
          <mxGeometry width="50" height="50" relative="1" as="geometry">
            <mxPoint y="10" as="sourcePoint" />
            <mxPoint x="11" as="targetPoint" />
          </mxGeometry>
        </mxCell>
        <mxCell id="-4r8OW4_0r0s2cTVPzxK-6" value="&lt;u&gt;ordinal_number&lt;/u&gt;" style="text;strokeColor=none;fillColor=none;spacingLeft=4;spacingRight=4;overflow=hidden;rotatable=0;points=[[0,0.5],[1,0.5]];portConstraint=eastwest;fontSize=12;whiteSpace=wrap;html=1;" parent="-4r8OW4_0r0s2cTVPzxK-5" vertex="1">
          <mxGeometry y="26" width="160" height="30" as="geometry" />
        </mxCell>
        <mxCell id="-4r8OW4_0r0s2cTVPzxK-7" value="quantity" style="text;strokeColor=none;fillColor=none;spacingLeft=4;spacingRight=4;overflow=hidden;rotatable=0;points=[[0,0.5],[1,0.5]];portConstraint=eastwest;fontSize=12;whiteSpace=wrap;html=1;" parent="-4r8OW4_0r0s2cTVPzxK-5" vertex="1">
          <mxGeometry y="56" width="160" height="30" as="geometry" />
        </mxCell>
        <mxCell id="-4r8OW4_0r0s2cTVPzxK-8" value="original_total_amount" style="text;strokeColor=none;fillColor=none;spacingLeft=4;spacingRight=4;overflow=hidden;rotatable=0;points=[[0,0.5],[1,0.5]];portConstraint=eastwest;fontSize=12;whiteSpace=wrap;html=1;" parent="-4r8OW4_0r0s2cTVPzxK-5" vertex="1">
          <mxGeometry y="86" width="160" height="30" as="geometry" />
        </mxCell>
        <mxCell id="jqzxEzm6aeWW69DF150y-13" value="total_amount" style="text;strokeColor=none;fillColor=none;spacingLeft=4;spacingRight=4;overflow=hidden;rotatable=0;points=[[0,0.5],[1,0.5]];portConstraint=eastwest;fontSize=12;whiteSpace=wrap;html=1;" parent="-4r8OW4_0r0s2cTVPzxK-5" vertex="1">
          <mxGeometry y="116" width="160" height="30" as="geometry" />
        </mxCell>
        <mxCell id="jqzxEzm6aeWW69DF150y-20" value="" style="endArrow=none;html=1;rounded=0;exitX=0.931;exitY=0.989;exitDx=0;exitDy=0;exitPerimeter=0;entryX=1;entryY=0.659;entryDx=0;entryDy=0;entryPerimeter=0;" parent="-4r8OW4_0r0s2cTVPzxK-5" source="jqzxEzm6aeWW69DF150y-13" target="jqzxEzm6aeWW69DF150y-13" edge="1">
          <mxGeometry width="50" height="50" relative="1" as="geometry">
            <mxPoint x="140" y="271" as="sourcePoint" />
            <mxPoint x="160" y="251" as="targetPoint" />
          </mxGeometry>
        </mxCell>
        <mxCell id="jqzxEzm6aeWW69DF150y-21" value="" style="endArrow=none;html=1;rounded=0;exitX=0.066;exitY=1.004;exitDx=0;exitDy=0;exitPerimeter=0;entryX=0;entryY=0.654;entryDx=0;entryDy=0;entryPerimeter=0;" parent="-4r8OW4_0r0s2cTVPzxK-5" source="jqzxEzm6aeWW69DF150y-13" target="jqzxEzm6aeWW69DF150y-13" edge="1">
          <mxGeometry width="50" height="50" relative="1" as="geometry">
            <mxPoint x="10" y="266" as="sourcePoint" />
            <mxPoint y="200" as="targetPoint" />
          </mxGeometry>
        </mxCell>
        <mxCell id="-4r8OW4_0r0s2cTVPzxK-9" value="Store" style="swimlane;fontStyle=0;childLayout=stackLayout;horizontal=1;startSize=26;horizontalStack=0;resizeParent=1;resizeParentMax=0;resizeLast=0;collapsible=1;marginBottom=0;align=center;fontSize=14;" parent="1" vertex="1">
          <mxGeometry x="840" y="1320" width="160" height="236" as="geometry" />
        </mxCell>
        <mxCell id="-4r8OW4_0r0s2cTVPzxK-10" value="&lt;u&gt;store_id&lt;/u&gt;" style="text;strokeColor=none;fillColor=none;spacingLeft=4;spacingRight=4;overflow=hidden;rotatable=0;points=[[0,0.5],[1,0.5]];portConstraint=eastwest;fontSize=12;whiteSpace=wrap;html=1;" parent="-4r8OW4_0r0s2cTVPzxK-9" vertex="1">
          <mxGeometry y="26" width="160" height="30" as="geometry" />
        </mxCell>
        <mxCell id="-4r8OW4_0r0s2cTVPzxK-11" value="address" style="text;strokeColor=none;fillColor=none;spacingLeft=4;spacingRight=4;overflow=hidden;rotatable=0;points=[[0,0.5],[1,0.5]];portConstraint=eastwest;fontSize=12;whiteSpace=wrap;html=1;" parent="-4r8OW4_0r0s2cTVPzxK-9" vertex="1">
          <mxGeometry y="56" width="160" height="30" as="geometry" />
        </mxCell>
        <mxCell id="cPn5eDL4V85z7vKzDj59-238" value="zip_code" style="text;strokeColor=none;fillColor=none;spacingLeft=4;spacingRight=4;overflow=hidden;rotatable=0;points=[[0,0.5],[1,0.5]];portConstraint=eastwest;fontSize=12;whiteSpace=wrap;html=1;" parent="-4r8OW4_0r0s2cTVPzxK-9" vertex="1">
          <mxGeometry y="86" width="160" height="30" as="geometry" />
        </mxCell>
        <mxCell id="-4r8OW4_0r0s2cTVPzxK-12" value="city" style="text;strokeColor=none;fillColor=none;spacingLeft=4;spacingRight=4;overflow=hidden;rotatable=0;points=[[0,0.5],[1,0.5]];portConstraint=eastwest;fontSize=12;whiteSpace=wrap;html=1;" parent="-4r8OW4_0r0s2cTVPzxK-9" vertex="1">
          <mxGeometry y="116" width="160" height="30" as="geometry" />
        </mxCell>
        <mxCell id="jqzxEzm6aeWW69DF150y-64" value="total_width" style="text;strokeColor=none;fillColor=none;spacingLeft=4;spacingRight=4;overflow=hidden;rotatable=0;points=[[0,0.5],[1,0.5]];portConstraint=eastwest;fontSize=12;whiteSpace=wrap;html=1;" parent="-4r8OW4_0r0s2cTVPzxK-9" vertex="1">
          <mxGeometry y="146" width="160" height="30" as="geometry" />
        </mxCell>
        <mxCell id="jqzxEzm6aeWW69DF150y-65" value="total_length" style="text;strokeColor=none;fillColor=none;spacingLeft=4;spacingRight=4;overflow=hidden;rotatable=0;points=[[0,0.5],[1,0.5]];portConstraint=eastwest;fontSize=12;whiteSpace=wrap;html=1;" parent="-4r8OW4_0r0s2cTVPzxK-9" vertex="1">
          <mxGeometry y="176" width="160" height="30" as="geometry" />
        </mxCell>
        <mxCell id="jqzxEzm6aeWW69DF150y-66" value="total_area" style="text;strokeColor=none;fillColor=none;spacingLeft=4;spacingRight=4;overflow=hidden;rotatable=0;points=[[0,0.5],[1,0.5]];portConstraint=eastwest;fontSize=12;whiteSpace=wrap;html=1;" parent="-4r8OW4_0r0s2cTVPzxK-9" vertex="1">
          <mxGeometry y="206" width="160" height="30" as="geometry" />
        </mxCell>
        <mxCell id="-4r8OW4_0r0s2cTVPzxK-13" value="Employee" style="swimlane;fontStyle=0;childLayout=stackLayout;horizontal=1;startSize=26;horizontalStack=0;resizeParent=1;resizeParentMax=0;resizeLast=0;collapsible=1;marginBottom=0;align=center;fontSize=14;" parent="1" vertex="1">
          <mxGeometry x="1420" y="830" width="160" height="386" as="geometry" />
        </mxCell>
        <mxCell id="-4r8OW4_0r0s2cTVPzxK-14" value="&lt;u&gt;employee_id&lt;/u&gt;" style="text;strokeColor=none;fillColor=none;spacingLeft=4;spacingRight=4;overflow=hidden;rotatable=0;points=[[0,0.5],[1,0.5]];portConstraint=eastwest;fontSize=12;whiteSpace=wrap;html=1;" parent="-4r8OW4_0r0s2cTVPzxK-13" vertex="1">
          <mxGeometry y="26" width="160" height="30" as="geometry" />
        </mxCell>
        <mxCell id="-4r8OW4_0r0s2cTVPzxK-15" value="working_date" style="text;strokeColor=none;fillColor=none;spacingLeft=4;spacingRight=4;overflow=hidden;rotatable=0;points=[[0,0.5],[1,0.5]];portConstraint=eastwest;fontSize=12;whiteSpace=wrap;html=1;" parent="-4r8OW4_0r0s2cTVPzxK-13" vertex="1">
          <mxGeometry y="56" width="160" height="30" as="geometry" />
        </mxCell>
        <mxCell id="cPn5eDL4V85z7vKzDj59-230" value="" style="fontSize=12;html=1;endArrow=ERoneToMany;startArrow=ERmandOne;rounded=0;entryX=-0.006;entryY=0.778;entryDx=0;entryDy=0;dashed=1;exitX=0.497;exitY=1.047;exitDx=0;exitDy=0;exitPerimeter=0;entryPerimeter=0;" parent="-4r8OW4_0r0s2cTVPzxK-13" target="cPn5eDL4V85z7vKzDj59-222" edge="1">
          <mxGeometry width="100" height="100" relative="1" as="geometry">
            <mxPoint x="160" y="50" as="sourcePoint" />
            <mxPoint x="160" y="173" as="targetPoint" />
          </mxGeometry>
        </mxCell>
        <mxCell id="-4r8OW4_0r0s2cTVPzxK-16" value="full_name" style="text;strokeColor=none;fillColor=none;spacingLeft=4;spacingRight=4;overflow=hidden;rotatable=0;points=[[0,0.5],[1,0.5]];portConstraint=eastwest;fontSize=12;whiteSpace=wrap;html=1;" parent="-4r8OW4_0r0s2cTVPzxK-13" vertex="1">
          <mxGeometry y="86" width="160" height="30" as="geometry" />
        </mxCell>
        <mxCell id="jqzxEzm6aeWW69DF150y-76" value="gender" style="text;strokeColor=none;fillColor=none;spacingLeft=4;spacingRight=4;overflow=hidden;rotatable=0;points=[[0,0.5],[1,0.5]];portConstraint=eastwest;fontSize=12;whiteSpace=wrap;html=1;" parent="-4r8OW4_0r0s2cTVPzxK-13" vertex="1">
          <mxGeometry y="116" width="160" height="30" as="geometry" />
        </mxCell>
        <mxCell id="jqzxEzm6aeWW69DF150y-77" value="birthday" style="text;strokeColor=none;fillColor=none;spacingLeft=4;spacingRight=4;overflow=hidden;rotatable=0;points=[[0,0.5],[1,0.5]];portConstraint=eastwest;fontSize=12;whiteSpace=wrap;html=1;" parent="-4r8OW4_0r0s2cTVPzxK-13" vertex="1">
          <mxGeometry y="146" width="160" height="30" as="geometry" />
        </mxCell>
        <mxCell id="jqzxEzm6aeWW69DF150y-84" value="phone" style="text;strokeColor=none;fillColor=none;spacingLeft=4;spacingRight=4;overflow=hidden;rotatable=0;points=[[0,0.5],[1,0.5]];portConstraint=eastwest;fontSize=12;whiteSpace=wrap;html=1;" parent="-4r8OW4_0r0s2cTVPzxK-13" vertex="1">
          <mxGeometry y="176" width="160" height="30" as="geometry" />
        </mxCell>
        <mxCell id="jqzxEzm6aeWW69DF150y-85" value="email" style="text;strokeColor=none;fillColor=none;spacingLeft=4;spacingRight=4;overflow=hidden;rotatable=0;points=[[0,0.5],[1,0.5]];portConstraint=eastwest;fontSize=12;whiteSpace=wrap;html=1;" parent="-4r8OW4_0r0s2cTVPzxK-13" vertex="1">
          <mxGeometry y="206" width="160" height="30" as="geometry" />
        </mxCell>
        <mxCell id="jqzxEzm6aeWW69DF150y-78" value="certify_no" style="text;strokeColor=none;fillColor=none;spacingLeft=4;spacingRight=4;overflow=hidden;rotatable=0;points=[[0,0.5],[1,0.5]];portConstraint=eastwest;fontSize=12;whiteSpace=wrap;html=1;" parent="-4r8OW4_0r0s2cTVPzxK-13" vertex="1">
          <mxGeometry y="236" width="160" height="30" as="geometry" />
        </mxCell>
        <mxCell id="jqzxEzm6aeWW69DF150y-79" value="full_current_address" style="text;strokeColor=none;fillColor=none;spacingLeft=4;spacingRight=4;overflow=hidden;rotatable=0;points=[[0,0.5],[1,0.5]];portConstraint=eastwest;fontSize=12;whiteSpace=wrap;html=1;" parent="-4r8OW4_0r0s2cTVPzxK-13" vertex="1">
          <mxGeometry y="266" width="160" height="30" as="geometry" />
        </mxCell>
        <mxCell id="jqzxEzm6aeWW69DF150y-80" value="full_permanent_address" style="text;strokeColor=none;fillColor=none;spacingLeft=4;spacingRight=4;overflow=hidden;rotatable=0;points=[[0,0.5],[1,0.5]];portConstraint=eastwest;fontSize=12;whiteSpace=wrap;html=1;" parent="-4r8OW4_0r0s2cTVPzxK-13" vertex="1">
          <mxGeometry y="296" width="160" height="30" as="geometry" />
        </mxCell>
        <mxCell id="jqzxEzm6aeWW69DF150y-81" value="zip_code" style="text;strokeColor=none;fillColor=none;spacingLeft=4;spacingRight=4;overflow=hidden;rotatable=0;points=[[0,0.5],[1,0.5]];portConstraint=eastwest;fontSize=12;whiteSpace=wrap;html=1;" parent="-4r8OW4_0r0s2cTVPzxK-13" vertex="1">
          <mxGeometry y="326" width="160" height="30" as="geometry" />
        </mxCell>
        <mxCell id="jqzxEzm6aeWW69DF150y-82" value="city" style="text;strokeColor=none;fillColor=none;spacingLeft=4;spacingRight=4;overflow=hidden;rotatable=0;points=[[0,0.5],[1,0.5]];portConstraint=eastwest;fontSize=12;whiteSpace=wrap;html=1;" parent="-4r8OW4_0r0s2cTVPzxK-13" vertex="1">
          <mxGeometry y="356" width="160" height="30" as="geometry" />
        </mxCell>
        <mxCell id="-4r8OW4_0r0s2cTVPzxK-17" value="Product" style="swimlane;fontStyle=0;childLayout=stackLayout;horizontal=1;startSize=26;horizontalStack=0;resizeParent=1;resizeParentMax=0;resizeLast=0;collapsible=1;marginBottom=0;align=center;fontSize=14;" parent="1" vertex="1">
          <mxGeometry x="1960" y="1320" width="160" height="206" as="geometry" />
        </mxCell>
        <mxCell id="-4r8OW4_0r0s2cTVPzxK-18" value="&lt;u&gt;product_id&lt;/u&gt;" style="text;strokeColor=none;fillColor=none;spacingLeft=4;spacingRight=4;overflow=hidden;rotatable=0;points=[[0,0.5],[1,0.5]];portConstraint=eastwest;fontSize=12;whiteSpace=wrap;html=1;" parent="-4r8OW4_0r0s2cTVPzxK-17" vertex="1">
          <mxGeometry y="26" width="160" height="30" as="geometry" />
        </mxCell>
        <mxCell id="-4r8OW4_0r0s2cTVPzxK-19" value="product_name" style="text;strokeColor=none;fillColor=none;spacingLeft=4;spacingRight=4;overflow=hidden;rotatable=0;points=[[0,0.5],[1,0.5]];portConstraint=eastwest;fontSize=12;whiteSpace=wrap;html=1;" parent="-4r8OW4_0r0s2cTVPzxK-17" vertex="1">
          <mxGeometry y="56" width="160" height="30" as="geometry" />
        </mxCell>
        <mxCell id="-4r8OW4_0r0s2cTVPzxK-20" value="unit_price" style="text;strokeColor=none;fillColor=none;spacingLeft=4;spacingRight=4;overflow=hidden;rotatable=0;points=[[0,0.5],[1,0.5]];portConstraint=eastwest;fontSize=12;whiteSpace=wrap;html=1;" parent="-4r8OW4_0r0s2cTVPzxK-17" vertex="1">
          <mxGeometry y="86" width="160" height="30" as="geometry" />
        </mxCell>
        <mxCell id="jqzxEzm6aeWW69DF150y-14" value="description" style="text;strokeColor=none;fillColor=none;spacingLeft=4;spacingRight=4;overflow=hidden;rotatable=0;points=[[0,0.5],[1,0.5]];portConstraint=eastwest;fontSize=12;whiteSpace=wrap;html=1;" parent="-4r8OW4_0r0s2cTVPzxK-17" vertex="1">
          <mxGeometry y="116" width="160" height="30" as="geometry" />
        </mxCell>
        <mxCell id="jqzxEzm6aeWW69DF150y-15" value="sub_category" style="text;strokeColor=none;fillColor=none;spacingLeft=4;spacingRight=4;overflow=hidden;rotatable=0;points=[[0,0.5],[1,0.5]];portConstraint=eastwest;fontSize=12;whiteSpace=wrap;html=1;" parent="-4r8OW4_0r0s2cTVPzxK-17" vertex="1">
          <mxGeometry y="146" width="160" height="30" as="geometry" />
        </mxCell>
        <mxCell id="jqzxEzm6aeWW69DF150y-16" value="category" style="text;strokeColor=none;fillColor=none;spacingLeft=4;spacingRight=4;overflow=hidden;rotatable=0;points=[[0,0.5],[1,0.5]];portConstraint=eastwest;fontSize=12;whiteSpace=wrap;html=1;" parent="-4r8OW4_0r0s2cTVPzxK-17" vertex="1">
          <mxGeometry y="176" width="160" height="30" as="geometry" />
        </mxCell>
        <mxCell id="-4r8OW4_0r0s2cTVPzxK-21" value="Terminal" style="swimlane;fontStyle=0;childLayout=stackLayout;horizontal=1;startSize=26;horizontalStack=0;resizeParent=1;resizeParentMax=0;resizeLast=0;collapsible=1;marginBottom=0;align=center;fontSize=14;" parent="1" vertex="1">
          <mxGeometry x="840" y="1640" width="160" height="86" as="geometry" />
        </mxCell>
        <mxCell id="-4r8OW4_0r0s2cTVPzxK-22" value="&lt;u&gt;terminal_id&lt;/u&gt;" style="text;strokeColor=none;fillColor=none;spacingLeft=4;spacingRight=4;overflow=hidden;rotatable=0;points=[[0,0.5],[1,0.5]];portConstraint=eastwest;fontSize=12;whiteSpace=wrap;html=1;" parent="-4r8OW4_0r0s2cTVPzxK-21" vertex="1">
          <mxGeometry y="26" width="160" height="30" as="geometry" />
        </mxCell>
        <mxCell id="-4r8OW4_0r0s2cTVPzxK-23" value="terminal_name" style="text;strokeColor=none;fillColor=none;spacingLeft=4;spacingRight=4;overflow=hidden;rotatable=0;points=[[0,0.5],[1,0.5]];portConstraint=eastwest;fontSize=12;whiteSpace=wrap;html=1;" parent="-4r8OW4_0r0s2cTVPzxK-21" vertex="1">
          <mxGeometry y="56" width="160" height="30" as="geometry" />
        </mxCell>
        <mxCell id="-4r8OW4_0r0s2cTVPzxK-29" value="Promotion" style="swimlane;fontStyle=0;childLayout=stackLayout;horizontal=1;startSize=26;horizontalStack=0;resizeParent=1;resizeParentMax=0;resizeLast=0;collapsible=1;marginBottom=0;align=center;fontSize=14;" parent="1" vertex="1">
          <mxGeometry x="1920" y="1680" width="160" height="206" as="geometry" />
        </mxCell>
        <mxCell id="-4r8OW4_0r0s2cTVPzxK-30" value="&lt;u&gt;promotion_id&lt;/u&gt;" style="text;strokeColor=none;fillColor=none;spacingLeft=4;spacingRight=4;overflow=hidden;rotatable=0;points=[[0,0.5],[1,0.5]];portConstraint=eastwest;fontSize=12;whiteSpace=wrap;html=1;" parent="-4r8OW4_0r0s2cTVPzxK-29" vertex="1">
          <mxGeometry y="26" width="160" height="30" as="geometry" />
        </mxCell>
        <mxCell id="-4r8OW4_0r0s2cTVPzxK-31" value="promotion_name" style="text;strokeColor=none;fillColor=none;spacingLeft=4;spacingRight=4;overflow=hidden;rotatable=0;points=[[0,0.5],[1,0.5]];portConstraint=eastwest;fontSize=12;whiteSpace=wrap;html=1;" parent="-4r8OW4_0r0s2cTVPzxK-29" vertex="1">
          <mxGeometry y="56" width="160" height="30" as="geometry" />
        </mxCell>
        <mxCell id="-4r8OW4_0r0s2cTVPzxK-32" value="start_date" style="text;strokeColor=none;fillColor=none;spacingLeft=4;spacingRight=4;overflow=hidden;rotatable=0;points=[[0,0.5],[1,0.5]];portConstraint=eastwest;fontSize=12;whiteSpace=wrap;html=1;" parent="-4r8OW4_0r0s2cTVPzxK-29" vertex="1">
          <mxGeometry y="86" width="160" height="30" as="geometry" />
        </mxCell>
        <mxCell id="jqzxEzm6aeWW69DF150y-17" value="end_date" style="text;strokeColor=none;fillColor=none;spacingLeft=4;spacingRight=4;overflow=hidden;rotatable=0;points=[[0,0.5],[1,0.5]];portConstraint=eastwest;fontSize=12;whiteSpace=wrap;html=1;" parent="-4r8OW4_0r0s2cTVPzxK-29" vertex="1">
          <mxGeometry y="116" width="160" height="30" as="geometry" />
        </mxCell>
        <mxCell id="cPn5eDL4V85z7vKzDj59-3" value="promotion_type" style="text;strokeColor=none;fillColor=none;spacingLeft=4;spacingRight=4;overflow=hidden;rotatable=0;points=[[0,0.5],[1,0.5]];portConstraint=eastwest;fontSize=12;whiteSpace=wrap;html=1;" parent="-4r8OW4_0r0s2cTVPzxK-29" vertex="1">
          <mxGeometry y="146" width="160" height="30" as="geometry" />
        </mxCell>
        <mxCell id="jqzxEzm6aeWW69DF150y-18" value="discount" style="text;strokeColor=none;fillColor=none;spacingLeft=4;spacingRight=4;overflow=hidden;rotatable=0;points=[[0,0.5],[1,0.5]];portConstraint=eastwest;fontSize=12;whiteSpace=wrap;html=1;" parent="-4r8OW4_0r0s2cTVPzxK-29" vertex="1">
          <mxGeometry y="176" width="160" height="30" as="geometry" />
        </mxCell>
        <mxCell id="-4r8OW4_0r0s2cTVPzxK-37" value="Supplier" style="swimlane;fontStyle=0;childLayout=stackLayout;horizontal=1;startSize=26;horizontalStack=0;resizeParent=1;resizeParentMax=0;resizeLast=0;collapsible=1;marginBottom=0;align=center;fontSize=14;" parent="1" vertex="1">
          <mxGeometry x="1960" y="1080" width="160" height="116" as="geometry" />
        </mxCell>
        <mxCell id="-4r8OW4_0r0s2cTVPzxK-38" value="&lt;u&gt;supplier_id&lt;/u&gt;" style="text;strokeColor=none;fillColor=none;spacingLeft=4;spacingRight=4;overflow=hidden;rotatable=0;points=[[0,0.5],[1,0.5]];portConstraint=eastwest;fontSize=12;whiteSpace=wrap;html=1;" parent="-4r8OW4_0r0s2cTVPzxK-37" vertex="1">
          <mxGeometry y="26" width="160" height="30" as="geometry" />
        </mxCell>
        <mxCell id="-4r8OW4_0r0s2cTVPzxK-39" value="supplier_name" style="text;strokeColor=none;fillColor=none;spacingLeft=4;spacingRight=4;overflow=hidden;rotatable=0;points=[[0,0.5],[1,0.5]];portConstraint=eastwest;fontSize=12;whiteSpace=wrap;html=1;" parent="-4r8OW4_0r0s2cTVPzxK-37" vertex="1">
          <mxGeometry y="56" width="160" height="30" as="geometry" />
        </mxCell>
        <mxCell id="-4r8OW4_0r0s2cTVPzxK-40" value="supplier_origin" style="text;strokeColor=none;fillColor=none;spacingLeft=4;spacingRight=4;overflow=hidden;rotatable=0;points=[[0,0.5],[1,0.5]];portConstraint=eastwest;fontSize=12;whiteSpace=wrap;html=1;" parent="-4r8OW4_0r0s2cTVPzxK-37" vertex="1">
          <mxGeometry y="86" width="160" height="30" as="geometry" />
        </mxCell>
        <mxCell id="-4r8OW4_0r0s2cTVPzxK-41" value="Customer" style="swimlane;fontStyle=0;childLayout=stackLayout;horizontal=1;startSize=26;horizontalStack=0;resizeParent=1;resizeParentMax=0;resizeLast=0;collapsible=1;marginBottom=0;align=center;fontSize=14;" parent="1" vertex="1">
          <mxGeometry x="1600" y="1680" width="160" height="326" as="geometry" />
        </mxCell>
        <mxCell id="-4r8OW4_0r0s2cTVPzxK-42" value="&lt;u&gt;customer_id&lt;/u&gt;" style="text;strokeColor=none;fillColor=none;spacingLeft=4;spacingRight=4;overflow=hidden;rotatable=0;points=[[0,0.5],[1,0.5]];portConstraint=eastwest;fontSize=12;whiteSpace=wrap;html=1;" parent="-4r8OW4_0r0s2cTVPzxK-41" vertex="1">
          <mxGeometry y="26" width="160" height="30" as="geometry" />
        </mxCell>
        <mxCell id="-4r8OW4_0r0s2cTVPzxK-43" value="created_date" style="text;strokeColor=none;fillColor=none;spacingLeft=4;spacingRight=4;overflow=hidden;rotatable=0;points=[[0,0.5],[1,0.5]];portConstraint=eastwest;fontSize=12;whiteSpace=wrap;html=1;" parent="-4r8OW4_0r0s2cTVPzxK-41" vertex="1">
          <mxGeometry y="56" width="160" height="30" as="geometry" />
        </mxCell>
        <mxCell id="-4r8OW4_0r0s2cTVPzxK-44" value="full_name" style="text;strokeColor=none;fillColor=none;spacingLeft=4;spacingRight=4;overflow=hidden;rotatable=0;points=[[0,0.5],[1,0.5]];portConstraint=eastwest;fontSize=12;whiteSpace=wrap;html=1;" parent="-4r8OW4_0r0s2cTVPzxK-41" vertex="1">
          <mxGeometry y="86" width="160" height="30" as="geometry" />
        </mxCell>
        <mxCell id="jqzxEzm6aeWW69DF150y-24" value="gender" style="text;strokeColor=none;fillColor=none;spacingLeft=4;spacingRight=4;overflow=hidden;rotatable=0;points=[[0,0.5],[1,0.5]];portConstraint=eastwest;fontSize=12;whiteSpace=wrap;html=1;" parent="-4r8OW4_0r0s2cTVPzxK-41" vertex="1">
          <mxGeometry y="116" width="160" height="30" as="geometry" />
        </mxCell>
        <mxCell id="jqzxEzm6aeWW69DF150y-25" value="birthday" style="text;strokeColor=none;fillColor=none;spacingLeft=4;spacingRight=4;overflow=hidden;rotatable=0;points=[[0,0.5],[1,0.5]];portConstraint=eastwest;fontSize=12;whiteSpace=wrap;html=1;" parent="-4r8OW4_0r0s2cTVPzxK-41" vertex="1">
          <mxGeometry y="146" width="160" height="30" as="geometry" />
        </mxCell>
        <mxCell id="jqzxEzm6aeWW69DF150y-26" value="certify_no" style="text;strokeColor=none;fillColor=none;spacingLeft=4;spacingRight=4;overflow=hidden;rotatable=0;points=[[0,0.5],[1,0.5]];portConstraint=eastwest;fontSize=12;whiteSpace=wrap;html=1;" parent="-4r8OW4_0r0s2cTVPzxK-41" vertex="1">
          <mxGeometry y="176" width="160" height="30" as="geometry" />
        </mxCell>
        <mxCell id="jqzxEzm6aeWW69DF150y-27" value="phone" style="text;strokeColor=none;fillColor=none;spacingLeft=4;spacingRight=4;overflow=hidden;rotatable=0;points=[[0,0.5],[1,0.5]];portConstraint=eastwest;fontSize=12;whiteSpace=wrap;html=1;" parent="-4r8OW4_0r0s2cTVPzxK-41" vertex="1">
          <mxGeometry y="206" width="160" height="30" as="geometry" />
        </mxCell>
        <mxCell id="jqzxEzm6aeWW69DF150y-29" value="email" style="text;strokeColor=none;fillColor=none;spacingLeft=4;spacingRight=4;overflow=hidden;rotatable=0;points=[[0,0.5],[1,0.5]];portConstraint=eastwest;fontSize=12;whiteSpace=wrap;html=1;" parent="-4r8OW4_0r0s2cTVPzxK-41" vertex="1">
          <mxGeometry y="236" width="160" height="30" as="geometry" />
        </mxCell>
        <mxCell id="jqzxEzm6aeWW69DF150y-28" value="zip_code" style="text;strokeColor=none;fillColor=none;spacingLeft=4;spacingRight=4;overflow=hidden;rotatable=0;points=[[0,0.5],[1,0.5]];portConstraint=eastwest;fontSize=12;whiteSpace=wrap;html=1;" parent="-4r8OW4_0r0s2cTVPzxK-41" vertex="1">
          <mxGeometry y="266" width="160" height="30" as="geometry" />
        </mxCell>
        <mxCell id="jqzxEzm6aeWW69DF150y-30" value="city" style="text;strokeColor=none;fillColor=none;spacingLeft=4;spacingRight=4;overflow=hidden;rotatable=0;points=[[0,0.5],[1,0.5]];portConstraint=eastwest;fontSize=12;whiteSpace=wrap;html=1;" parent="-4r8OW4_0r0s2cTVPzxK-41" vertex="1">
          <mxGeometry y="296" width="160" height="30" as="geometry" />
        </mxCell>
        <mxCell id="jqzxEzm6aeWW69DF150y-32" value="Point balance" style="swimlane;fontStyle=0;childLayout=stackLayout;horizontal=1;startSize=26;horizontalStack=0;resizeParent=1;resizeParentMax=0;resizeLast=0;collapsible=1;marginBottom=0;align=center;fontSize=14;rounded=0;shadow=0;glass=0;swimlaneLine=1;" parent="1" vertex="1">
          <mxGeometry x="1200" y="1750" width="160" height="86" as="geometry">
            <mxRectangle x="1430" y="259" width="150" height="30" as="alternateBounds" />
          </mxGeometry>
        </mxCell>
        <mxCell id="cPn5eDL4V85z7vKzDj59-389" value="" style="endArrow=none;html=1;rounded=0;exitX=0.931;exitY=0.989;exitDx=0;exitDy=0;exitPerimeter=0;entryX=1;entryY=0.659;entryDx=0;entryDy=0;entryPerimeter=0;" parent="jqzxEzm6aeWW69DF150y-32" edge="1">
          <mxGeometry width="50" height="50" relative="1" as="geometry">
            <mxPoint y="10" as="sourcePoint" />
            <mxPoint x="11" as="targetPoint" />
          </mxGeometry>
        </mxCell>
        <mxCell id="cPn5eDL4V85z7vKzDj59-388" value="" style="endArrow=none;html=1;rounded=0;entryX=0;entryY=0.654;entryDx=0;entryDy=0;entryPerimeter=0;" parent="jqzxEzm6aeWW69DF150y-32" edge="1">
          <mxGeometry width="50" height="50" relative="1" as="geometry">
            <mxPoint x="160" y="10" as="sourcePoint" />
            <mxPoint x="149" as="targetPoint" />
          </mxGeometry>
        </mxCell>
        <mxCell id="cPn5eDL4V85z7vKzDj59-1" value="&lt;u&gt;update_date&lt;/u&gt;" style="text;strokeColor=none;fillColor=none;spacingLeft=4;spacingRight=4;overflow=hidden;rotatable=0;points=[[0,0.5],[1,0.5]];portConstraint=eastwest;fontSize=12;whiteSpace=wrap;html=1;" parent="jqzxEzm6aeWW69DF150y-32" vertex="1">
          <mxGeometry y="26" width="160" height="30" as="geometry" />
        </mxCell>
        <mxCell id="jqzxEzm6aeWW69DF150y-34" value="total_spending" style="text;strokeColor=none;fillColor=none;spacingLeft=4;spacingRight=4;overflow=hidden;rotatable=0;points=[[0,0.5],[1,0.5]];portConstraint=eastwest;fontSize=12;whiteSpace=wrap;html=1;" parent="jqzxEzm6aeWW69DF150y-32" vertex="1">
          <mxGeometry y="56" width="160" height="30" as="geometry" />
        </mxCell>
        <mxCell id="cPn5eDL4V85z7vKzDj59-387" value="" style="endArrow=none;html=1;rounded=0;entryX=0;entryY=0.654;entryDx=0;entryDy=0;entryPerimeter=0;" parent="jqzxEzm6aeWW69DF150y-32" edge="1">
          <mxGeometry width="50" height="50" relative="1" as="geometry">
            <mxPoint x="11" y="86" as="sourcePoint" />
            <mxPoint y="76" as="targetPoint" />
          </mxGeometry>
        </mxCell>
        <mxCell id="jqzxEzm6aeWW69DF150y-58" value="Membership" style="swimlane;fontStyle=0;childLayout=stackLayout;horizontal=1;startSize=26;horizontalStack=0;resizeParent=1;resizeParentMax=0;resizeLast=0;collapsible=1;marginBottom=0;align=center;fontSize=14;" parent="1" vertex="1">
          <mxGeometry x="1200" y="1920" width="160" height="116" as="geometry" />
        </mxCell>
        <mxCell id="jqzxEzm6aeWW69DF150y-59" value="&lt;u&gt;rank_id&lt;/u&gt;" style="text;strokeColor=none;fillColor=none;spacingLeft=4;spacingRight=4;overflow=hidden;rotatable=0;points=[[0,0.5],[1,0.5]];portConstraint=eastwest;fontSize=12;whiteSpace=wrap;html=1;" parent="jqzxEzm6aeWW69DF150y-58" vertex="1">
          <mxGeometry y="26" width="160" height="30" as="geometry" />
        </mxCell>
        <mxCell id="jqzxEzm6aeWW69DF150y-60" value="rank_name" style="text;strokeColor=none;fillColor=none;spacingLeft=4;spacingRight=4;overflow=hidden;rotatable=0;points=[[0,0.5],[1,0.5]];portConstraint=eastwest;fontSize=12;whiteSpace=wrap;html=1;" parent="jqzxEzm6aeWW69DF150y-58" vertex="1">
          <mxGeometry y="56" width="160" height="30" as="geometry" />
        </mxCell>
        <mxCell id="jqzxEzm6aeWW69DF150y-61" value="total_spending" style="text;strokeColor=none;fillColor=none;spacingLeft=4;spacingRight=4;overflow=hidden;rotatable=0;points=[[0,0.5],[1,0.5]];portConstraint=eastwest;fontSize=12;whiteSpace=wrap;html=1;" parent="jqzxEzm6aeWW69DF150y-58" vertex="1">
          <mxGeometry y="86" width="160" height="30" as="geometry" />
        </mxCell>
        <mxCell id="jqzxEzm6aeWW69DF150y-67" value="Payment" style="swimlane;fontStyle=0;childLayout=stackLayout;horizontal=1;startSize=26;horizontalStack=0;resizeParent=1;resizeParentMax=0;resizeLast=0;collapsible=1;marginBottom=0;align=center;fontSize=14;" parent="1" vertex="1">
          <mxGeometry x="1020" y="1070" width="160" height="146" as="geometry" />
        </mxCell>
        <mxCell id="jqzxEzm6aeWW69DF150y-68" value="&lt;u&gt;payment_id&lt;/u&gt;" style="text;strokeColor=none;fillColor=none;spacingLeft=4;spacingRight=4;overflow=hidden;rotatable=0;points=[[0,0.5],[1,0.5]];portConstraint=eastwest;fontSize=12;whiteSpace=wrap;html=1;" parent="jqzxEzm6aeWW69DF150y-67" vertex="1">
          <mxGeometry y="26" width="160" height="30" as="geometry" />
        </mxCell>
        <mxCell id="jqzxEzm6aeWW69DF150y-69" value="payment_name" style="text;strokeColor=none;fillColor=none;spacingLeft=4;spacingRight=4;overflow=hidden;rotatable=0;points=[[0,0.5],[1,0.5]];portConstraint=eastwest;fontSize=12;whiteSpace=wrap;html=1;" parent="jqzxEzm6aeWW69DF150y-67" vertex="1">
          <mxGeometry y="56" width="160" height="30" as="geometry" />
        </mxCell>
        <mxCell id="jqzxEzm6aeWW69DF150y-70" value="category" style="text;strokeColor=none;fillColor=none;spacingLeft=4;spacingRight=4;overflow=hidden;rotatable=0;points=[[0,0.5],[1,0.5]];portConstraint=eastwest;fontSize=12;whiteSpace=wrap;html=1;" parent="jqzxEzm6aeWW69DF150y-67" vertex="1">
          <mxGeometry y="86" width="160" height="30" as="geometry" />
        </mxCell>
        <mxCell id="jqzxEzm6aeWW69DF150y-75" value="description" style="text;strokeColor=none;fillColor=none;spacingLeft=4;spacingRight=4;overflow=hidden;rotatable=0;points=[[0,0.5],[1,0.5]];portConstraint=eastwest;fontSize=12;whiteSpace=wrap;html=1;" parent="jqzxEzm6aeWW69DF150y-67" vertex="1">
          <mxGeometry y="116" width="160" height="30" as="geometry" />
        </mxCell>
        <mxCell id="jqzxEzm6aeWW69DF150y-88" value="" style="edgeStyle=entityRelationEdgeStyle;fontSize=12;html=1;endArrow=ERoneToMany;startArrow=ERmandOne;rounded=0;exitX=1;exitY=0.5;exitDx=0;exitDy=0;" parent="1" source="-4r8OW4_0r0s2cTVPzxK-4" edge="1">
          <mxGeometry width="100" height="100" relative="1" as="geometry">
            <mxPoint x="1490" y="1430" as="sourcePoint" />
            <mxPoint x="1600" y="1421" as="targetPoint" />
          </mxGeometry>
        </mxCell>
        <mxCell id="jqzxEzm6aeWW69DF150y-94" value="details" style="text;html=1;strokeColor=none;fillColor=none;align=center;verticalAlign=middle;whiteSpace=wrap;rounded=0;" parent="1" vertex="1">
          <mxGeometry x="1450" y="1390" width="60" height="30" as="geometry" />
        </mxCell>
        <mxCell id="jqzxEzm6aeWW69DF150y-97" value="" style="fontSize=12;html=1;endArrow=ERzeroToMany;startArrow=ERmandOne;rounded=0;dashed=1;entryX=0.75;entryY=0;entryDx=0;entryDy=0;exitX=0;exitY=0.5;exitDx=0;exitDy=0;" parent="1" source="jqzxEzm6aeWW69DF150y-78" target="-4r8OW4_0r0s2cTVPzxK-1" edge="1">
          <mxGeometry width="100" height="100" relative="1" as="geometry">
            <mxPoint x="1280" y="1320" as="sourcePoint" />
            <mxPoint x="1330" y="870" as="targetPoint" />
            <Array as="points">
              <mxPoint x="1320" y="1081" />
            </Array>
          </mxGeometry>
        </mxCell>
        <mxCell id="jqzxEzm6aeWW69DF150y-98" value="charges by" style="text;html=1;strokeColor=none;fillColor=none;align=center;verticalAlign=middle;whiteSpace=wrap;rounded=0;" parent="1" vertex="1">
          <mxGeometry x="1300" y="1050" width="70" height="30" as="geometry" />
        </mxCell>
        <mxCell id="jqzxEzm6aeWW69DF150y-100" value="" style="fontSize=12;html=1;endArrow=ERzeroToMany;startArrow=ERmandOne;rounded=0;dashed=1;" parent="1" edge="1">
          <mxGeometry width="100" height="100" relative="1" as="geometry">
            <mxPoint x="1180" y="1191" as="sourcePoint" />
            <mxPoint x="1270" y="1320" as="targetPoint" />
            <Array as="points">
              <mxPoint x="1270" y="1191" />
            </Array>
          </mxGeometry>
        </mxCell>
        <mxCell id="jqzxEzm6aeWW69DF150y-101" value="pays by" style="text;html=1;strokeColor=none;fillColor=none;align=center;verticalAlign=middle;whiteSpace=wrap;rounded=0;" parent="1" vertex="1">
          <mxGeometry x="1230" y="1160" width="60" height="30" as="geometry" />
        </mxCell>
        <mxCell id="jqzxEzm6aeWW69DF150y-103" value="" style="fontSize=12;html=1;endArrow=ERzeroToMany;startArrow=ERmandOne;rounded=0;dashed=1;" parent="1" edge="1">
          <mxGeometry width="100" height="100" relative="1" as="geometry">
            <mxPoint x="1000" y="1437" as="sourcePoint" />
            <mxPoint x="1200" y="1437" as="targetPoint" />
            <Array as="points">
              <mxPoint x="1090" y="1437" />
            </Array>
          </mxGeometry>
        </mxCell>
        <mxCell id="jqzxEzm6aeWW69DF150y-104" value="locates" style="text;html=1;strokeColor=none;fillColor=none;align=center;verticalAlign=middle;whiteSpace=wrap;rounded=0;" parent="1" vertex="1">
          <mxGeometry x="1070" y="1410" width="60" height="30" as="geometry" />
        </mxCell>
        <mxCell id="jqzxEzm6aeWW69DF150y-108" value="" style="fontSize=12;html=1;endArrow=ERzeroToMany;startArrow=ERmandOne;rounded=0;dashed=1;entryX=0.241;entryY=0.993;entryDx=0;entryDy=0;entryPerimeter=0;" parent="1" target="jqzxEzm6aeWW69DF150y-4" edge="1">
          <mxGeometry width="100" height="100" relative="1" as="geometry">
            <mxPoint x="1000" y="1680" as="sourcePoint" />
            <mxPoint x="1240" y="1590" as="targetPoint" />
            <Array as="points">
              <mxPoint x="1240" y="1680" />
            </Array>
          </mxGeometry>
        </mxCell>
        <mxCell id="jqzxEzm6aeWW69DF150y-109" value="charges at" style="text;html=1;strokeColor=none;fillColor=none;align=center;verticalAlign=middle;whiteSpace=wrap;rounded=0;" parent="1" vertex="1">
          <mxGeometry x="1170" y="1650" width="70" height="30" as="geometry" />
        </mxCell>
        <mxCell id="jqzxEzm6aeWW69DF150y-114" value="" style="fontSize=12;html=1;endArrow=ERoneToMany;startArrow=ERmandOne;rounded=0;exitX=0.5;exitY=0;exitDx=0;exitDy=0;dashed=1;entryX=0.504;entryY=1.002;entryDx=0;entryDy=0;entryPerimeter=0;" parent="1" source="jqzxEzm6aeWW69DF150y-58" target="jqzxEzm6aeWW69DF150y-34" edge="1">
          <mxGeometry width="100" height="100" relative="1" as="geometry">
            <mxPoint x="990" y="1910" as="sourcePoint" />
            <mxPoint x="1280.3199999999997" y="1865.58" as="targetPoint" />
          </mxGeometry>
        </mxCell>
        <mxCell id="jqzxEzm6aeWW69DF150y-115" value="next_rank" style="text;html=1;strokeColor=none;fillColor=none;align=center;verticalAlign=middle;whiteSpace=wrap;rounded=0;" parent="1" vertex="1">
          <mxGeometry x="1280" y="1860" width="60" height="30" as="geometry" />
        </mxCell>
        <mxCell id="jqzxEzm6aeWW69DF150y-118" value="" style="fontSize=12;html=1;endArrow=ERzeroToMany;startArrow=ERzeroToOne;rounded=0;exitX=0;exitY=0.5;exitDx=0;exitDy=0;dashed=1;" parent="1" source="-4r8OW4_0r0s2cTVPzxK-42" edge="1">
          <mxGeometry width="100" height="100" relative="1" as="geometry">
            <mxPoint x="1340" y="1520" as="sourcePoint" />
            <mxPoint x="1360" y="1560" as="targetPoint" />
            <Array as="points">
              <mxPoint x="1440" y="1720" />
              <mxPoint x="1440" y="1560" />
            </Array>
          </mxGeometry>
        </mxCell>
        <mxCell id="jqzxEzm6aeWW69DF150y-119" value="buys" style="text;html=1;strokeColor=none;fillColor=none;align=center;verticalAlign=middle;whiteSpace=wrap;rounded=0;" parent="1" vertex="1">
          <mxGeometry x="1440" y="1690" width="40" height="30" as="geometry" />
        </mxCell>
        <mxCell id="jqzxEzm6aeWW69DF150y-121" value="" style="fontSize=12;html=1;endArrow=ERzeroToMany;startArrow=ERzeroToOne;rounded=0;exitX=0.5;exitY=0;exitDx=0;exitDy=0;dashed=1;entryX=0.493;entryY=0.997;entryDx=0;entryDy=0;entryPerimeter=0;" parent="1" source="-4r8OW4_0r0s2cTVPzxK-29" target="jqzxEzm6aeWW69DF150y-13" edge="1">
          <mxGeometry width="100" height="100" relative="1" as="geometry">
            <mxPoint x="2000" y="1720" as="sourcePoint" />
            <mxPoint x="1679" y="1510" as="targetPoint" />
            <Array as="points">
              <mxPoint x="2000" y="1550" />
              <mxPoint x="1679" y="1550" />
            </Array>
          </mxGeometry>
        </mxCell>
        <mxCell id="jqzxEzm6aeWW69DF150y-122" value="applies" style="text;html=1;strokeColor=none;fillColor=none;align=center;verticalAlign=middle;whiteSpace=wrap;rounded=0;" parent="1" vertex="1">
          <mxGeometry x="1940" y="1550" width="60" height="30" as="geometry" />
        </mxCell>
        <mxCell id="jqzxEzm6aeWW69DF150y-124" value="" style="fontSize=12;html=1;endArrow=ERoneToMany;startArrow=ERmandOne;rounded=0;entryX=1.01;entryY=0.112;entryDx=0;entryDy=0;entryPerimeter=0;dashed=1;" parent="1" edge="1">
          <mxGeometry width="100" height="100" relative="1" as="geometry">
            <mxPoint x="1960" y="1440" as="sourcePoint" />
            <mxPoint x="1761.6" y="1439.3599999999997" as="targetPoint" />
          </mxGeometry>
        </mxCell>
        <mxCell id="jqzxEzm6aeWW69DF150y-125" value="is" style="text;html=1;strokeColor=none;fillColor=none;align=center;verticalAlign=middle;whiteSpace=wrap;rounded=0;" parent="1" vertex="1">
          <mxGeometry x="1830" y="1410" width="60" height="30" as="geometry" />
        </mxCell>
        <mxCell id="jqzxEzm6aeWW69DF150y-127" value="" style="fontSize=12;html=1;endArrow=ERoneToMany;startArrow=ERmandOne;rounded=0;entryX=0.5;entryY=0;entryDx=0;entryDy=0;dashed=1;exitX=0.497;exitY=1.047;exitDx=0;exitDy=0;exitPerimeter=0;" parent="1" source="-4r8OW4_0r0s2cTVPzxK-40" target="-4r8OW4_0r0s2cTVPzxK-17" edge="1">
          <mxGeometry width="100" height="100" relative="1" as="geometry">
            <mxPoint x="2040" y="1200" as="sourcePoint" />
            <mxPoint x="1840" y="1196" as="targetPoint" />
          </mxGeometry>
        </mxCell>
        <mxCell id="jqzxEzm6aeWW69DF150y-128" value="supplies" style="text;html=1;strokeColor=none;fillColor=none;align=center;verticalAlign=middle;whiteSpace=wrap;rounded=0;" parent="1" vertex="1">
          <mxGeometry x="2040" y="1240" width="50" height="30" as="geometry" />
        </mxCell>
        <mxCell id="jqzxEzm6aeWW69DF150y-129" value="" style="fontSize=12;html=1;endArrow=ERoneToMany;startArrow=ERmandOne;rounded=0;dashed=1;" parent="1" edge="1">
          <mxGeometry width="100" height="100" relative="1" as="geometry">
            <mxPoint x="1360" y="2000" as="sourcePoint" />
            <mxPoint x="1600" y="2000" as="targetPoint" />
          </mxGeometry>
        </mxCell>
        <mxCell id="jqzxEzm6aeWW69DF150y-130" value="current_rank" style="text;html=1;strokeColor=none;fillColor=none;align=center;verticalAlign=middle;whiteSpace=wrap;rounded=0;" parent="1" vertex="1">
          <mxGeometry x="1445" y="1970" width="70" height="30" as="geometry" />
        </mxCell>
        <mxCell id="cPn5eDL4V85z7vKzDj59-4" value="" style="fontSize=12;html=1;endArrow=ERoneToMany;startArrow=ERmandOne;rounded=0;exitX=0;exitY=0.5;exitDx=0;exitDy=0;" parent="1" source="jqzxEzm6aeWW69DF150y-24" edge="1">
          <mxGeometry width="100" height="100" relative="1" as="geometry">
            <mxPoint x="1460" y="1908" as="sourcePoint" />
            <mxPoint x="1360" y="1810" as="targetPoint" />
          </mxGeometry>
        </mxCell>
        <mxCell id="cPn5eDL4V85z7vKzDj59-5" value="is" style="text;html=1;strokeColor=none;fillColor=none;align=center;verticalAlign=middle;whiteSpace=wrap;rounded=0;" parent="1" vertex="1">
          <mxGeometry x="1445" y="1780" width="40" height="30" as="geometry" />
        </mxCell>
        <mxCell id="cPn5eDL4V85z7vKzDj59-8" value="Transaction" style="swimlane;fontStyle=0;childLayout=stackLayout;horizontal=1;startSize=26;horizontalStack=0;resizeParent=1;resizeParentMax=0;resizeLast=0;collapsible=1;marginBottom=0;align=center;fontSize=14;" parent="1" vertex="1">
          <mxGeometry x="1210" y="3154" width="160" height="416" as="geometry" />
        </mxCell>
        <mxCell id="cPn5eDL4V85z7vKzDj59-9" value="&lt;u&gt;transaction_id&lt;/u&gt;" style="text;strokeColor=none;fillColor=none;spacingLeft=4;spacingRight=4;overflow=hidden;rotatable=0;points=[[0,0.5],[1,0.5]];portConstraint=eastwest;fontSize=12;whiteSpace=wrap;html=1;" parent="cPn5eDL4V85z7vKzDj59-8" vertex="1">
          <mxGeometry y="26" width="160" height="30" as="geometry" />
        </mxCell>
        <mxCell id="cPn5eDL4V85z7vKzDj59-10" value="transaction_date" style="text;strokeColor=none;fillColor=none;spacingLeft=4;spacingRight=4;overflow=hidden;rotatable=0;points=[[0,0.5],[1,0.5]];portConstraint=eastwest;fontSize=12;whiteSpace=wrap;html=1;" parent="cPn5eDL4V85z7vKzDj59-8" vertex="1">
          <mxGeometry y="56" width="160" height="30" as="geometry" />
        </mxCell>
        <mxCell id="cPn5eDL4V85z7vKzDj59-123" value="&lt;b&gt;store_id&lt;/b&gt;" style="text;strokeColor=none;fillColor=none;spacingLeft=4;spacingRight=4;overflow=hidden;rotatable=0;points=[[0,0.5],[1,0.5]];portConstraint=eastwest;fontSize=12;whiteSpace=wrap;html=1;" parent="cPn5eDL4V85z7vKzDj59-8" vertex="1">
          <mxGeometry y="86" width="160" height="30" as="geometry" />
        </mxCell>
        <mxCell id="cPn5eDL4V85z7vKzDj59-122" value="&lt;b&gt;employee_id&lt;/b&gt;" style="text;strokeColor=none;fillColor=none;spacingLeft=4;spacingRight=4;overflow=hidden;rotatable=0;points=[[0,0.5],[1,0.5]];portConstraint=eastwest;fontSize=12;whiteSpace=wrap;html=1;" parent="cPn5eDL4V85z7vKzDj59-8" vertex="1">
          <mxGeometry y="116" width="160" height="30" as="geometry" />
        </mxCell>
        <mxCell id="cPn5eDL4V85z7vKzDj59-124" value="&lt;b&gt;terminal_id&lt;/b&gt;" style="text;strokeColor=none;fillColor=none;spacingLeft=4;spacingRight=4;overflow=hidden;rotatable=0;points=[[0,0.5],[1,0.5]];portConstraint=eastwest;fontSize=12;whiteSpace=wrap;html=1;" parent="cPn5eDL4V85z7vKzDj59-8" vertex="1">
          <mxGeometry y="146" width="160" height="30" as="geometry" />
        </mxCell>
        <mxCell id="cPn5eDL4V85z7vKzDj59-125" value="&lt;b&gt;customer_id&lt;/b&gt;" style="text;strokeColor=none;fillColor=none;spacingLeft=4;spacingRight=4;overflow=hidden;rotatable=0;points=[[0,0.5],[1,0.5]];portConstraint=eastwest;fontSize=12;whiteSpace=wrap;html=1;" parent="cPn5eDL4V85z7vKzDj59-8" vertex="1">
          <mxGeometry y="176" width="160" height="30" as="geometry" />
        </mxCell>
        <mxCell id="cPn5eDL4V85z7vKzDj59-11" value="total_quantity" style="text;strokeColor=none;fillColor=none;spacingLeft=4;spacingRight=4;overflow=hidden;rotatable=0;points=[[0,0.5],[1,0.5]];portConstraint=eastwest;fontSize=12;whiteSpace=wrap;html=1;" parent="cPn5eDL4V85z7vKzDj59-8" vertex="1">
          <mxGeometry y="206" width="160" height="30" as="geometry" />
        </mxCell>
        <mxCell id="cPn5eDL4V85z7vKzDj59-12" value="total_amount" style="text;strokeColor=none;fillColor=none;spacingLeft=4;spacingRight=4;overflow=hidden;rotatable=0;points=[[0,0.5],[1,0.5]];portConstraint=eastwest;fontSize=12;whiteSpace=wrap;html=1;" parent="cPn5eDL4V85z7vKzDj59-8" vertex="1">
          <mxGeometry y="236" width="160" height="30" as="geometry" />
        </mxCell>
        <mxCell id="cPn5eDL4V85z7vKzDj59-13" value="VAT" style="text;strokeColor=none;fillColor=none;spacingLeft=4;spacingRight=4;overflow=hidden;rotatable=0;points=[[0,0.5],[1,0.5]];portConstraint=eastwest;fontSize=12;whiteSpace=wrap;html=1;" parent="cPn5eDL4V85z7vKzDj59-8" vertex="1">
          <mxGeometry y="266" width="160" height="30" as="geometry" />
        </mxCell>
        <mxCell id="cPn5eDL4V85z7vKzDj59-14" value="net_amount" style="text;strokeColor=none;fillColor=none;spacingLeft=4;spacingRight=4;overflow=hidden;rotatable=0;points=[[0,0.5],[1,0.5]];portConstraint=eastwest;fontSize=12;whiteSpace=wrap;html=1;" parent="cPn5eDL4V85z7vKzDj59-8" vertex="1">
          <mxGeometry y="296" width="160" height="30" as="geometry" />
        </mxCell>
        <mxCell id="cPn5eDL4V85z7vKzDj59-139" value="&lt;b&gt;payment_id&lt;/b&gt;" style="text;strokeColor=none;fillColor=none;spacingLeft=4;spacingRight=4;overflow=hidden;rotatable=0;points=[[0,0.5],[1,0.5]];portConstraint=eastwest;fontSize=12;whiteSpace=wrap;html=1;" parent="cPn5eDL4V85z7vKzDj59-8" vertex="1">
          <mxGeometry y="326" width="160" height="30" as="geometry" />
        </mxCell>
        <mxCell id="cPn5eDL4V85z7vKzDj59-15" value="cash_received" style="text;strokeColor=none;fillColor=none;spacingLeft=4;spacingRight=4;overflow=hidden;rotatable=0;points=[[0,0.5],[1,0.5]];portConstraint=eastwest;fontSize=12;whiteSpace=wrap;html=1;" parent="cPn5eDL4V85z7vKzDj59-8" vertex="1">
          <mxGeometry y="356" width="160" height="30" as="geometry" />
        </mxCell>
        <mxCell id="cPn5eDL4V85z7vKzDj59-16" value="change_due" style="text;strokeColor=none;fillColor=none;spacingLeft=4;spacingRight=4;overflow=hidden;rotatable=0;points=[[0,0.5],[1,0.5]];portConstraint=eastwest;fontSize=12;whiteSpace=wrap;html=1;" parent="cPn5eDL4V85z7vKzDj59-8" vertex="1">
          <mxGeometry y="386" width="160" height="30" as="geometry" />
        </mxCell>
        <mxCell id="cPn5eDL4V85z7vKzDj59-17" value="Transaction detail" style="swimlane;fontStyle=0;childLayout=stackLayout;horizontal=1;startSize=26;horizontalStack=0;resizeParent=1;resizeParentMax=0;resizeLast=0;collapsible=1;marginBottom=0;align=center;fontSize=14;rounded=0;shadow=0;glass=0;swimlaneLine=1;" parent="1" vertex="1">
          <mxGeometry x="1610" y="3220" width="160" height="266" as="geometry">
            <mxRectangle x="1430" y="259" width="150" height="30" as="alternateBounds" />
          </mxGeometry>
        </mxCell>
        <mxCell id="cPn5eDL4V85z7vKzDj59-174" value="&lt;u&gt;&lt;b&gt;transaction_id&lt;/b&gt;&lt;/u&gt;" style="text;strokeColor=none;fillColor=none;spacingLeft=4;spacingRight=4;overflow=hidden;rotatable=0;points=[[0,0.5],[1,0.5]];portConstraint=eastwest;fontSize=12;whiteSpace=wrap;html=1;" parent="cPn5eDL4V85z7vKzDj59-17" vertex="1">
          <mxGeometry y="26" width="160" height="30" as="geometry" />
        </mxCell>
        <mxCell id="cPn5eDL4V85z7vKzDj59-19" value="&lt;u&gt;ordinal_number&lt;/u&gt;" style="text;strokeColor=none;fillColor=none;spacingLeft=4;spacingRight=4;overflow=hidden;rotatable=0;points=[[0,0.5],[1,0.5]];portConstraint=eastwest;fontSize=12;whiteSpace=wrap;html=1;" parent="cPn5eDL4V85z7vKzDj59-17" vertex="1">
          <mxGeometry y="56" width="160" height="30" as="geometry" />
        </mxCell>
        <mxCell id="cPn5eDL4V85z7vKzDj59-197" value="&lt;b&gt;product_id&lt;/b&gt;" style="text;strokeColor=none;fillColor=none;spacingLeft=4;spacingRight=4;overflow=hidden;rotatable=0;points=[[0,0.5],[1,0.5]];portConstraint=eastwest;fontSize=12;whiteSpace=wrap;html=1;" parent="cPn5eDL4V85z7vKzDj59-17" vertex="1">
          <mxGeometry y="86" width="160" height="30" as="geometry" />
        </mxCell>
        <mxCell id="cPn5eDL4V85z7vKzDj59-20" value="quantity" style="text;strokeColor=none;fillColor=none;spacingLeft=4;spacingRight=4;overflow=hidden;rotatable=0;points=[[0,0.5],[1,0.5]];portConstraint=eastwest;fontSize=12;whiteSpace=wrap;html=1;" parent="cPn5eDL4V85z7vKzDj59-17" vertex="1">
          <mxGeometry y="116" width="160" height="30" as="geometry" />
        </mxCell>
        <mxCell id="cPn5eDL4V85z7vKzDj59-21" value="original_total_amount" style="text;strokeColor=none;fillColor=none;spacingLeft=4;spacingRight=4;overflow=hidden;rotatable=0;points=[[0,0.5],[1,0.5]];portConstraint=eastwest;fontSize=12;whiteSpace=wrap;html=1;" parent="cPn5eDL4V85z7vKzDj59-17" vertex="1">
          <mxGeometry y="146" width="160" height="30" as="geometry" />
        </mxCell>
        <mxCell id="cPn5eDL4V85z7vKzDj59-175" value="&lt;b&gt;promotion_1&lt;/b&gt;" style="text;strokeColor=none;fillColor=none;spacingLeft=4;spacingRight=4;overflow=hidden;rotatable=0;points=[[0,0.5],[1,0.5]];portConstraint=eastwest;fontSize=12;whiteSpace=wrap;html=1;" parent="cPn5eDL4V85z7vKzDj59-17" vertex="1">
          <mxGeometry y="176" width="160" height="30" as="geometry" />
        </mxCell>
        <mxCell id="cPn5eDL4V85z7vKzDj59-176" value="&lt;b&gt;promotion_2&lt;/b&gt;" style="text;strokeColor=none;fillColor=none;spacingLeft=4;spacingRight=4;overflow=hidden;rotatable=0;points=[[0,0.5],[1,0.5]];portConstraint=eastwest;fontSize=12;whiteSpace=wrap;html=1;" parent="cPn5eDL4V85z7vKzDj59-17" vertex="1">
          <mxGeometry y="206" width="160" height="30" as="geometry" />
        </mxCell>
        <mxCell id="cPn5eDL4V85z7vKzDj59-22" value="total_amount" style="text;strokeColor=none;fillColor=none;spacingLeft=4;spacingRight=4;overflow=hidden;rotatable=0;points=[[0,0.5],[1,0.5]];portConstraint=eastwest;fontSize=12;whiteSpace=wrap;html=1;" parent="cPn5eDL4V85z7vKzDj59-17" vertex="1">
          <mxGeometry y="236" width="160" height="30" as="geometry" />
        </mxCell>
        <mxCell id="cPn5eDL4V85z7vKzDj59-25" value="Store" style="swimlane;fontStyle=0;childLayout=stackLayout;horizontal=1;startSize=26;horizontalStack=0;resizeParent=1;resizeParentMax=0;resizeLast=0;collapsible=1;marginBottom=0;align=center;fontSize=14;" parent="1" vertex="1">
          <mxGeometry x="850" y="3190" width="160" height="236" as="geometry" />
        </mxCell>
        <mxCell id="cPn5eDL4V85z7vKzDj59-26" value="&lt;u&gt;store_id&lt;/u&gt;" style="text;strokeColor=none;fillColor=none;spacingLeft=4;spacingRight=4;overflow=hidden;rotatable=0;points=[[0,0.5],[1,0.5]];portConstraint=eastwest;fontSize=12;whiteSpace=wrap;html=1;" parent="cPn5eDL4V85z7vKzDj59-25" vertex="1">
          <mxGeometry y="26" width="160" height="30" as="geometry" />
        </mxCell>
        <mxCell id="cPn5eDL4V85z7vKzDj59-27" value="address" style="text;strokeColor=none;fillColor=none;spacingLeft=4;spacingRight=4;overflow=hidden;rotatable=0;points=[[0,0.5],[1,0.5]];portConstraint=eastwest;fontSize=12;whiteSpace=wrap;html=1;" parent="cPn5eDL4V85z7vKzDj59-25" vertex="1">
          <mxGeometry y="56" width="160" height="30" as="geometry" />
        </mxCell>
        <mxCell id="cPn5eDL4V85z7vKzDj59-237" value="zip_code" style="text;strokeColor=none;fillColor=none;spacingLeft=4;spacingRight=4;overflow=hidden;rotatable=0;points=[[0,0.5],[1,0.5]];portConstraint=eastwest;fontSize=12;whiteSpace=wrap;html=1;" parent="cPn5eDL4V85z7vKzDj59-25" vertex="1">
          <mxGeometry y="86" width="160" height="30" as="geometry" />
        </mxCell>
        <mxCell id="cPn5eDL4V85z7vKzDj59-28" value="city" style="text;strokeColor=none;fillColor=none;spacingLeft=4;spacingRight=4;overflow=hidden;rotatable=0;points=[[0,0.5],[1,0.5]];portConstraint=eastwest;fontSize=12;whiteSpace=wrap;html=1;" parent="cPn5eDL4V85z7vKzDj59-25" vertex="1">
          <mxGeometry y="116" width="160" height="30" as="geometry" />
        </mxCell>
        <mxCell id="cPn5eDL4V85z7vKzDj59-30" value="total_width" style="text;strokeColor=none;fillColor=none;spacingLeft=4;spacingRight=4;overflow=hidden;rotatable=0;points=[[0,0.5],[1,0.5]];portConstraint=eastwest;fontSize=12;whiteSpace=wrap;html=1;" parent="cPn5eDL4V85z7vKzDj59-25" vertex="1">
          <mxGeometry y="146" width="160" height="30" as="geometry" />
        </mxCell>
        <mxCell id="cPn5eDL4V85z7vKzDj59-31" value="total_length" style="text;strokeColor=none;fillColor=none;spacingLeft=4;spacingRight=4;overflow=hidden;rotatable=0;points=[[0,0.5],[1,0.5]];portConstraint=eastwest;fontSize=12;whiteSpace=wrap;html=1;" parent="cPn5eDL4V85z7vKzDj59-25" vertex="1">
          <mxGeometry y="176" width="160" height="30" as="geometry" />
        </mxCell>
        <mxCell id="cPn5eDL4V85z7vKzDj59-32" value="total_area" style="text;strokeColor=none;fillColor=none;spacingLeft=4;spacingRight=4;overflow=hidden;rotatable=0;points=[[0,0.5],[1,0.5]];portConstraint=eastwest;fontSize=12;whiteSpace=wrap;html=1;" parent="cPn5eDL4V85z7vKzDj59-25" vertex="1">
          <mxGeometry y="206" width="160" height="30" as="geometry" />
        </mxCell>
        <mxCell id="cPn5eDL4V85z7vKzDj59-33" value="Employee" style="swimlane;fontStyle=0;childLayout=stackLayout;horizontal=1;startSize=26;horizontalStack=0;resizeParent=1;resizeParentMax=0;resizeLast=0;collapsible=1;marginBottom=0;align=center;fontSize=14;" parent="1" vertex="1">
          <mxGeometry x="1430" y="2730" width="160" height="386" as="geometry" />
        </mxCell>
        <mxCell id="cPn5eDL4V85z7vKzDj59-34" value="&lt;u&gt;employee_id&lt;/u&gt;" style="text;strokeColor=none;fillColor=none;spacingLeft=4;spacingRight=4;overflow=hidden;rotatable=0;points=[[0,0.5],[1,0.5]];portConstraint=eastwest;fontSize=12;whiteSpace=wrap;html=1;" parent="cPn5eDL4V85z7vKzDj59-33" vertex="1">
          <mxGeometry y="26" width="160" height="30" as="geometry" />
        </mxCell>
        <mxCell id="cPn5eDL4V85z7vKzDj59-35" value="working_date" style="text;strokeColor=none;fillColor=none;spacingLeft=4;spacingRight=4;overflow=hidden;rotatable=0;points=[[0,0.5],[1,0.5]];portConstraint=eastwest;fontSize=12;whiteSpace=wrap;html=1;" parent="cPn5eDL4V85z7vKzDj59-33" vertex="1">
          <mxGeometry y="56" width="160" height="30" as="geometry" />
        </mxCell>
        <mxCell id="cPn5eDL4V85z7vKzDj59-36" value="full_name" style="text;strokeColor=none;fillColor=none;spacingLeft=4;spacingRight=4;overflow=hidden;rotatable=0;points=[[0,0.5],[1,0.5]];portConstraint=eastwest;fontSize=12;whiteSpace=wrap;html=1;" parent="cPn5eDL4V85z7vKzDj59-33" vertex="1">
          <mxGeometry y="86" width="160" height="30" as="geometry" />
        </mxCell>
        <mxCell id="cPn5eDL4V85z7vKzDj59-37" value="gender" style="text;strokeColor=none;fillColor=none;spacingLeft=4;spacingRight=4;overflow=hidden;rotatable=0;points=[[0,0.5],[1,0.5]];portConstraint=eastwest;fontSize=12;whiteSpace=wrap;html=1;" parent="cPn5eDL4V85z7vKzDj59-33" vertex="1">
          <mxGeometry y="116" width="160" height="30" as="geometry" />
        </mxCell>
        <mxCell id="cPn5eDL4V85z7vKzDj59-38" value="birthday" style="text;strokeColor=none;fillColor=none;spacingLeft=4;spacingRight=4;overflow=hidden;rotatable=0;points=[[0,0.5],[1,0.5]];portConstraint=eastwest;fontSize=12;whiteSpace=wrap;html=1;" parent="cPn5eDL4V85z7vKzDj59-33" vertex="1">
          <mxGeometry y="146" width="160" height="30" as="geometry" />
        </mxCell>
        <mxCell id="cPn5eDL4V85z7vKzDj59-39" value="phone" style="text;strokeColor=none;fillColor=none;spacingLeft=4;spacingRight=4;overflow=hidden;rotatable=0;points=[[0,0.5],[1,0.5]];portConstraint=eastwest;fontSize=12;whiteSpace=wrap;html=1;" parent="cPn5eDL4V85z7vKzDj59-33" vertex="1">
          <mxGeometry y="176" width="160" height="30" as="geometry" />
        </mxCell>
        <mxCell id="cPn5eDL4V85z7vKzDj59-40" value="email" style="text;strokeColor=none;fillColor=none;spacingLeft=4;spacingRight=4;overflow=hidden;rotatable=0;points=[[0,0.5],[1,0.5]];portConstraint=eastwest;fontSize=12;whiteSpace=wrap;html=1;" parent="cPn5eDL4V85z7vKzDj59-33" vertex="1">
          <mxGeometry y="206" width="160" height="30" as="geometry" />
        </mxCell>
        <mxCell id="cPn5eDL4V85z7vKzDj59-41" value="certify_no" style="text;strokeColor=none;fillColor=none;spacingLeft=4;spacingRight=4;overflow=hidden;rotatable=0;points=[[0,0.5],[1,0.5]];portConstraint=eastwest;fontSize=12;whiteSpace=wrap;html=1;" parent="cPn5eDL4V85z7vKzDj59-33" vertex="1">
          <mxGeometry y="236" width="160" height="30" as="geometry" />
        </mxCell>
        <mxCell id="cPn5eDL4V85z7vKzDj59-42" value="full_current_address" style="text;strokeColor=none;fillColor=none;spacingLeft=4;spacingRight=4;overflow=hidden;rotatable=0;points=[[0,0.5],[1,0.5]];portConstraint=eastwest;fontSize=12;whiteSpace=wrap;html=1;" parent="cPn5eDL4V85z7vKzDj59-33" vertex="1">
          <mxGeometry y="266" width="160" height="30" as="geometry" />
        </mxCell>
        <mxCell id="cPn5eDL4V85z7vKzDj59-43" value="full_permanent_address" style="text;strokeColor=none;fillColor=none;spacingLeft=4;spacingRight=4;overflow=hidden;rotatable=0;points=[[0,0.5],[1,0.5]];portConstraint=eastwest;fontSize=12;whiteSpace=wrap;html=1;" parent="cPn5eDL4V85z7vKzDj59-33" vertex="1">
          <mxGeometry y="296" width="160" height="30" as="geometry" />
        </mxCell>
        <mxCell id="cPn5eDL4V85z7vKzDj59-44" value="zip_code" style="text;strokeColor=none;fillColor=none;spacingLeft=4;spacingRight=4;overflow=hidden;rotatable=0;points=[[0,0.5],[1,0.5]];portConstraint=eastwest;fontSize=12;whiteSpace=wrap;html=1;" parent="cPn5eDL4V85z7vKzDj59-33" vertex="1">
          <mxGeometry y="326" width="160" height="30" as="geometry" />
        </mxCell>
        <mxCell id="cPn5eDL4V85z7vKzDj59-45" value="city" style="text;strokeColor=none;fillColor=none;spacingLeft=4;spacingRight=4;overflow=hidden;rotatable=0;points=[[0,0.5],[1,0.5]];portConstraint=eastwest;fontSize=12;whiteSpace=wrap;html=1;" parent="cPn5eDL4V85z7vKzDj59-33" vertex="1">
          <mxGeometry y="356" width="160" height="30" as="geometry" />
        </mxCell>
        <mxCell id="cPn5eDL4V85z7vKzDj59-47" value="Product" style="swimlane;fontStyle=0;childLayout=stackLayout;horizontal=1;startSize=26;horizontalStack=0;resizeParent=1;resizeParentMax=0;resizeLast=0;collapsible=1;marginBottom=0;align=center;fontSize=14;" parent="1" vertex="1">
          <mxGeometry x="1970" y="3190" width="160" height="236" as="geometry" />
        </mxCell>
        <mxCell id="cPn5eDL4V85z7vKzDj59-48" value="&lt;u&gt;product_id&lt;/u&gt;" style="text;strokeColor=none;fillColor=none;spacingLeft=4;spacingRight=4;overflow=hidden;rotatable=0;points=[[0,0.5],[1,0.5]];portConstraint=eastwest;fontSize=12;whiteSpace=wrap;html=1;" parent="cPn5eDL4V85z7vKzDj59-47" vertex="1">
          <mxGeometry y="26" width="160" height="30" as="geometry" />
        </mxCell>
        <mxCell id="cPn5eDL4V85z7vKzDj59-49" value="product_name" style="text;strokeColor=none;fillColor=none;spacingLeft=4;spacingRight=4;overflow=hidden;rotatable=0;points=[[0,0.5],[1,0.5]];portConstraint=eastwest;fontSize=12;whiteSpace=wrap;html=1;" parent="cPn5eDL4V85z7vKzDj59-47" vertex="1">
          <mxGeometry y="56" width="160" height="30" as="geometry" />
        </mxCell>
        <mxCell id="cPn5eDL4V85z7vKzDj59-50" value="unit_price" style="text;strokeColor=none;fillColor=none;spacingLeft=4;spacingRight=4;overflow=hidden;rotatable=0;points=[[0,0.5],[1,0.5]];portConstraint=eastwest;fontSize=12;whiteSpace=wrap;html=1;" parent="cPn5eDL4V85z7vKzDj59-47" vertex="1">
          <mxGeometry y="86" width="160" height="30" as="geometry" />
        </mxCell>
        <mxCell id="cPn5eDL4V85z7vKzDj59-51" value="description" style="text;strokeColor=none;fillColor=none;spacingLeft=4;spacingRight=4;overflow=hidden;rotatable=0;points=[[0,0.5],[1,0.5]];portConstraint=eastwest;fontSize=12;whiteSpace=wrap;html=1;" parent="cPn5eDL4V85z7vKzDj59-47" vertex="1">
          <mxGeometry y="116" width="160" height="30" as="geometry" />
        </mxCell>
        <mxCell id="cPn5eDL4V85z7vKzDj59-52" value="sub_category" style="text;strokeColor=none;fillColor=none;spacingLeft=4;spacingRight=4;overflow=hidden;rotatable=0;points=[[0,0.5],[1,0.5]];portConstraint=eastwest;fontSize=12;whiteSpace=wrap;html=1;" parent="cPn5eDL4V85z7vKzDj59-47" vertex="1">
          <mxGeometry y="146" width="160" height="30" as="geometry" />
        </mxCell>
        <mxCell id="cPn5eDL4V85z7vKzDj59-53" value="category" style="text;strokeColor=none;fillColor=none;spacingLeft=4;spacingRight=4;overflow=hidden;rotatable=0;points=[[0,0.5],[1,0.5]];portConstraint=eastwest;fontSize=12;whiteSpace=wrap;html=1;" parent="cPn5eDL4V85z7vKzDj59-47" vertex="1">
          <mxGeometry y="176" width="160" height="30" as="geometry" />
        </mxCell>
        <mxCell id="cPn5eDL4V85z7vKzDj59-203" value="&lt;b&gt;supplier_id&lt;/b&gt;" style="text;strokeColor=none;fillColor=none;spacingLeft=4;spacingRight=4;overflow=hidden;rotatable=0;points=[[0,0.5],[1,0.5]];portConstraint=eastwest;fontSize=12;whiteSpace=wrap;html=1;" parent="cPn5eDL4V85z7vKzDj59-47" vertex="1">
          <mxGeometry y="206" width="160" height="30" as="geometry" />
        </mxCell>
        <mxCell id="cPn5eDL4V85z7vKzDj59-54" value="Terminal" style="swimlane;fontStyle=0;childLayout=stackLayout;horizontal=1;startSize=26;horizontalStack=0;resizeParent=1;resizeParentMax=0;resizeLast=0;collapsible=1;marginBottom=0;align=center;fontSize=14;" parent="1" vertex="1">
          <mxGeometry x="850" y="3520" width="160" height="86" as="geometry" />
        </mxCell>
        <mxCell id="cPn5eDL4V85z7vKzDj59-55" value="&lt;u&gt;terminal_id&lt;/u&gt;" style="text;strokeColor=none;fillColor=none;spacingLeft=4;spacingRight=4;overflow=hidden;rotatable=0;points=[[0,0.5],[1,0.5]];portConstraint=eastwest;fontSize=12;whiteSpace=wrap;html=1;" parent="cPn5eDL4V85z7vKzDj59-54" vertex="1">
          <mxGeometry y="26" width="160" height="30" as="geometry" />
        </mxCell>
        <mxCell id="cPn5eDL4V85z7vKzDj59-56" value="terminal_name" style="text;strokeColor=none;fillColor=none;spacingLeft=4;spacingRight=4;overflow=hidden;rotatable=0;points=[[0,0.5],[1,0.5]];portConstraint=eastwest;fontSize=12;whiteSpace=wrap;html=1;" parent="cPn5eDL4V85z7vKzDj59-54" vertex="1">
          <mxGeometry y="56" width="160" height="30" as="geometry" />
        </mxCell>
        <mxCell id="cPn5eDL4V85z7vKzDj59-57" value="Promotion" style="swimlane;fontStyle=0;childLayout=stackLayout;horizontal=1;startSize=26;horizontalStack=0;resizeParent=1;resizeParentMax=0;resizeLast=0;collapsible=1;marginBottom=0;align=center;fontSize=14;" parent="1" vertex="1">
          <mxGeometry x="1930" y="3580" width="160" height="206" as="geometry" />
        </mxCell>
        <mxCell id="cPn5eDL4V85z7vKzDj59-58" value="&lt;u&gt;promotion_id&lt;/u&gt;" style="text;strokeColor=none;fillColor=none;spacingLeft=4;spacingRight=4;overflow=hidden;rotatable=0;points=[[0,0.5],[1,0.5]];portConstraint=eastwest;fontSize=12;whiteSpace=wrap;html=1;" parent="cPn5eDL4V85z7vKzDj59-57" vertex="1">
          <mxGeometry y="26" width="160" height="30" as="geometry" />
        </mxCell>
        <mxCell id="cPn5eDL4V85z7vKzDj59-59" value="promotion_name" style="text;strokeColor=none;fillColor=none;spacingLeft=4;spacingRight=4;overflow=hidden;rotatable=0;points=[[0,0.5],[1,0.5]];portConstraint=eastwest;fontSize=12;whiteSpace=wrap;html=1;" parent="cPn5eDL4V85z7vKzDj59-57" vertex="1">
          <mxGeometry y="56" width="160" height="30" as="geometry" />
        </mxCell>
        <mxCell id="cPn5eDL4V85z7vKzDj59-60" value="start_date" style="text;strokeColor=none;fillColor=none;spacingLeft=4;spacingRight=4;overflow=hidden;rotatable=0;points=[[0,0.5],[1,0.5]];portConstraint=eastwest;fontSize=12;whiteSpace=wrap;html=1;" parent="cPn5eDL4V85z7vKzDj59-57" vertex="1">
          <mxGeometry y="86" width="160" height="30" as="geometry" />
        </mxCell>
        <mxCell id="cPn5eDL4V85z7vKzDj59-61" value="end_date" style="text;strokeColor=none;fillColor=none;spacingLeft=4;spacingRight=4;overflow=hidden;rotatable=0;points=[[0,0.5],[1,0.5]];portConstraint=eastwest;fontSize=12;whiteSpace=wrap;html=1;" parent="cPn5eDL4V85z7vKzDj59-57" vertex="1">
          <mxGeometry y="116" width="160" height="30" as="geometry" />
        </mxCell>
        <mxCell id="cPn5eDL4V85z7vKzDj59-62" value="promotion_type" style="text;strokeColor=none;fillColor=none;spacingLeft=4;spacingRight=4;overflow=hidden;rotatable=0;points=[[0,0.5],[1,0.5]];portConstraint=eastwest;fontSize=12;whiteSpace=wrap;html=1;" parent="cPn5eDL4V85z7vKzDj59-57" vertex="1">
          <mxGeometry y="146" width="160" height="30" as="geometry" />
        </mxCell>
        <mxCell id="cPn5eDL4V85z7vKzDj59-63" value="discount" style="text;strokeColor=none;fillColor=none;spacingLeft=4;spacingRight=4;overflow=hidden;rotatable=0;points=[[0,0.5],[1,0.5]];portConstraint=eastwest;fontSize=12;whiteSpace=wrap;html=1;" parent="cPn5eDL4V85z7vKzDj59-57" vertex="1">
          <mxGeometry y="176" width="160" height="30" as="geometry" />
        </mxCell>
        <mxCell id="cPn5eDL4V85z7vKzDj59-64" value="Supplier" style="swimlane;fontStyle=0;childLayout=stackLayout;horizontal=1;startSize=26;horizontalStack=0;resizeParent=1;resizeParentMax=0;resizeLast=0;collapsible=1;marginBottom=0;align=center;fontSize=14;" parent="1" vertex="1">
          <mxGeometry x="1970" y="2980" width="160" height="116" as="geometry" />
        </mxCell>
        <mxCell id="cPn5eDL4V85z7vKzDj59-65" value="&lt;u&gt;supplier_id&lt;/u&gt;" style="text;strokeColor=none;fillColor=none;spacingLeft=4;spacingRight=4;overflow=hidden;rotatable=0;points=[[0,0.5],[1,0.5]];portConstraint=eastwest;fontSize=12;whiteSpace=wrap;html=1;" parent="cPn5eDL4V85z7vKzDj59-64" vertex="1">
          <mxGeometry y="26" width="160" height="30" as="geometry" />
        </mxCell>
        <mxCell id="cPn5eDL4V85z7vKzDj59-66" value="supplier_name" style="text;strokeColor=none;fillColor=none;spacingLeft=4;spacingRight=4;overflow=hidden;rotatable=0;points=[[0,0.5],[1,0.5]];portConstraint=eastwest;fontSize=12;whiteSpace=wrap;html=1;" parent="cPn5eDL4V85z7vKzDj59-64" vertex="1">
          <mxGeometry y="56" width="160" height="30" as="geometry" />
        </mxCell>
        <mxCell id="cPn5eDL4V85z7vKzDj59-67" value="supplier_origin" style="text;strokeColor=none;fillColor=none;spacingLeft=4;spacingRight=4;overflow=hidden;rotatable=0;points=[[0,0.5],[1,0.5]];portConstraint=eastwest;fontSize=12;whiteSpace=wrap;html=1;" parent="cPn5eDL4V85z7vKzDj59-64" vertex="1">
          <mxGeometry y="86" width="160" height="30" as="geometry" />
        </mxCell>
        <mxCell id="cPn5eDL4V85z7vKzDj59-68" value="Customer" style="swimlane;fontStyle=0;childLayout=stackLayout;horizontal=1;startSize=26;horizontalStack=0;resizeParent=1;resizeParentMax=0;resizeLast=0;collapsible=1;marginBottom=0;align=center;fontSize=14;" parent="1" vertex="1">
          <mxGeometry x="1610" y="3580" width="160" height="356" as="geometry" />
        </mxCell>
        <mxCell id="cPn5eDL4V85z7vKzDj59-69" value="&lt;u&gt;customer_id&lt;/u&gt;" style="text;strokeColor=none;fillColor=none;spacingLeft=4;spacingRight=4;overflow=hidden;rotatable=0;points=[[0,0.5],[1,0.5]];portConstraint=eastwest;fontSize=12;whiteSpace=wrap;html=1;" parent="cPn5eDL4V85z7vKzDj59-68" vertex="1">
          <mxGeometry y="26" width="160" height="30" as="geometry" />
        </mxCell>
        <mxCell id="cPn5eDL4V85z7vKzDj59-70" value="created_date" style="text;strokeColor=none;fillColor=none;spacingLeft=4;spacingRight=4;overflow=hidden;rotatable=0;points=[[0,0.5],[1,0.5]];portConstraint=eastwest;fontSize=12;whiteSpace=wrap;html=1;" parent="cPn5eDL4V85z7vKzDj59-68" vertex="1">
          <mxGeometry y="56" width="160" height="30" as="geometry" />
        </mxCell>
        <mxCell id="cPn5eDL4V85z7vKzDj59-71" value="full_name" style="text;strokeColor=none;fillColor=none;spacingLeft=4;spacingRight=4;overflow=hidden;rotatable=0;points=[[0,0.5],[1,0.5]];portConstraint=eastwest;fontSize=12;whiteSpace=wrap;html=1;" parent="cPn5eDL4V85z7vKzDj59-68" vertex="1">
          <mxGeometry y="86" width="160" height="30" as="geometry" />
        </mxCell>
        <mxCell id="cPn5eDL4V85z7vKzDj59-72" value="gender" style="text;strokeColor=none;fillColor=none;spacingLeft=4;spacingRight=4;overflow=hidden;rotatable=0;points=[[0,0.5],[1,0.5]];portConstraint=eastwest;fontSize=12;whiteSpace=wrap;html=1;" parent="cPn5eDL4V85z7vKzDj59-68" vertex="1">
          <mxGeometry y="116" width="160" height="30" as="geometry" />
        </mxCell>
        <mxCell id="cPn5eDL4V85z7vKzDj59-73" value="birthday" style="text;strokeColor=none;fillColor=none;spacingLeft=4;spacingRight=4;overflow=hidden;rotatable=0;points=[[0,0.5],[1,0.5]];portConstraint=eastwest;fontSize=12;whiteSpace=wrap;html=1;" parent="cPn5eDL4V85z7vKzDj59-68" vertex="1">
          <mxGeometry y="146" width="160" height="30" as="geometry" />
        </mxCell>
        <mxCell id="cPn5eDL4V85z7vKzDj59-74" value="certify_no" style="text;strokeColor=none;fillColor=none;spacingLeft=4;spacingRight=4;overflow=hidden;rotatable=0;points=[[0,0.5],[1,0.5]];portConstraint=eastwest;fontSize=12;whiteSpace=wrap;html=1;" parent="cPn5eDL4V85z7vKzDj59-68" vertex="1">
          <mxGeometry y="176" width="160" height="30" as="geometry" />
        </mxCell>
        <mxCell id="cPn5eDL4V85z7vKzDj59-75" value="phone" style="text;strokeColor=none;fillColor=none;spacingLeft=4;spacingRight=4;overflow=hidden;rotatable=0;points=[[0,0.5],[1,0.5]];portConstraint=eastwest;fontSize=12;whiteSpace=wrap;html=1;" parent="cPn5eDL4V85z7vKzDj59-68" vertex="1">
          <mxGeometry y="206" width="160" height="30" as="geometry" />
        </mxCell>
        <mxCell id="cPn5eDL4V85z7vKzDj59-76" value="email" style="text;strokeColor=none;fillColor=none;spacingLeft=4;spacingRight=4;overflow=hidden;rotatable=0;points=[[0,0.5],[1,0.5]];portConstraint=eastwest;fontSize=12;whiteSpace=wrap;html=1;" parent="cPn5eDL4V85z7vKzDj59-68" vertex="1">
          <mxGeometry y="236" width="160" height="30" as="geometry" />
        </mxCell>
        <mxCell id="cPn5eDL4V85z7vKzDj59-77" value="zip_code" style="text;strokeColor=none;fillColor=none;spacingLeft=4;spacingRight=4;overflow=hidden;rotatable=0;points=[[0,0.5],[1,0.5]];portConstraint=eastwest;fontSize=12;whiteSpace=wrap;html=1;" parent="cPn5eDL4V85z7vKzDj59-68" vertex="1">
          <mxGeometry y="266" width="160" height="30" as="geometry" />
        </mxCell>
        <mxCell id="cPn5eDL4V85z7vKzDj59-78" value="city" style="text;strokeColor=none;fillColor=none;spacingLeft=4;spacingRight=4;overflow=hidden;rotatable=0;points=[[0,0.5],[1,0.5]];portConstraint=eastwest;fontSize=12;whiteSpace=wrap;html=1;" parent="cPn5eDL4V85z7vKzDj59-68" vertex="1">
          <mxGeometry y="296" width="160" height="30" as="geometry" />
        </mxCell>
        <mxCell id="cPn5eDL4V85z7vKzDj59-198" value="&lt;b&gt;current_rank&lt;/b&gt;" style="text;strokeColor=none;fillColor=none;spacingLeft=4;spacingRight=4;overflow=hidden;rotatable=0;points=[[0,0.5],[1,0.5]];portConstraint=eastwest;fontSize=12;whiteSpace=wrap;html=1;" parent="cPn5eDL4V85z7vKzDj59-68" vertex="1">
          <mxGeometry y="326" width="160" height="30" as="geometry" />
        </mxCell>
        <mxCell id="cPn5eDL4V85z7vKzDj59-81" value="Point balance" style="swimlane;fontStyle=0;childLayout=stackLayout;horizontal=1;startSize=26;horizontalStack=0;resizeParent=1;resizeParentMax=0;resizeLast=0;collapsible=1;marginBottom=0;align=center;fontSize=14;rounded=0;shadow=0;glass=0;swimlaneLine=1;" parent="1" vertex="1">
          <mxGeometry x="1210" y="3650" width="160" height="146" as="geometry">
            <mxRectangle x="1430" y="259" width="150" height="30" as="alternateBounds" />
          </mxGeometry>
        </mxCell>
        <mxCell id="cPn5eDL4V85z7vKzDj59-200" value="&lt;b&gt;&lt;u&gt;customer_id&lt;/u&gt;&lt;/b&gt;" style="text;strokeColor=none;fillColor=none;spacingLeft=4;spacingRight=4;overflow=hidden;rotatable=0;points=[[0,0.5],[1,0.5]];portConstraint=eastwest;fontSize=12;whiteSpace=wrap;html=1;" parent="cPn5eDL4V85z7vKzDj59-81" vertex="1">
          <mxGeometry y="26" width="160" height="30" as="geometry" />
        </mxCell>
        <mxCell id="cPn5eDL4V85z7vKzDj59-384" value="&lt;u&gt;update_date&lt;/u&gt;" style="text;strokeColor=none;fillColor=none;spacingLeft=4;spacingRight=4;overflow=hidden;rotatable=0;points=[[0,0.5],[1,0.5]];portConstraint=eastwest;fontSize=12;whiteSpace=wrap;html=1;" parent="cPn5eDL4V85z7vKzDj59-81" vertex="1">
          <mxGeometry y="56" width="160" height="30" as="geometry" />
        </mxCell>
        <mxCell id="cPn5eDL4V85z7vKzDj59-83" value="total_spending" style="text;strokeColor=none;fillColor=none;spacingLeft=4;spacingRight=4;overflow=hidden;rotatable=0;points=[[0,0.5],[1,0.5]];portConstraint=eastwest;fontSize=12;whiteSpace=wrap;html=1;" parent="cPn5eDL4V85z7vKzDj59-81" vertex="1">
          <mxGeometry y="86" width="160" height="30" as="geometry" />
        </mxCell>
        <mxCell id="cPn5eDL4V85z7vKzDj59-201" value="&lt;b&gt;next_rank&lt;/b&gt;" style="text;strokeColor=none;fillColor=none;spacingLeft=4;spacingRight=4;overflow=hidden;rotatable=0;points=[[0,0.5],[1,0.5]];portConstraint=eastwest;fontSize=12;whiteSpace=wrap;html=1;" parent="cPn5eDL4V85z7vKzDj59-81" vertex="1">
          <mxGeometry y="116" width="160" height="30" as="geometry" />
        </mxCell>
        <mxCell id="cPn5eDL4V85z7vKzDj59-85" value="Membership" style="swimlane;fontStyle=0;childLayout=stackLayout;horizontal=1;startSize=26;horizontalStack=0;resizeParent=1;resizeParentMax=0;resizeLast=0;collapsible=1;marginBottom=0;align=center;fontSize=14;" parent="1" vertex="1">
          <mxGeometry x="1210" y="3880" width="160" height="116" as="geometry" />
        </mxCell>
        <mxCell id="cPn5eDL4V85z7vKzDj59-86" value="&lt;u&gt;rank_id&lt;/u&gt;" style="text;strokeColor=none;fillColor=none;spacingLeft=4;spacingRight=4;overflow=hidden;rotatable=0;points=[[0,0.5],[1,0.5]];portConstraint=eastwest;fontSize=12;whiteSpace=wrap;html=1;" parent="cPn5eDL4V85z7vKzDj59-85" vertex="1">
          <mxGeometry y="26" width="160" height="30" as="geometry" />
        </mxCell>
        <mxCell id="cPn5eDL4V85z7vKzDj59-87" value="rank_name" style="text;strokeColor=none;fillColor=none;spacingLeft=4;spacingRight=4;overflow=hidden;rotatable=0;points=[[0,0.5],[1,0.5]];portConstraint=eastwest;fontSize=12;whiteSpace=wrap;html=1;" parent="cPn5eDL4V85z7vKzDj59-85" vertex="1">
          <mxGeometry y="56" width="160" height="30" as="geometry" />
        </mxCell>
        <mxCell id="cPn5eDL4V85z7vKzDj59-88" value="total_spending" style="text;strokeColor=none;fillColor=none;spacingLeft=4;spacingRight=4;overflow=hidden;rotatable=0;points=[[0,0.5],[1,0.5]];portConstraint=eastwest;fontSize=12;whiteSpace=wrap;html=1;" parent="cPn5eDL4V85z7vKzDj59-85" vertex="1">
          <mxGeometry y="86" width="160" height="30" as="geometry" />
        </mxCell>
        <mxCell id="cPn5eDL4V85z7vKzDj59-90" value="Payment" style="swimlane;fontStyle=0;childLayout=stackLayout;horizontal=1;startSize=26;horizontalStack=0;resizeParent=1;resizeParentMax=0;resizeLast=0;collapsible=1;marginBottom=0;align=center;fontSize=14;" parent="1" vertex="1">
          <mxGeometry x="1030" y="2970" width="160" height="146" as="geometry" />
        </mxCell>
        <mxCell id="cPn5eDL4V85z7vKzDj59-91" value="&lt;u&gt;payment_id&lt;/u&gt;" style="text;strokeColor=none;fillColor=none;spacingLeft=4;spacingRight=4;overflow=hidden;rotatable=0;points=[[0,0.5],[1,0.5]];portConstraint=eastwest;fontSize=12;whiteSpace=wrap;html=1;" parent="cPn5eDL4V85z7vKzDj59-90" vertex="1">
          <mxGeometry y="26" width="160" height="30" as="geometry" />
        </mxCell>
        <mxCell id="cPn5eDL4V85z7vKzDj59-92" value="payment_name" style="text;strokeColor=none;fillColor=none;spacingLeft=4;spacingRight=4;overflow=hidden;rotatable=0;points=[[0,0.5],[1,0.5]];portConstraint=eastwest;fontSize=12;whiteSpace=wrap;html=1;" parent="cPn5eDL4V85z7vKzDj59-90" vertex="1">
          <mxGeometry y="56" width="160" height="30" as="geometry" />
        </mxCell>
        <mxCell id="cPn5eDL4V85z7vKzDj59-93" value="category" style="text;strokeColor=none;fillColor=none;spacingLeft=4;spacingRight=4;overflow=hidden;rotatable=0;points=[[0,0.5],[1,0.5]];portConstraint=eastwest;fontSize=12;whiteSpace=wrap;html=1;" parent="cPn5eDL4V85z7vKzDj59-90" vertex="1">
          <mxGeometry y="86" width="160" height="30" as="geometry" />
        </mxCell>
        <mxCell id="cPn5eDL4V85z7vKzDj59-94" value="description" style="text;strokeColor=none;fillColor=none;spacingLeft=4;spacingRight=4;overflow=hidden;rotatable=0;points=[[0,0.5],[1,0.5]];portConstraint=eastwest;fontSize=12;whiteSpace=wrap;html=1;" parent="cPn5eDL4V85z7vKzDj59-90" vertex="1">
          <mxGeometry y="116" width="160" height="30" as="geometry" />
        </mxCell>
        <mxCell id="cPn5eDL4V85z7vKzDj59-144" value="" style="endArrow=none;html=1;rounded=0;entryX=0.182;entryY=0;entryDx=0;entryDy=0;entryPerimeter=0;" parent="1" target="cPn5eDL4V85z7vKzDj59-8" edge="1">
          <mxGeometry width="50" height="50" relative="1" as="geometry">
            <mxPoint x="1190" y="3080" as="sourcePoint" />
            <mxPoint x="1240" y="3150" as="targetPoint" />
            <Array as="points">
              <mxPoint x="1240" y="3080" />
            </Array>
          </mxGeometry>
        </mxCell>
        <mxCell id="cPn5eDL4V85z7vKzDj59-145" value="1" style="text;html=1;strokeColor=none;fillColor=none;align=center;verticalAlign=middle;whiteSpace=wrap;rounded=0;" parent="1" vertex="1">
          <mxGeometry x="1190" y="3060" width="30" height="20" as="geometry" />
        </mxCell>
        <mxCell id="cPn5eDL4V85z7vKzDj59-147" value="M" style="text;html=1;strokeColor=none;fillColor=none;align=center;verticalAlign=middle;whiteSpace=wrap;rounded=0;" parent="1" vertex="1">
          <mxGeometry x="1240" y="3134" width="20" height="20" as="geometry" />
        </mxCell>
        <mxCell id="cPn5eDL4V85z7vKzDj59-149" value="" style="endArrow=none;html=1;rounded=0;entryX=0.694;entryY=0;entryDx=0;entryDy=0;entryPerimeter=0;" parent="1" target="cPn5eDL4V85z7vKzDj59-8" edge="1">
          <mxGeometry width="50" height="50" relative="1" as="geometry">
            <mxPoint x="1430" y="2980" as="sourcePoint" />
            <mxPoint x="1320" y="3150" as="targetPoint" />
            <Array as="points">
              <mxPoint x="1320" y="2980" />
            </Array>
          </mxGeometry>
        </mxCell>
        <mxCell id="cPn5eDL4V85z7vKzDj59-150" value="1" style="text;html=1;strokeColor=none;fillColor=none;align=center;verticalAlign=middle;whiteSpace=wrap;rounded=0;" parent="1" vertex="1">
          <mxGeometry x="1400" y="2960" width="30" height="20" as="geometry" />
        </mxCell>
        <mxCell id="cPn5eDL4V85z7vKzDj59-152" value="M" style="text;html=1;strokeColor=none;fillColor=none;align=center;verticalAlign=middle;whiteSpace=wrap;rounded=0;" parent="1" vertex="1">
          <mxGeometry x="1300" y="3134" width="20" height="20" as="geometry" />
        </mxCell>
        <mxCell id="cPn5eDL4V85z7vKzDj59-154" value="" style="endArrow=none;html=1;rounded=0;entryX=0;entryY=0.694;entryDx=0;entryDy=0;entryPerimeter=0;" parent="1" target="cPn5eDL4V85z7vKzDj59-124" edge="1">
          <mxGeometry width="50" height="50" relative="1" as="geometry">
            <mxPoint x="1010" y="3320" as="sourcePoint" />
            <mxPoint x="1059" y="3394" as="targetPoint" />
            <Array as="points">
              <mxPoint x="1060" y="3320" />
            </Array>
          </mxGeometry>
        </mxCell>
        <mxCell id="cPn5eDL4V85z7vKzDj59-155" value="1" style="text;html=1;strokeColor=none;fillColor=none;align=center;verticalAlign=middle;whiteSpace=wrap;rounded=0;" parent="1" vertex="1">
          <mxGeometry x="1010" y="3300" width="30" height="20" as="geometry" />
        </mxCell>
        <mxCell id="cPn5eDL4V85z7vKzDj59-156" value="M" style="text;html=1;strokeColor=none;fillColor=none;align=center;verticalAlign=middle;whiteSpace=wrap;rounded=0;" parent="1" vertex="1">
          <mxGeometry x="1190" y="3300" width="20" height="20" as="geometry" />
        </mxCell>
        <mxCell id="cPn5eDL4V85z7vKzDj59-158" value="" style="endArrow=none;html=1;rounded=0;entryX=1;entryY=1;entryDx=0;entryDy=0;" parent="1" target="cPn5eDL4V85z7vKzDj59-160" edge="1">
          <mxGeometry width="50" height="50" relative="1" as="geometry">
            <mxPoint x="1010" y="3560" as="sourcePoint" />
            <mxPoint x="1210" y="3561" as="targetPoint" />
            <Array as="points">
              <mxPoint x="1060" y="3560" />
            </Array>
          </mxGeometry>
        </mxCell>
        <mxCell id="cPn5eDL4V85z7vKzDj59-159" value="1" style="text;html=1;strokeColor=none;fillColor=none;align=center;verticalAlign=middle;whiteSpace=wrap;rounded=0;" parent="1" vertex="1">
          <mxGeometry x="1010" y="3540" width="30" height="20" as="geometry" />
        </mxCell>
        <mxCell id="cPn5eDL4V85z7vKzDj59-160" value="M" style="text;html=1;strokeColor=none;fillColor=none;align=center;verticalAlign=middle;whiteSpace=wrap;rounded=0;" parent="1" vertex="1">
          <mxGeometry x="1190" y="3540" width="20" height="20" as="geometry" />
        </mxCell>
        <mxCell id="cPn5eDL4V85z7vKzDj59-161" value="" style="endArrow=none;html=1;rounded=0;entryX=1;entryY=1;entryDx=0;entryDy=0;" parent="1" target="cPn5eDL4V85z7vKzDj59-163" edge="1">
          <mxGeometry width="50" height="50" relative="1" as="geometry">
            <mxPoint x="1370" y="3320" as="sourcePoint" />
            <mxPoint x="1570" y="3321" as="targetPoint" />
            <Array as="points">
              <mxPoint x="1420" y="3320" />
            </Array>
          </mxGeometry>
        </mxCell>
        <mxCell id="cPn5eDL4V85z7vKzDj59-162" value="1" style="text;html=1;strokeColor=none;fillColor=none;align=center;verticalAlign=middle;whiteSpace=wrap;rounded=0;" parent="1" vertex="1">
          <mxGeometry x="1370" y="3300" width="30" height="20" as="geometry" />
        </mxCell>
        <mxCell id="cPn5eDL4V85z7vKzDj59-163" value="M" style="text;html=1;strokeColor=none;fillColor=none;align=center;verticalAlign=middle;whiteSpace=wrap;rounded=0;" parent="1" vertex="1">
          <mxGeometry x="1590" y="3300" width="20" height="20" as="geometry" />
        </mxCell>
        <mxCell id="cPn5eDL4V85z7vKzDj59-167" value="" style="endArrow=none;html=1;rounded=0;entryX=1;entryY=1;entryDx=0;entryDy=0;exitX=0;exitY=1;exitDx=0;exitDy=0;" parent="1" source="cPn5eDL4V85z7vKzDj59-172" target="cPn5eDL4V85z7vKzDj59-168" edge="1">
          <mxGeometry width="50" height="50" relative="1" as="geometry">
            <mxPoint x="1860" y="3270" as="sourcePoint" />
            <mxPoint x="1970" y="3338.5" as="targetPoint" />
            <Array as="points" />
          </mxGeometry>
        </mxCell>
        <mxCell id="cPn5eDL4V85z7vKzDj59-168" value="1" style="text;html=1;strokeColor=none;fillColor=none;align=center;verticalAlign=middle;whiteSpace=wrap;rounded=0;" parent="1" vertex="1">
          <mxGeometry x="1940" y="3320" width="30" height="20" as="geometry" />
        </mxCell>
        <mxCell id="cPn5eDL4V85z7vKzDj59-172" value="M" style="text;html=1;strokeColor=none;fillColor=none;align=center;verticalAlign=middle;whiteSpace=wrap;rounded=0;" parent="1" vertex="1">
          <mxGeometry x="1770" y="3320" width="20" height="20" as="geometry" />
        </mxCell>
        <mxCell id="cPn5eDL4V85z7vKzDj59-177" value="" style="endArrow=none;html=1;rounded=0;entryX=0.004;entryY=0.161;entryDx=0;entryDy=0;entryPerimeter=0;" parent="1" edge="1">
          <mxGeometry width="50" height="50" relative="1" as="geometry">
            <mxPoint x="1770" y="3450" as="sourcePoint" />
            <mxPoint x="2000" y="3580" as="targetPoint" />
            <Array as="points">
              <mxPoint x="2000" y="3450" />
            </Array>
          </mxGeometry>
        </mxCell>
        <mxCell id="cPn5eDL4V85z7vKzDj59-178" value="1" style="text;html=1;strokeColor=none;fillColor=none;align=center;verticalAlign=middle;whiteSpace=wrap;rounded=0;" parent="1" vertex="1">
          <mxGeometry x="2000" y="3560" width="30" height="20" as="geometry" />
        </mxCell>
        <mxCell id="cPn5eDL4V85z7vKzDj59-180" value="M" style="text;html=1;strokeColor=none;fillColor=none;align=center;verticalAlign=middle;whiteSpace=wrap;rounded=0;" parent="1" vertex="1">
          <mxGeometry x="1770" y="3426" width="20" height="20" as="geometry" />
        </mxCell>
        <mxCell id="cPn5eDL4V85z7vKzDj59-181" value="" style="endArrow=none;html=1;rounded=0;exitX=0.442;exitY=-0.005;exitDx=0;exitDy=0;exitPerimeter=0;entryX=0.439;entryY=1.001;entryDx=0;entryDy=0;entryPerimeter=0;" parent="1" source="cPn5eDL4V85z7vKzDj59-85" target="cPn5eDL4V85z7vKzDj59-201" edge="1">
          <mxGeometry width="50" height="50" relative="1" as="geometry">
            <mxPoint x="1279" y="3847" as="sourcePoint" />
            <mxPoint x="1281" y="3800" as="targetPoint" />
            <Array as="points" />
          </mxGeometry>
        </mxCell>
        <mxCell id="cPn5eDL4V85z7vKzDj59-183" value="1" style="text;html=1;strokeColor=none;fillColor=none;align=center;verticalAlign=middle;whiteSpace=wrap;rounded=0;" parent="1" vertex="1">
          <mxGeometry x="1280" y="3860" width="20" height="20" as="geometry" />
        </mxCell>
        <mxCell id="cPn5eDL4V85z7vKzDj59-184" value="M" style="text;html=1;strokeColor=none;fillColor=none;align=center;verticalAlign=middle;whiteSpace=wrap;rounded=0;" parent="1" vertex="1">
          <mxGeometry x="1280" y="3796" width="20" height="20" as="geometry" />
        </mxCell>
        <mxCell id="cPn5eDL4V85z7vKzDj59-186" value="" style="endArrow=none;html=1;rounded=0;" parent="1" edge="1">
          <mxGeometry width="50" height="50" relative="1" as="geometry">
            <mxPoint x="1640" y="3580" as="sourcePoint" />
            <mxPoint x="1370" y="3520" as="targetPoint" />
            <Array as="points">
              <mxPoint x="1640" y="3520" />
            </Array>
          </mxGeometry>
        </mxCell>
        <mxCell id="cPn5eDL4V85z7vKzDj59-187" value="1" style="text;html=1;strokeColor=none;fillColor=none;align=center;verticalAlign=middle;whiteSpace=wrap;rounded=0;" parent="1" vertex="1">
          <mxGeometry x="1620" y="3560" width="20" height="20" as="geometry" />
        </mxCell>
        <mxCell id="cPn5eDL4V85z7vKzDj59-188" value="M" style="text;html=1;strokeColor=none;fillColor=none;align=center;verticalAlign=middle;whiteSpace=wrap;rounded=0;" parent="1" vertex="1">
          <mxGeometry x="1370" y="3520" width="20" height="20" as="geometry" />
        </mxCell>
        <mxCell id="cPn5eDL4V85z7vKzDj59-189" value="" style="endArrow=none;html=1;rounded=0;exitX=0.001;exitY=0.747;exitDx=0;exitDy=0;exitPerimeter=0;" parent="1" source="cPn5eDL4V85z7vKzDj59-72" edge="1">
          <mxGeometry width="50" height="50" relative="1" as="geometry">
            <mxPoint x="1371" y="3837.5" as="sourcePoint" />
            <mxPoint x="1370" y="3718" as="targetPoint" />
            <Array as="points" />
          </mxGeometry>
        </mxCell>
        <mxCell id="cPn5eDL4V85z7vKzDj59-190" value="1" style="text;html=1;strokeColor=none;fillColor=none;align=center;verticalAlign=middle;whiteSpace=wrap;rounded=0;" parent="1" vertex="1">
          <mxGeometry x="1580" y="3698" width="30" height="20" as="geometry" />
        </mxCell>
        <mxCell id="cPn5eDL4V85z7vKzDj59-192" value="M" style="text;html=1;strokeColor=none;fillColor=none;align=center;verticalAlign=middle;whiteSpace=wrap;rounded=0;" parent="1" vertex="1">
          <mxGeometry x="1370" y="3698" width="20" height="20" as="geometry" />
        </mxCell>
        <mxCell id="cPn5eDL4V85z7vKzDj59-194" value="" style="endArrow=none;html=1;rounded=0;exitX=0;exitY=0.5;exitDx=0;exitDy=0;entryX=1;entryY=0.5;entryDx=0;entryDy=0;" parent="1" target="cPn5eDL4V85z7vKzDj59-86" edge="1">
          <mxGeometry width="50" height="50" relative="1" as="geometry">
            <mxPoint x="1610" y="3921" as="sourcePoint" />
            <mxPoint x="1370" y="4038.83" as="targetPoint" />
            <Array as="points" />
          </mxGeometry>
        </mxCell>
        <mxCell id="cPn5eDL4V85z7vKzDj59-195" value="1" style="text;html=1;strokeColor=none;fillColor=none;align=center;verticalAlign=middle;whiteSpace=wrap;rounded=0;" parent="1" vertex="1">
          <mxGeometry x="1370" y="3900" width="30" height="20" as="geometry" />
        </mxCell>
        <mxCell id="cPn5eDL4V85z7vKzDj59-196" value="M" style="text;html=1;strokeColor=none;fillColor=none;align=center;verticalAlign=middle;whiteSpace=wrap;rounded=0;" parent="1" vertex="1">
          <mxGeometry x="1590" y="3900" width="20" height="20" as="geometry" />
        </mxCell>
        <mxCell id="cPn5eDL4V85z7vKzDj59-204" value="" style="endArrow=none;html=1;rounded=0;entryX=0.438;entryY=0.002;entryDx=0;entryDy=0;entryPerimeter=0;exitX=0;exitY=1;exitDx=0;exitDy=0;" parent="1" target="cPn5eDL4V85z7vKzDj59-47" edge="1">
          <mxGeometry width="50" height="50" relative="1" as="geometry">
            <mxPoint x="2040" y="3097.5" as="sourcePoint" />
            <mxPoint x="2240" y="3096" as="targetPoint" />
            <Array as="points" />
          </mxGeometry>
        </mxCell>
        <mxCell id="cPn5eDL4V85z7vKzDj59-205" value="1" style="text;html=1;strokeColor=none;fillColor=none;align=center;verticalAlign=middle;whiteSpace=wrap;rounded=0;" parent="1" vertex="1">
          <mxGeometry x="2040" y="3096" width="30" height="20" as="geometry" />
        </mxCell>
        <mxCell id="cPn5eDL4V85z7vKzDj59-207" value="M" style="text;html=1;strokeColor=none;fillColor=none;align=center;verticalAlign=middle;whiteSpace=wrap;rounded=0;" parent="1" vertex="1">
          <mxGeometry x="2040" y="3170" width="20" height="20" as="geometry" />
        </mxCell>
        <mxCell id="cPn5eDL4V85z7vKzDj59-214" value="Title " style="swimlane;fontStyle=0;childLayout=stackLayout;horizontal=1;startSize=26;horizontalStack=0;resizeParent=1;resizeParentMax=0;resizeLast=0;collapsible=1;marginBottom=0;align=center;fontSize=14;" parent="1" vertex="1">
          <mxGeometry x="1800" y="2730" width="160" height="176" as="geometry" />
        </mxCell>
        <mxCell id="cPn5eDL4V85z7vKzDj59-215" value="&lt;b&gt;&lt;u&gt;employee_id&lt;/u&gt;&lt;/b&gt;" style="text;strokeColor=none;fillColor=none;spacingLeft=4;spacingRight=4;overflow=hidden;rotatable=0;points=[[0,0.5],[1,0.5]];portConstraint=eastwest;fontSize=12;whiteSpace=wrap;html=1;" parent="cPn5eDL4V85z7vKzDj59-214" vertex="1">
          <mxGeometry y="26" width="160" height="30" as="geometry" />
        </mxCell>
        <mxCell id="cPn5eDL4V85z7vKzDj59-216" value="&lt;u&gt;version_no&lt;/u&gt;" style="text;strokeColor=none;fillColor=none;spacingLeft=4;spacingRight=4;overflow=hidden;rotatable=0;points=[[0,0.5],[1,0.5]];portConstraint=eastwest;fontSize=12;whiteSpace=wrap;html=1;" parent="cPn5eDL4V85z7vKzDj59-214" vertex="1">
          <mxGeometry y="56" width="160" height="30" as="geometry" />
        </mxCell>
        <mxCell id="cPn5eDL4V85z7vKzDj59-217" value="begin_date" style="text;strokeColor=none;fillColor=none;spacingLeft=4;spacingRight=4;overflow=hidden;rotatable=0;points=[[0,0.5],[1,0.5]];portConstraint=eastwest;fontSize=12;whiteSpace=wrap;html=1;" parent="cPn5eDL4V85z7vKzDj59-214" vertex="1">
          <mxGeometry y="86" width="160" height="30" as="geometry" />
        </mxCell>
        <mxCell id="cPn5eDL4V85z7vKzDj59-218" value="end_date" style="text;strokeColor=none;fillColor=none;spacingLeft=4;spacingRight=4;overflow=hidden;rotatable=0;points=[[0,0.5],[1,0.5]];portConstraint=eastwest;fontSize=12;whiteSpace=wrap;html=1;" parent="cPn5eDL4V85z7vKzDj59-214" vertex="1">
          <mxGeometry y="116" width="160" height="30" as="geometry" />
        </mxCell>
        <mxCell id="cPn5eDL4V85z7vKzDj59-219" value="title" style="text;strokeColor=none;fillColor=none;spacingLeft=4;spacingRight=4;overflow=hidden;rotatable=0;points=[[0,0.5],[1,0.5]];portConstraint=eastwest;fontSize=12;whiteSpace=wrap;html=1;" parent="cPn5eDL4V85z7vKzDj59-214" vertex="1">
          <mxGeometry y="146" width="160" height="30" as="geometry" />
        </mxCell>
        <mxCell id="cPn5eDL4V85z7vKzDj59-220" value="Title" style="swimlane;fontStyle=0;childLayout=stackLayout;horizontal=1;startSize=26;horizontalStack=0;resizeParent=1;resizeParentMax=0;resizeLast=0;collapsible=1;marginBottom=0;align=center;fontSize=14;" parent="1" vertex="1">
          <mxGeometry x="1760" y="830" width="160" height="146" as="geometry" />
        </mxCell>
        <mxCell id="cPn5eDL4V85z7vKzDj59-229" value="" style="endArrow=none;html=1;rounded=0;entryX=1;entryY=0.595;entryDx=0;entryDy=0;entryPerimeter=0;exitX=0.905;exitY=0.998;exitDx=0;exitDy=0;exitPerimeter=0;" parent="cPn5eDL4V85z7vKzDj59-220" edge="1">
          <mxGeometry width="50" height="50" relative="1" as="geometry">
            <mxPoint y="12" as="sourcePoint" />
            <mxPoint x="15" as="targetPoint" />
          </mxGeometry>
        </mxCell>
        <mxCell id="cPn5eDL4V85z7vKzDj59-228" value="" style="endArrow=none;html=1;rounded=0;exitX=0.066;exitY=1.004;exitDx=0;exitDy=0;exitPerimeter=0;entryX=0;entryY=0.654;entryDx=0;entryDy=0;entryPerimeter=0;" parent="cPn5eDL4V85z7vKzDj59-220" edge="1">
          <mxGeometry width="50" height="50" relative="1" as="geometry">
            <mxPoint x="160" y="10" as="sourcePoint" />
            <mxPoint x="149" as="targetPoint" />
          </mxGeometry>
        </mxCell>
        <mxCell id="cPn5eDL4V85z7vKzDj59-222" value="&lt;u&gt;version_no&lt;/u&gt;" style="text;strokeColor=none;fillColor=none;spacingLeft=4;spacingRight=4;overflow=hidden;rotatable=0;points=[[0,0.5],[1,0.5]];portConstraint=eastwest;fontSize=12;whiteSpace=wrap;html=1;" parent="cPn5eDL4V85z7vKzDj59-220" vertex="1">
          <mxGeometry y="26" width="160" height="30" as="geometry" />
        </mxCell>
        <mxCell id="cPn5eDL4V85z7vKzDj59-223" value="begin_date" style="text;strokeColor=none;fillColor=none;spacingLeft=4;spacingRight=4;overflow=hidden;rotatable=0;points=[[0,0.5],[1,0.5]];portConstraint=eastwest;fontSize=12;whiteSpace=wrap;html=1;" parent="cPn5eDL4V85z7vKzDj59-220" vertex="1">
          <mxGeometry y="56" width="160" height="30" as="geometry" />
        </mxCell>
        <mxCell id="cPn5eDL4V85z7vKzDj59-224" value="end_date" style="text;strokeColor=none;fillColor=none;spacingLeft=4;spacingRight=4;overflow=hidden;rotatable=0;points=[[0,0.5],[1,0.5]];portConstraint=eastwest;fontSize=12;whiteSpace=wrap;html=1;" parent="cPn5eDL4V85z7vKzDj59-220" vertex="1">
          <mxGeometry y="86" width="160" height="30" as="geometry" />
        </mxCell>
        <mxCell id="cPn5eDL4V85z7vKzDj59-225" value="title" style="text;strokeColor=none;fillColor=none;spacingLeft=4;spacingRight=4;overflow=hidden;rotatable=0;points=[[0,0.5],[1,0.5]];portConstraint=eastwest;fontSize=12;whiteSpace=wrap;html=1;" parent="cPn5eDL4V85z7vKzDj59-220" vertex="1">
          <mxGeometry y="116" width="160" height="30" as="geometry" />
        </mxCell>
        <mxCell id="cPn5eDL4V85z7vKzDj59-227" value="" style="endArrow=none;html=1;rounded=0;entryX=1;entryY=0.595;entryDx=0;entryDy=0;entryPerimeter=0;exitX=0.905;exitY=0.998;exitDx=0;exitDy=0;exitPerimeter=0;" parent="cPn5eDL4V85z7vKzDj59-220" source="cPn5eDL4V85z7vKzDj59-225" target="cPn5eDL4V85z7vKzDj59-225" edge="1">
          <mxGeometry width="50" height="50" relative="1" as="geometry">
            <mxPoint x="120" y="200" as="sourcePoint" />
            <mxPoint x="10" y="176" as="targetPoint" />
          </mxGeometry>
        </mxCell>
        <mxCell id="cPn5eDL4V85z7vKzDj59-226" value="" style="endArrow=none;html=1;rounded=0;exitX=0.066;exitY=1.004;exitDx=0;exitDy=0;exitPerimeter=0;entryX=0;entryY=0.654;entryDx=0;entryDy=0;entryPerimeter=0;" parent="cPn5eDL4V85z7vKzDj59-220" edge="1">
          <mxGeometry width="50" height="50" relative="1" as="geometry">
            <mxPoint x="11" y="146" as="sourcePoint" />
            <mxPoint y="136" as="targetPoint" />
          </mxGeometry>
        </mxCell>
        <mxCell id="cPn5eDL4V85z7vKzDj59-231" value="positions" style="text;html=1;strokeColor=none;fillColor=none;align=center;verticalAlign=middle;whiteSpace=wrap;rounded=0;" parent="1" vertex="1">
          <mxGeometry x="1650" y="850" width="50" height="30" as="geometry" />
        </mxCell>
        <mxCell id="cPn5eDL4V85z7vKzDj59-232" value="" style="endArrow=none;html=1;rounded=0;entryX=0;entryY=0.5;entryDx=0;entryDy=0;exitX=1;exitY=0.5;exitDx=0;exitDy=0;" parent="1" source="cPn5eDL4V85z7vKzDj59-35" target="cPn5eDL4V85z7vKzDj59-216" edge="1">
          <mxGeometry width="50" height="50" relative="1" as="geometry">
            <mxPoint x="1640" y="2800" as="sourcePoint" />
            <mxPoint x="1640" y="2892.5" as="targetPoint" />
            <Array as="points" />
          </mxGeometry>
        </mxCell>
        <mxCell id="cPn5eDL4V85z7vKzDj59-233" value="1" style="text;html=1;strokeColor=none;fillColor=none;align=center;verticalAlign=middle;whiteSpace=wrap;rounded=0;" parent="1" vertex="1">
          <mxGeometry x="1590" y="2780" width="30" height="20" as="geometry" />
        </mxCell>
        <mxCell id="cPn5eDL4V85z7vKzDj59-234" value="M" style="text;html=1;strokeColor=none;fillColor=none;align=center;verticalAlign=middle;whiteSpace=wrap;rounded=0;" parent="1" vertex="1">
          <mxGeometry x="1780" y="2780" width="20" height="20" as="geometry" />
        </mxCell>
        <mxCell id="cPn5eDL4V85z7vKzDj59-239" value="&lt;font style=&quot;font-size: 32px;&quot;&gt;Transaction Management Circle K - ER Model&lt;/font&gt;" style="rounded=1;whiteSpace=wrap;html=1;" parent="1" vertex="1">
          <mxGeometry x="840" y="610" width="1320" height="60" as="geometry" />
        </mxCell>
        <mxCell id="cPn5eDL4V85z7vKzDj59-240" value="&lt;font style=&quot;font-size: 32px;&quot;&gt;Transaction Management Circle K - Relational database before Nomarlization&lt;/font&gt;" style="rounded=1;whiteSpace=wrap;html=1;" parent="1" vertex="1">
          <mxGeometry x="820" y="2520" width="1320" height="60" as="geometry" />
        </mxCell>
        <mxCell id="cPn5eDL4V85z7vKzDj59-241" value="Transaction" style="swimlane;fontStyle=0;childLayout=stackLayout;horizontal=1;startSize=26;horizontalStack=0;resizeParent=1;resizeParentMax=0;resizeLast=0;collapsible=1;marginBottom=0;align=center;fontSize=14;" parent="1" vertex="1">
          <mxGeometry x="1220" y="5574" width="160" height="416" as="geometry" />
        </mxCell>
        <mxCell id="cPn5eDL4V85z7vKzDj59-242" value="&lt;u&gt;transaction_id&lt;/u&gt;" style="text;strokeColor=none;fillColor=none;spacingLeft=4;spacingRight=4;overflow=hidden;rotatable=0;points=[[0,0.5],[1,0.5]];portConstraint=eastwest;fontSize=12;whiteSpace=wrap;html=1;" parent="cPn5eDL4V85z7vKzDj59-241" vertex="1">
          <mxGeometry y="26" width="160" height="30" as="geometry" />
        </mxCell>
        <mxCell id="cPn5eDL4V85z7vKzDj59-243" value="transaction_date" style="text;strokeColor=none;fillColor=none;spacingLeft=4;spacingRight=4;overflow=hidden;rotatable=0;points=[[0,0.5],[1,0.5]];portConstraint=eastwest;fontSize=12;whiteSpace=wrap;html=1;" parent="cPn5eDL4V85z7vKzDj59-241" vertex="1">
          <mxGeometry y="56" width="160" height="30" as="geometry" />
        </mxCell>
        <mxCell id="cPn5eDL4V85z7vKzDj59-244" value="&lt;b&gt;store_id&lt;/b&gt;" style="text;strokeColor=none;fillColor=none;spacingLeft=4;spacingRight=4;overflow=hidden;rotatable=0;points=[[0,0.5],[1,0.5]];portConstraint=eastwest;fontSize=12;whiteSpace=wrap;html=1;" parent="cPn5eDL4V85z7vKzDj59-241" vertex="1">
          <mxGeometry y="86" width="160" height="30" as="geometry" />
        </mxCell>
        <mxCell id="cPn5eDL4V85z7vKzDj59-245" value="&lt;b&gt;employee_id&lt;/b&gt;" style="text;strokeColor=none;fillColor=none;spacingLeft=4;spacingRight=4;overflow=hidden;rotatable=0;points=[[0,0.5],[1,0.5]];portConstraint=eastwest;fontSize=12;whiteSpace=wrap;html=1;" parent="cPn5eDL4V85z7vKzDj59-241" vertex="1">
          <mxGeometry y="116" width="160" height="30" as="geometry" />
        </mxCell>
        <mxCell id="cPn5eDL4V85z7vKzDj59-246" value="&lt;b&gt;terminal_id&lt;/b&gt;" style="text;strokeColor=none;fillColor=none;spacingLeft=4;spacingRight=4;overflow=hidden;rotatable=0;points=[[0,0.5],[1,0.5]];portConstraint=eastwest;fontSize=12;whiteSpace=wrap;html=1;" parent="cPn5eDL4V85z7vKzDj59-241" vertex="1">
          <mxGeometry y="146" width="160" height="30" as="geometry" />
        </mxCell>
        <mxCell id="cPn5eDL4V85z7vKzDj59-247" value="&lt;b&gt;customer_id&lt;/b&gt;" style="text;strokeColor=none;fillColor=none;spacingLeft=4;spacingRight=4;overflow=hidden;rotatable=0;points=[[0,0.5],[1,0.5]];portConstraint=eastwest;fontSize=12;whiteSpace=wrap;html=1;" parent="cPn5eDL4V85z7vKzDj59-241" vertex="1">
          <mxGeometry y="176" width="160" height="30" as="geometry" />
        </mxCell>
        <mxCell id="cPn5eDL4V85z7vKzDj59-248" value="total_quantity" style="text;strokeColor=none;fillColor=none;spacingLeft=4;spacingRight=4;overflow=hidden;rotatable=0;points=[[0,0.5],[1,0.5]];portConstraint=eastwest;fontSize=12;whiteSpace=wrap;html=1;" parent="cPn5eDL4V85z7vKzDj59-241" vertex="1">
          <mxGeometry y="206" width="160" height="30" as="geometry" />
        </mxCell>
        <mxCell id="cPn5eDL4V85z7vKzDj59-249" value="total_amount" style="text;strokeColor=none;fillColor=none;spacingLeft=4;spacingRight=4;overflow=hidden;rotatable=0;points=[[0,0.5],[1,0.5]];portConstraint=eastwest;fontSize=12;whiteSpace=wrap;html=1;" parent="cPn5eDL4V85z7vKzDj59-241" vertex="1">
          <mxGeometry y="236" width="160" height="30" as="geometry" />
        </mxCell>
        <mxCell id="cPn5eDL4V85z7vKzDj59-250" value="VAT" style="text;strokeColor=none;fillColor=none;spacingLeft=4;spacingRight=4;overflow=hidden;rotatable=0;points=[[0,0.5],[1,0.5]];portConstraint=eastwest;fontSize=12;whiteSpace=wrap;html=1;" parent="cPn5eDL4V85z7vKzDj59-241" vertex="1">
          <mxGeometry y="266" width="160" height="30" as="geometry" />
        </mxCell>
        <mxCell id="cPn5eDL4V85z7vKzDj59-251" value="net_amount" style="text;strokeColor=none;fillColor=none;spacingLeft=4;spacingRight=4;overflow=hidden;rotatable=0;points=[[0,0.5],[1,0.5]];portConstraint=eastwest;fontSize=12;whiteSpace=wrap;html=1;" parent="cPn5eDL4V85z7vKzDj59-241" vertex="1">
          <mxGeometry y="296" width="160" height="30" as="geometry" />
        </mxCell>
        <mxCell id="cPn5eDL4V85z7vKzDj59-252" value="&lt;b&gt;payment_id&lt;/b&gt;" style="text;strokeColor=none;fillColor=none;spacingLeft=4;spacingRight=4;overflow=hidden;rotatable=0;points=[[0,0.5],[1,0.5]];portConstraint=eastwest;fontSize=12;whiteSpace=wrap;html=1;" parent="cPn5eDL4V85z7vKzDj59-241" vertex="1">
          <mxGeometry y="326" width="160" height="30" as="geometry" />
        </mxCell>
        <mxCell id="cPn5eDL4V85z7vKzDj59-253" value="cash_received" style="text;strokeColor=none;fillColor=none;spacingLeft=4;spacingRight=4;overflow=hidden;rotatable=0;points=[[0,0.5],[1,0.5]];portConstraint=eastwest;fontSize=12;whiteSpace=wrap;html=1;" parent="cPn5eDL4V85z7vKzDj59-241" vertex="1">
          <mxGeometry y="356" width="160" height="30" as="geometry" />
        </mxCell>
        <mxCell id="cPn5eDL4V85z7vKzDj59-254" value="change_due" style="text;strokeColor=none;fillColor=none;spacingLeft=4;spacingRight=4;overflow=hidden;rotatable=0;points=[[0,0.5],[1,0.5]];portConstraint=eastwest;fontSize=12;whiteSpace=wrap;html=1;" parent="cPn5eDL4V85z7vKzDj59-241" vertex="1">
          <mxGeometry y="386" width="160" height="30" as="geometry" />
        </mxCell>
        <mxCell id="cPn5eDL4V85z7vKzDj59-255" value="Transaction detail" style="swimlane;fontStyle=0;childLayout=stackLayout;horizontal=1;startSize=26;horizontalStack=0;resizeParent=1;resizeParentMax=0;resizeLast=0;collapsible=1;marginBottom=0;align=center;fontSize=14;rounded=0;shadow=0;glass=0;swimlaneLine=1;" parent="1" vertex="1">
          <mxGeometry x="1620" y="5640" width="160" height="266" as="geometry">
            <mxRectangle x="1430" y="259" width="150" height="30" as="alternateBounds" />
          </mxGeometry>
        </mxCell>
        <mxCell id="cPn5eDL4V85z7vKzDj59-256" value="&lt;u&gt;&lt;b&gt;transaction_id&lt;/b&gt;&lt;/u&gt;" style="text;strokeColor=none;fillColor=none;spacingLeft=4;spacingRight=4;overflow=hidden;rotatable=0;points=[[0,0.5],[1,0.5]];portConstraint=eastwest;fontSize=12;whiteSpace=wrap;html=1;" parent="cPn5eDL4V85z7vKzDj59-255" vertex="1">
          <mxGeometry y="26" width="160" height="30" as="geometry" />
        </mxCell>
        <mxCell id="cPn5eDL4V85z7vKzDj59-257" value="&lt;u&gt;ordinal_number&lt;/u&gt;" style="text;strokeColor=none;fillColor=none;spacingLeft=4;spacingRight=4;overflow=hidden;rotatable=0;points=[[0,0.5],[1,0.5]];portConstraint=eastwest;fontSize=12;whiteSpace=wrap;html=1;" parent="cPn5eDL4V85z7vKzDj59-255" vertex="1">
          <mxGeometry y="56" width="160" height="30" as="geometry" />
        </mxCell>
        <mxCell id="cPn5eDL4V85z7vKzDj59-258" value="&lt;b&gt;product_id&lt;/b&gt;" style="text;strokeColor=none;fillColor=none;spacingLeft=4;spacingRight=4;overflow=hidden;rotatable=0;points=[[0,0.5],[1,0.5]];portConstraint=eastwest;fontSize=12;whiteSpace=wrap;html=1;" parent="cPn5eDL4V85z7vKzDj59-255" vertex="1">
          <mxGeometry y="86" width="160" height="30" as="geometry" />
        </mxCell>
        <mxCell id="cPn5eDL4V85z7vKzDj59-259" value="quantity" style="text;strokeColor=none;fillColor=none;spacingLeft=4;spacingRight=4;overflow=hidden;rotatable=0;points=[[0,0.5],[1,0.5]];portConstraint=eastwest;fontSize=12;whiteSpace=wrap;html=1;" parent="cPn5eDL4V85z7vKzDj59-255" vertex="1">
          <mxGeometry y="116" width="160" height="30" as="geometry" />
        </mxCell>
        <mxCell id="cPn5eDL4V85z7vKzDj59-260" value="original_total_amount" style="text;strokeColor=none;fillColor=none;spacingLeft=4;spacingRight=4;overflow=hidden;rotatable=0;points=[[0,0.5],[1,0.5]];portConstraint=eastwest;fontSize=12;whiteSpace=wrap;html=1;" parent="cPn5eDL4V85z7vKzDj59-255" vertex="1">
          <mxGeometry y="146" width="160" height="30" as="geometry" />
        </mxCell>
        <mxCell id="cPn5eDL4V85z7vKzDj59-261" value="&lt;b&gt;promotion_1&lt;/b&gt;" style="text;strokeColor=none;fillColor=none;spacingLeft=4;spacingRight=4;overflow=hidden;rotatable=0;points=[[0,0.5],[1,0.5]];portConstraint=eastwest;fontSize=12;whiteSpace=wrap;html=1;" parent="cPn5eDL4V85z7vKzDj59-255" vertex="1">
          <mxGeometry y="176" width="160" height="30" as="geometry" />
        </mxCell>
        <mxCell id="cPn5eDL4V85z7vKzDj59-262" value="&lt;b&gt;promotion_2&lt;/b&gt;" style="text;strokeColor=none;fillColor=none;spacingLeft=4;spacingRight=4;overflow=hidden;rotatable=0;points=[[0,0.5],[1,0.5]];portConstraint=eastwest;fontSize=12;whiteSpace=wrap;html=1;" parent="cPn5eDL4V85z7vKzDj59-255" vertex="1">
          <mxGeometry y="206" width="160" height="30" as="geometry" />
        </mxCell>
        <mxCell id="cPn5eDL4V85z7vKzDj59-263" value="total_amount" style="text;strokeColor=none;fillColor=none;spacingLeft=4;spacingRight=4;overflow=hidden;rotatable=0;points=[[0,0.5],[1,0.5]];portConstraint=eastwest;fontSize=12;whiteSpace=wrap;html=1;" parent="cPn5eDL4V85z7vKzDj59-255" vertex="1">
          <mxGeometry y="236" width="160" height="30" as="geometry" />
        </mxCell>
        <mxCell id="cPn5eDL4V85z7vKzDj59-264" value="Store" style="swimlane;fontStyle=0;childLayout=stackLayout;horizontal=1;startSize=26;horizontalStack=0;resizeParent=1;resizeParentMax=0;resizeLast=0;collapsible=1;marginBottom=0;align=center;fontSize=14;" parent="1" vertex="1">
          <mxGeometry x="860" y="5610" width="160" height="206" as="geometry" />
        </mxCell>
        <mxCell id="cPn5eDL4V85z7vKzDj59-265" value="&lt;u&gt;store_id&lt;/u&gt;" style="text;strokeColor=none;fillColor=none;spacingLeft=4;spacingRight=4;overflow=hidden;rotatable=0;points=[[0,0.5],[1,0.5]];portConstraint=eastwest;fontSize=12;whiteSpace=wrap;html=1;" parent="cPn5eDL4V85z7vKzDj59-264" vertex="1">
          <mxGeometry y="26" width="160" height="30" as="geometry" />
        </mxCell>
        <mxCell id="cPn5eDL4V85z7vKzDj59-266" value="address" style="text;strokeColor=none;fillColor=none;spacingLeft=4;spacingRight=4;overflow=hidden;rotatable=0;points=[[0,0.5],[1,0.5]];portConstraint=eastwest;fontSize=12;whiteSpace=wrap;html=1;" parent="cPn5eDL4V85z7vKzDj59-264" vertex="1">
          <mxGeometry y="56" width="160" height="30" as="geometry" />
        </mxCell>
        <mxCell id="cPn5eDL4V85z7vKzDj59-267" value="&lt;b&gt;zip_code&lt;/b&gt;" style="text;strokeColor=none;fillColor=none;spacingLeft=4;spacingRight=4;overflow=hidden;rotatable=0;points=[[0,0.5],[1,0.5]];portConstraint=eastwest;fontSize=12;whiteSpace=wrap;html=1;" parent="cPn5eDL4V85z7vKzDj59-264" vertex="1">
          <mxGeometry y="86" width="160" height="30" as="geometry" />
        </mxCell>
        <mxCell id="cPn5eDL4V85z7vKzDj59-397" value="" style="endArrow=none;html=1;rounded=0;entryX=0;entryY=0.5;entryDx=0;entryDy=0;" parent="cPn5eDL4V85z7vKzDj59-264" target="cPn5eDL4V85z7vKzDj59-270" edge="1">
          <mxGeometry width="50" height="50" relative="1" as="geometry">
            <mxPoint x="-100" y="130.5" as="sourcePoint" />
            <mxPoint x="100" y="131.5" as="targetPoint" />
            <Array as="points">
              <mxPoint x="-50" y="130.5" />
            </Array>
          </mxGeometry>
        </mxCell>
        <mxCell id="cPn5eDL4V85z7vKzDj59-270" value="total_width" style="text;strokeColor=none;fillColor=none;spacingLeft=4;spacingRight=4;overflow=hidden;rotatable=0;points=[[0,0.5],[1,0.5]];portConstraint=eastwest;fontSize=12;whiteSpace=wrap;html=1;" parent="cPn5eDL4V85z7vKzDj59-264" vertex="1">
          <mxGeometry y="116" width="160" height="30" as="geometry" />
        </mxCell>
        <mxCell id="cPn5eDL4V85z7vKzDj59-271" value="total_length" style="text;strokeColor=none;fillColor=none;spacingLeft=4;spacingRight=4;overflow=hidden;rotatable=0;points=[[0,0.5],[1,0.5]];portConstraint=eastwest;fontSize=12;whiteSpace=wrap;html=1;" parent="cPn5eDL4V85z7vKzDj59-264" vertex="1">
          <mxGeometry y="146" width="160" height="30" as="geometry" />
        </mxCell>
        <mxCell id="cPn5eDL4V85z7vKzDj59-272" value="total_area" style="text;strokeColor=none;fillColor=none;spacingLeft=4;spacingRight=4;overflow=hidden;rotatable=0;points=[[0,0.5],[1,0.5]];portConstraint=eastwest;fontSize=12;whiteSpace=wrap;html=1;" parent="cPn5eDL4V85z7vKzDj59-264" vertex="1">
          <mxGeometry y="176" width="160" height="30" as="geometry" />
        </mxCell>
        <mxCell id="cPn5eDL4V85z7vKzDj59-273" value="Employee" style="swimlane;fontStyle=0;childLayout=stackLayout;horizontal=1;startSize=26;horizontalStack=0;resizeParent=1;resizeParentMax=0;resizeLast=0;collapsible=1;marginBottom=0;align=center;fontSize=14;" parent="1" vertex="1">
          <mxGeometry x="1440" y="5150" width="160" height="356" as="geometry" />
        </mxCell>
        <mxCell id="cPn5eDL4V85z7vKzDj59-274" value="&lt;u&gt;employee_id&lt;/u&gt;" style="text;strokeColor=none;fillColor=none;spacingLeft=4;spacingRight=4;overflow=hidden;rotatable=0;points=[[0,0.5],[1,0.5]];portConstraint=eastwest;fontSize=12;whiteSpace=wrap;html=1;" parent="cPn5eDL4V85z7vKzDj59-273" vertex="1">
          <mxGeometry y="26" width="160" height="30" as="geometry" />
        </mxCell>
        <mxCell id="cPn5eDL4V85z7vKzDj59-275" value="working_date" style="text;strokeColor=none;fillColor=none;spacingLeft=4;spacingRight=4;overflow=hidden;rotatable=0;points=[[0,0.5],[1,0.5]];portConstraint=eastwest;fontSize=12;whiteSpace=wrap;html=1;" parent="cPn5eDL4V85z7vKzDj59-273" vertex="1">
          <mxGeometry y="56" width="160" height="30" as="geometry" />
        </mxCell>
        <mxCell id="cPn5eDL4V85z7vKzDj59-276" value="full_name" style="text;strokeColor=none;fillColor=none;spacingLeft=4;spacingRight=4;overflow=hidden;rotatable=0;points=[[0,0.5],[1,0.5]];portConstraint=eastwest;fontSize=12;whiteSpace=wrap;html=1;" parent="cPn5eDL4V85z7vKzDj59-273" vertex="1">
          <mxGeometry y="86" width="160" height="30" as="geometry" />
        </mxCell>
        <mxCell id="cPn5eDL4V85z7vKzDj59-277" value="gender" style="text;strokeColor=none;fillColor=none;spacingLeft=4;spacingRight=4;overflow=hidden;rotatable=0;points=[[0,0.5],[1,0.5]];portConstraint=eastwest;fontSize=12;whiteSpace=wrap;html=1;" parent="cPn5eDL4V85z7vKzDj59-273" vertex="1">
          <mxGeometry y="116" width="160" height="30" as="geometry" />
        </mxCell>
        <mxCell id="cPn5eDL4V85z7vKzDj59-278" value="birthday" style="text;strokeColor=none;fillColor=none;spacingLeft=4;spacingRight=4;overflow=hidden;rotatable=0;points=[[0,0.5],[1,0.5]];portConstraint=eastwest;fontSize=12;whiteSpace=wrap;html=1;" parent="cPn5eDL4V85z7vKzDj59-273" vertex="1">
          <mxGeometry y="146" width="160" height="30" as="geometry" />
        </mxCell>
        <mxCell id="cPn5eDL4V85z7vKzDj59-279" value="phone" style="text;strokeColor=none;fillColor=none;spacingLeft=4;spacingRight=4;overflow=hidden;rotatable=0;points=[[0,0.5],[1,0.5]];portConstraint=eastwest;fontSize=12;whiteSpace=wrap;html=1;" parent="cPn5eDL4V85z7vKzDj59-273" vertex="1">
          <mxGeometry y="176" width="160" height="30" as="geometry" />
        </mxCell>
        <mxCell id="cPn5eDL4V85z7vKzDj59-280" value="email" style="text;strokeColor=none;fillColor=none;spacingLeft=4;spacingRight=4;overflow=hidden;rotatable=0;points=[[0,0.5],[1,0.5]];portConstraint=eastwest;fontSize=12;whiteSpace=wrap;html=1;" parent="cPn5eDL4V85z7vKzDj59-273" vertex="1">
          <mxGeometry y="206" width="160" height="30" as="geometry" />
        </mxCell>
        <mxCell id="cPn5eDL4V85z7vKzDj59-281" value="certify_no" style="text;strokeColor=none;fillColor=none;spacingLeft=4;spacingRight=4;overflow=hidden;rotatable=0;points=[[0,0.5],[1,0.5]];portConstraint=eastwest;fontSize=12;whiteSpace=wrap;html=1;" parent="cPn5eDL4V85z7vKzDj59-273" vertex="1">
          <mxGeometry y="236" width="160" height="30" as="geometry" />
        </mxCell>
        <mxCell id="cPn5eDL4V85z7vKzDj59-282" value="full_current_address" style="text;strokeColor=none;fillColor=none;spacingLeft=4;spacingRight=4;overflow=hidden;rotatable=0;points=[[0,0.5],[1,0.5]];portConstraint=eastwest;fontSize=12;whiteSpace=wrap;html=1;" parent="cPn5eDL4V85z7vKzDj59-273" vertex="1">
          <mxGeometry y="266" width="160" height="30" as="geometry" />
        </mxCell>
        <mxCell id="cPn5eDL4V85z7vKzDj59-283" value="full_permanent_address" style="text;strokeColor=none;fillColor=none;spacingLeft=4;spacingRight=4;overflow=hidden;rotatable=0;points=[[0,0.5],[1,0.5]];portConstraint=eastwest;fontSize=12;whiteSpace=wrap;html=1;" parent="cPn5eDL4V85z7vKzDj59-273" vertex="1">
          <mxGeometry y="296" width="160" height="30" as="geometry" />
        </mxCell>
        <mxCell id="cPn5eDL4V85z7vKzDj59-284" value="&lt;b&gt;zip_code&lt;/b&gt;" style="text;strokeColor=none;fillColor=none;spacingLeft=4;spacingRight=4;overflow=hidden;rotatable=0;points=[[0,0.5],[1,0.5]];portConstraint=eastwest;fontSize=12;whiteSpace=wrap;html=1;" parent="cPn5eDL4V85z7vKzDj59-273" vertex="1">
          <mxGeometry y="326" width="160" height="30" as="geometry" />
        </mxCell>
        <mxCell id="cPn5eDL4V85z7vKzDj59-287" value="Product" style="swimlane;fontStyle=0;childLayout=stackLayout;horizontal=1;startSize=26;horizontalStack=0;resizeParent=1;resizeParentMax=0;resizeLast=0;collapsible=1;marginBottom=0;align=center;fontSize=14;" parent="1" vertex="1">
          <mxGeometry x="1980" y="5610" width="160" height="206" as="geometry" />
        </mxCell>
        <mxCell id="cPn5eDL4V85z7vKzDj59-288" value="&lt;u&gt;product_id&lt;/u&gt;" style="text;strokeColor=none;fillColor=none;spacingLeft=4;spacingRight=4;overflow=hidden;rotatable=0;points=[[0,0.5],[1,0.5]];portConstraint=eastwest;fontSize=12;whiteSpace=wrap;html=1;" parent="cPn5eDL4V85z7vKzDj59-287" vertex="1">
          <mxGeometry y="26" width="160" height="30" as="geometry" />
        </mxCell>
        <mxCell id="cPn5eDL4V85z7vKzDj59-289" value="product_name" style="text;strokeColor=none;fillColor=none;spacingLeft=4;spacingRight=4;overflow=hidden;rotatable=0;points=[[0,0.5],[1,0.5]];portConstraint=eastwest;fontSize=12;whiteSpace=wrap;html=1;" parent="cPn5eDL4V85z7vKzDj59-287" vertex="1">
          <mxGeometry y="56" width="160" height="30" as="geometry" />
        </mxCell>
        <mxCell id="cPn5eDL4V85z7vKzDj59-290" value="unit_price" style="text;strokeColor=none;fillColor=none;spacingLeft=4;spacingRight=4;overflow=hidden;rotatable=0;points=[[0,0.5],[1,0.5]];portConstraint=eastwest;fontSize=12;whiteSpace=wrap;html=1;" parent="cPn5eDL4V85z7vKzDj59-287" vertex="1">
          <mxGeometry y="86" width="160" height="30" as="geometry" />
        </mxCell>
        <mxCell id="cPn5eDL4V85z7vKzDj59-291" value="description" style="text;strokeColor=none;fillColor=none;spacingLeft=4;spacingRight=4;overflow=hidden;rotatable=0;points=[[0,0.5],[1,0.5]];portConstraint=eastwest;fontSize=12;whiteSpace=wrap;html=1;" parent="cPn5eDL4V85z7vKzDj59-287" vertex="1">
          <mxGeometry y="116" width="160" height="30" as="geometry" />
        </mxCell>
        <mxCell id="cPn5eDL4V85z7vKzDj59-292" value="sub_category_id" style="text;strokeColor=none;fillColor=none;spacingLeft=4;spacingRight=4;overflow=hidden;rotatable=0;points=[[0,0.5],[1,0.5]];portConstraint=eastwest;fontSize=12;whiteSpace=wrap;html=1;fontStyle=1" parent="cPn5eDL4V85z7vKzDj59-287" vertex="1">
          <mxGeometry y="146" width="160" height="30" as="geometry" />
        </mxCell>
        <mxCell id="cPn5eDL4V85z7vKzDj59-294" value="&lt;b&gt;supplier_id&lt;/b&gt;" style="text;strokeColor=none;fillColor=none;spacingLeft=4;spacingRight=4;overflow=hidden;rotatable=0;points=[[0,0.5],[1,0.5]];portConstraint=eastwest;fontSize=12;whiteSpace=wrap;html=1;" parent="cPn5eDL4V85z7vKzDj59-287" vertex="1">
          <mxGeometry y="176" width="160" height="30" as="geometry" />
        </mxCell>
        <mxCell id="cPn5eDL4V85z7vKzDj59-295" value="Terminal" style="swimlane;fontStyle=0;childLayout=stackLayout;horizontal=1;startSize=26;horizontalStack=0;resizeParent=1;resizeParentMax=0;resizeLast=0;collapsible=1;marginBottom=0;align=center;fontSize=14;" parent="1" vertex="1">
          <mxGeometry x="860" y="5940" width="160" height="86" as="geometry" />
        </mxCell>
        <mxCell id="cPn5eDL4V85z7vKzDj59-296" value="&lt;u&gt;terminal_id&lt;/u&gt;" style="text;strokeColor=none;fillColor=none;spacingLeft=4;spacingRight=4;overflow=hidden;rotatable=0;points=[[0,0.5],[1,0.5]];portConstraint=eastwest;fontSize=12;whiteSpace=wrap;html=1;" parent="cPn5eDL4V85z7vKzDj59-295" vertex="1">
          <mxGeometry y="26" width="160" height="30" as="geometry" />
        </mxCell>
        <mxCell id="cPn5eDL4V85z7vKzDj59-297" value="terminal_name" style="text;strokeColor=none;fillColor=none;spacingLeft=4;spacingRight=4;overflow=hidden;rotatable=0;points=[[0,0.5],[1,0.5]];portConstraint=eastwest;fontSize=12;whiteSpace=wrap;html=1;" parent="cPn5eDL4V85z7vKzDj59-295" vertex="1">
          <mxGeometry y="56" width="160" height="30" as="geometry" />
        </mxCell>
        <mxCell id="cPn5eDL4V85z7vKzDj59-298" value="Promotion" style="swimlane;fontStyle=0;childLayout=stackLayout;horizontal=1;startSize=26;horizontalStack=0;resizeParent=1;resizeParentMax=0;resizeLast=0;collapsible=1;marginBottom=0;align=center;fontSize=14;" parent="1" vertex="1">
          <mxGeometry x="1940" y="6000" width="160" height="206" as="geometry" />
        </mxCell>
        <mxCell id="cPn5eDL4V85z7vKzDj59-299" value="&lt;u&gt;promotion_id&lt;/u&gt;" style="text;strokeColor=none;fillColor=none;spacingLeft=4;spacingRight=4;overflow=hidden;rotatable=0;points=[[0,0.5],[1,0.5]];portConstraint=eastwest;fontSize=12;whiteSpace=wrap;html=1;" parent="cPn5eDL4V85z7vKzDj59-298" vertex="1">
          <mxGeometry y="26" width="160" height="30" as="geometry" />
        </mxCell>
        <mxCell id="cPn5eDL4V85z7vKzDj59-300" value="promotion_name" style="text;strokeColor=none;fillColor=none;spacingLeft=4;spacingRight=4;overflow=hidden;rotatable=0;points=[[0,0.5],[1,0.5]];portConstraint=eastwest;fontSize=12;whiteSpace=wrap;html=1;" parent="cPn5eDL4V85z7vKzDj59-298" vertex="1">
          <mxGeometry y="56" width="160" height="30" as="geometry" />
        </mxCell>
        <mxCell id="cPn5eDL4V85z7vKzDj59-301" value="start_date" style="text;strokeColor=none;fillColor=none;spacingLeft=4;spacingRight=4;overflow=hidden;rotatable=0;points=[[0,0.5],[1,0.5]];portConstraint=eastwest;fontSize=12;whiteSpace=wrap;html=1;" parent="cPn5eDL4V85z7vKzDj59-298" vertex="1">
          <mxGeometry y="86" width="160" height="30" as="geometry" />
        </mxCell>
        <mxCell id="cPn5eDL4V85z7vKzDj59-302" value="end_date" style="text;strokeColor=none;fillColor=none;spacingLeft=4;spacingRight=4;overflow=hidden;rotatable=0;points=[[0,0.5],[1,0.5]];portConstraint=eastwest;fontSize=12;whiteSpace=wrap;html=1;" parent="cPn5eDL4V85z7vKzDj59-298" vertex="1">
          <mxGeometry y="116" width="160" height="30" as="geometry" />
        </mxCell>
        <mxCell id="cPn5eDL4V85z7vKzDj59-303" value="promotion_type" style="text;strokeColor=none;fillColor=none;spacingLeft=4;spacingRight=4;overflow=hidden;rotatable=0;points=[[0,0.5],[1,0.5]];portConstraint=eastwest;fontSize=12;whiteSpace=wrap;html=1;" parent="cPn5eDL4V85z7vKzDj59-298" vertex="1">
          <mxGeometry y="146" width="160" height="30" as="geometry" />
        </mxCell>
        <mxCell id="cPn5eDL4V85z7vKzDj59-304" value="discount" style="text;strokeColor=none;fillColor=none;spacingLeft=4;spacingRight=4;overflow=hidden;rotatable=0;points=[[0,0.5],[1,0.5]];portConstraint=eastwest;fontSize=12;whiteSpace=wrap;html=1;" parent="cPn5eDL4V85z7vKzDj59-298" vertex="1">
          <mxGeometry y="176" width="160" height="30" as="geometry" />
        </mxCell>
        <mxCell id="cPn5eDL4V85z7vKzDj59-305" value="Supplier" style="swimlane;fontStyle=0;childLayout=stackLayout;horizontal=1;startSize=26;horizontalStack=0;resizeParent=1;resizeParentMax=0;resizeLast=0;collapsible=1;marginBottom=0;align=center;fontSize=14;" parent="1" vertex="1">
          <mxGeometry x="1980" y="5400" width="160" height="116" as="geometry" />
        </mxCell>
        <mxCell id="cPn5eDL4V85z7vKzDj59-306" value="&lt;u&gt;supplier_id&lt;/u&gt;" style="text;strokeColor=none;fillColor=none;spacingLeft=4;spacingRight=4;overflow=hidden;rotatable=0;points=[[0,0.5],[1,0.5]];portConstraint=eastwest;fontSize=12;whiteSpace=wrap;html=1;" parent="cPn5eDL4V85z7vKzDj59-305" vertex="1">
          <mxGeometry y="26" width="160" height="30" as="geometry" />
        </mxCell>
        <mxCell id="cPn5eDL4V85z7vKzDj59-307" value="supplier_name" style="text;strokeColor=none;fillColor=none;spacingLeft=4;spacingRight=4;overflow=hidden;rotatable=0;points=[[0,0.5],[1,0.5]];portConstraint=eastwest;fontSize=12;whiteSpace=wrap;html=1;" parent="cPn5eDL4V85z7vKzDj59-305" vertex="1">
          <mxGeometry y="56" width="160" height="30" as="geometry" />
        </mxCell>
        <mxCell id="cPn5eDL4V85z7vKzDj59-308" value="supplier_origin" style="text;strokeColor=none;fillColor=none;spacingLeft=4;spacingRight=4;overflow=hidden;rotatable=0;points=[[0,0.5],[1,0.5]];portConstraint=eastwest;fontSize=12;whiteSpace=wrap;html=1;" parent="cPn5eDL4V85z7vKzDj59-305" vertex="1">
          <mxGeometry y="86" width="160" height="30" as="geometry" />
        </mxCell>
        <mxCell id="cPn5eDL4V85z7vKzDj59-309" value="Customer" style="swimlane;fontStyle=0;childLayout=stackLayout;horizontal=1;startSize=26;horizontalStack=0;resizeParent=1;resizeParentMax=0;resizeLast=0;collapsible=1;marginBottom=0;align=center;fontSize=14;" parent="1" vertex="1">
          <mxGeometry x="1620" y="6020" width="160" height="326" as="geometry" />
        </mxCell>
        <mxCell id="cPn5eDL4V85z7vKzDj59-310" value="&lt;u&gt;customer_id&lt;/u&gt;" style="text;strokeColor=none;fillColor=none;spacingLeft=4;spacingRight=4;overflow=hidden;rotatable=0;points=[[0,0.5],[1,0.5]];portConstraint=eastwest;fontSize=12;whiteSpace=wrap;html=1;" parent="cPn5eDL4V85z7vKzDj59-309" vertex="1">
          <mxGeometry y="26" width="160" height="30" as="geometry" />
        </mxCell>
        <mxCell id="cPn5eDL4V85z7vKzDj59-311" value="created_date" style="text;strokeColor=none;fillColor=none;spacingLeft=4;spacingRight=4;overflow=hidden;rotatable=0;points=[[0,0.5],[1,0.5]];portConstraint=eastwest;fontSize=12;whiteSpace=wrap;html=1;" parent="cPn5eDL4V85z7vKzDj59-309" vertex="1">
          <mxGeometry y="56" width="160" height="30" as="geometry" />
        </mxCell>
        <mxCell id="cPn5eDL4V85z7vKzDj59-312" value="full_name" style="text;strokeColor=none;fillColor=none;spacingLeft=4;spacingRight=4;overflow=hidden;rotatable=0;points=[[0,0.5],[1,0.5]];portConstraint=eastwest;fontSize=12;whiteSpace=wrap;html=1;" parent="cPn5eDL4V85z7vKzDj59-309" vertex="1">
          <mxGeometry y="86" width="160" height="30" as="geometry" />
        </mxCell>
        <mxCell id="cPn5eDL4V85z7vKzDj59-313" value="gender" style="text;strokeColor=none;fillColor=none;spacingLeft=4;spacingRight=4;overflow=hidden;rotatable=0;points=[[0,0.5],[1,0.5]];portConstraint=eastwest;fontSize=12;whiteSpace=wrap;html=1;" parent="cPn5eDL4V85z7vKzDj59-309" vertex="1">
          <mxGeometry y="116" width="160" height="30" as="geometry" />
        </mxCell>
        <mxCell id="cPn5eDL4V85z7vKzDj59-314" value="birthday" style="text;strokeColor=none;fillColor=none;spacingLeft=4;spacingRight=4;overflow=hidden;rotatable=0;points=[[0,0.5],[1,0.5]];portConstraint=eastwest;fontSize=12;whiteSpace=wrap;html=1;" parent="cPn5eDL4V85z7vKzDj59-309" vertex="1">
          <mxGeometry y="146" width="160" height="30" as="geometry" />
        </mxCell>
        <mxCell id="cPn5eDL4V85z7vKzDj59-315" value="certify_no" style="text;strokeColor=none;fillColor=none;spacingLeft=4;spacingRight=4;overflow=hidden;rotatable=0;points=[[0,0.5],[1,0.5]];portConstraint=eastwest;fontSize=12;whiteSpace=wrap;html=1;" parent="cPn5eDL4V85z7vKzDj59-309" vertex="1">
          <mxGeometry y="176" width="160" height="30" as="geometry" />
        </mxCell>
        <mxCell id="cPn5eDL4V85z7vKzDj59-316" value="phone" style="text;strokeColor=none;fillColor=none;spacingLeft=4;spacingRight=4;overflow=hidden;rotatable=0;points=[[0,0.5],[1,0.5]];portConstraint=eastwest;fontSize=12;whiteSpace=wrap;html=1;" parent="cPn5eDL4V85z7vKzDj59-309" vertex="1">
          <mxGeometry y="206" width="160" height="30" as="geometry" />
        </mxCell>
        <mxCell id="cPn5eDL4V85z7vKzDj59-317" value="email" style="text;strokeColor=none;fillColor=none;spacingLeft=4;spacingRight=4;overflow=hidden;rotatable=0;points=[[0,0.5],[1,0.5]];portConstraint=eastwest;fontSize=12;whiteSpace=wrap;html=1;" parent="cPn5eDL4V85z7vKzDj59-309" vertex="1">
          <mxGeometry y="236" width="160" height="30" as="geometry" />
        </mxCell>
        <mxCell id="cPn5eDL4V85z7vKzDj59-318" value="zip_code" style="text;strokeColor=none;fillColor=none;spacingLeft=4;spacingRight=4;overflow=hidden;rotatable=0;points=[[0,0.5],[1,0.5]];portConstraint=eastwest;fontSize=12;whiteSpace=wrap;html=1;fontStyle=1" parent="cPn5eDL4V85z7vKzDj59-309" vertex="1">
          <mxGeometry y="266" width="160" height="30" as="geometry" />
        </mxCell>
        <mxCell id="cPn5eDL4V85z7vKzDj59-321" value="&lt;b&gt;current_rank&lt;/b&gt;" style="text;strokeColor=none;fillColor=none;spacingLeft=4;spacingRight=4;overflow=hidden;rotatable=0;points=[[0,0.5],[1,0.5]];portConstraint=eastwest;fontSize=12;whiteSpace=wrap;html=1;" parent="cPn5eDL4V85z7vKzDj59-309" vertex="1">
          <mxGeometry y="296" width="160" height="30" as="geometry" />
        </mxCell>
        <mxCell id="cPn5eDL4V85z7vKzDj59-322" value="Point balance" style="swimlane;fontStyle=0;childLayout=stackLayout;horizontal=1;startSize=26;horizontalStack=0;resizeParent=1;resizeParentMax=0;resizeLast=0;collapsible=1;marginBottom=0;align=center;fontSize=14;rounded=0;shadow=0;glass=0;swimlaneLine=1;" parent="1" vertex="1">
          <mxGeometry x="1220" y="6070" width="160" height="146" as="geometry">
            <mxRectangle x="1430" y="259" width="150" height="30" as="alternateBounds" />
          </mxGeometry>
        </mxCell>
        <mxCell id="cPn5eDL4V85z7vKzDj59-324" value="&lt;b&gt;&lt;u&gt;customer_id&lt;/u&gt;&lt;/b&gt;" style="text;strokeColor=none;fillColor=none;spacingLeft=4;spacingRight=4;overflow=hidden;rotatable=0;points=[[0,0.5],[1,0.5]];portConstraint=eastwest;fontSize=12;whiteSpace=wrap;html=1;" parent="cPn5eDL4V85z7vKzDj59-322" vertex="1">
          <mxGeometry y="26" width="160" height="30" as="geometry" />
        </mxCell>
        <mxCell id="cPn5eDL4V85z7vKzDj59-382" value="&lt;u&gt;update_date&lt;/u&gt;" style="text;strokeColor=none;fillColor=none;spacingLeft=4;spacingRight=4;overflow=hidden;rotatable=0;points=[[0,0.5],[1,0.5]];portConstraint=eastwest;fontSize=12;whiteSpace=wrap;html=1;" parent="cPn5eDL4V85z7vKzDj59-322" vertex="1">
          <mxGeometry y="56" width="160" height="30" as="geometry" />
        </mxCell>
        <mxCell id="cPn5eDL4V85z7vKzDj59-325" value="total_spending" style="text;strokeColor=none;fillColor=none;spacingLeft=4;spacingRight=4;overflow=hidden;rotatable=0;points=[[0,0.5],[1,0.5]];portConstraint=eastwest;fontSize=12;whiteSpace=wrap;html=1;" parent="cPn5eDL4V85z7vKzDj59-322" vertex="1">
          <mxGeometry y="86" width="160" height="30" as="geometry" />
        </mxCell>
        <mxCell id="cPn5eDL4V85z7vKzDj59-326" value="&lt;b&gt;next_rank&lt;/b&gt;" style="text;strokeColor=none;fillColor=none;spacingLeft=4;spacingRight=4;overflow=hidden;rotatable=0;points=[[0,0.5],[1,0.5]];portConstraint=eastwest;fontSize=12;whiteSpace=wrap;html=1;" parent="cPn5eDL4V85z7vKzDj59-322" vertex="1">
          <mxGeometry y="116" width="160" height="30" as="geometry" />
        </mxCell>
        <mxCell id="cPn5eDL4V85z7vKzDj59-327" value="Membership" style="swimlane;fontStyle=0;childLayout=stackLayout;horizontal=1;startSize=26;horizontalStack=0;resizeParent=1;resizeParentMax=0;resizeLast=0;collapsible=1;marginBottom=0;align=center;fontSize=14;" parent="1" vertex="1">
          <mxGeometry x="1220" y="6300" width="160" height="116" as="geometry" />
        </mxCell>
        <mxCell id="cPn5eDL4V85z7vKzDj59-328" value="&lt;u&gt;rank_id&lt;/u&gt;" style="text;strokeColor=none;fillColor=none;spacingLeft=4;spacingRight=4;overflow=hidden;rotatable=0;points=[[0,0.5],[1,0.5]];portConstraint=eastwest;fontSize=12;whiteSpace=wrap;html=1;" parent="cPn5eDL4V85z7vKzDj59-327" vertex="1">
          <mxGeometry y="26" width="160" height="30" as="geometry" />
        </mxCell>
        <mxCell id="cPn5eDL4V85z7vKzDj59-329" value="rank_name" style="text;strokeColor=none;fillColor=none;spacingLeft=4;spacingRight=4;overflow=hidden;rotatable=0;points=[[0,0.5],[1,0.5]];portConstraint=eastwest;fontSize=12;whiteSpace=wrap;html=1;" parent="cPn5eDL4V85z7vKzDj59-327" vertex="1">
          <mxGeometry y="56" width="160" height="30" as="geometry" />
        </mxCell>
        <mxCell id="cPn5eDL4V85z7vKzDj59-330" value="total_spending" style="text;strokeColor=none;fillColor=none;spacingLeft=4;spacingRight=4;overflow=hidden;rotatable=0;points=[[0,0.5],[1,0.5]];portConstraint=eastwest;fontSize=12;whiteSpace=wrap;html=1;" parent="cPn5eDL4V85z7vKzDj59-327" vertex="1">
          <mxGeometry y="86" width="160" height="30" as="geometry" />
        </mxCell>
        <mxCell id="cPn5eDL4V85z7vKzDj59-331" value="Payment" style="swimlane;fontStyle=0;childLayout=stackLayout;horizontal=1;startSize=26;horizontalStack=0;resizeParent=1;resizeParentMax=0;resizeLast=0;collapsible=1;marginBottom=0;align=center;fontSize=14;" parent="1" vertex="1">
          <mxGeometry x="1040" y="5390" width="160" height="146" as="geometry" />
        </mxCell>
        <mxCell id="cPn5eDL4V85z7vKzDj59-332" value="&lt;u&gt;payment_id&lt;/u&gt;" style="text;strokeColor=none;fillColor=none;spacingLeft=4;spacingRight=4;overflow=hidden;rotatable=0;points=[[0,0.5],[1,0.5]];portConstraint=eastwest;fontSize=12;whiteSpace=wrap;html=1;" parent="cPn5eDL4V85z7vKzDj59-331" vertex="1">
          <mxGeometry y="26" width="160" height="30" as="geometry" />
        </mxCell>
        <mxCell id="cPn5eDL4V85z7vKzDj59-333" value="payment_name" style="text;strokeColor=none;fillColor=none;spacingLeft=4;spacingRight=4;overflow=hidden;rotatable=0;points=[[0,0.5],[1,0.5]];portConstraint=eastwest;fontSize=12;whiteSpace=wrap;html=1;" parent="cPn5eDL4V85z7vKzDj59-331" vertex="1">
          <mxGeometry y="56" width="160" height="30" as="geometry" />
        </mxCell>
        <mxCell id="cPn5eDL4V85z7vKzDj59-334" value="category" style="text;strokeColor=none;fillColor=none;spacingLeft=4;spacingRight=4;overflow=hidden;rotatable=0;points=[[0,0.5],[1,0.5]];portConstraint=eastwest;fontSize=12;whiteSpace=wrap;html=1;" parent="cPn5eDL4V85z7vKzDj59-331" vertex="1">
          <mxGeometry y="86" width="160" height="30" as="geometry" />
        </mxCell>
        <mxCell id="cPn5eDL4V85z7vKzDj59-335" value="description" style="text;strokeColor=none;fillColor=none;spacingLeft=4;spacingRight=4;overflow=hidden;rotatable=0;points=[[0,0.5],[1,0.5]];portConstraint=eastwest;fontSize=12;whiteSpace=wrap;html=1;" parent="cPn5eDL4V85z7vKzDj59-331" vertex="1">
          <mxGeometry y="116" width="160" height="30" as="geometry" />
        </mxCell>
        <mxCell id="cPn5eDL4V85z7vKzDj59-336" value="" style="endArrow=none;html=1;rounded=0;entryX=0.182;entryY=0;entryDx=0;entryDy=0;entryPerimeter=0;" parent="1" target="cPn5eDL4V85z7vKzDj59-241" edge="1">
          <mxGeometry width="50" height="50" relative="1" as="geometry">
            <mxPoint x="1200" y="5500" as="sourcePoint" />
            <mxPoint x="1250" y="5570" as="targetPoint" />
            <Array as="points">
              <mxPoint x="1250" y="5500" />
            </Array>
          </mxGeometry>
        </mxCell>
        <mxCell id="cPn5eDL4V85z7vKzDj59-337" value="1" style="text;html=1;strokeColor=none;fillColor=none;align=center;verticalAlign=middle;whiteSpace=wrap;rounded=0;" parent="1" vertex="1">
          <mxGeometry x="1200" y="5480" width="30" height="20" as="geometry" />
        </mxCell>
        <mxCell id="cPn5eDL4V85z7vKzDj59-338" value="M" style="text;html=1;strokeColor=none;fillColor=none;align=center;verticalAlign=middle;whiteSpace=wrap;rounded=0;" parent="1" vertex="1">
          <mxGeometry x="1250" y="5554" width="20" height="20" as="geometry" />
        </mxCell>
        <mxCell id="cPn5eDL4V85z7vKzDj59-339" value="" style="endArrow=none;html=1;rounded=0;entryX=0.694;entryY=0;entryDx=0;entryDy=0;entryPerimeter=0;" parent="1" target="cPn5eDL4V85z7vKzDj59-241" edge="1">
          <mxGeometry width="50" height="50" relative="1" as="geometry">
            <mxPoint x="1440" y="5400" as="sourcePoint" />
            <mxPoint x="1330" y="5570" as="targetPoint" />
            <Array as="points">
              <mxPoint x="1330" y="5400" />
            </Array>
          </mxGeometry>
        </mxCell>
        <mxCell id="cPn5eDL4V85z7vKzDj59-340" value="1" style="text;html=1;strokeColor=none;fillColor=none;align=center;verticalAlign=middle;whiteSpace=wrap;rounded=0;" parent="1" vertex="1">
          <mxGeometry x="1410" y="5380" width="30" height="20" as="geometry" />
        </mxCell>
        <mxCell id="cPn5eDL4V85z7vKzDj59-341" value="M" style="text;html=1;strokeColor=none;fillColor=none;align=center;verticalAlign=middle;whiteSpace=wrap;rounded=0;" parent="1" vertex="1">
          <mxGeometry x="1310" y="5554" width="20" height="20" as="geometry" />
        </mxCell>
        <mxCell id="cPn5eDL4V85z7vKzDj59-342" value="" style="endArrow=none;html=1;rounded=0;entryX=0;entryY=0.694;entryDx=0;entryDy=0;entryPerimeter=0;" parent="1" target="cPn5eDL4V85z7vKzDj59-246" edge="1">
          <mxGeometry width="50" height="50" relative="1" as="geometry">
            <mxPoint x="1020" y="5740" as="sourcePoint" />
            <mxPoint x="1069" y="5814" as="targetPoint" />
            <Array as="points">
              <mxPoint x="1070" y="5740" />
            </Array>
          </mxGeometry>
        </mxCell>
        <mxCell id="cPn5eDL4V85z7vKzDj59-343" value="1" style="text;html=1;strokeColor=none;fillColor=none;align=center;verticalAlign=middle;whiteSpace=wrap;rounded=0;" parent="1" vertex="1">
          <mxGeometry x="1020" y="5720" width="30" height="20" as="geometry" />
        </mxCell>
        <mxCell id="cPn5eDL4V85z7vKzDj59-344" value="M" style="text;html=1;strokeColor=none;fillColor=none;align=center;verticalAlign=middle;whiteSpace=wrap;rounded=0;" parent="1" vertex="1">
          <mxGeometry x="1200" y="5720" width="20" height="20" as="geometry" />
        </mxCell>
        <mxCell id="cPn5eDL4V85z7vKzDj59-345" value="" style="endArrow=none;html=1;rounded=0;entryX=1;entryY=1;entryDx=0;entryDy=0;" parent="1" target="cPn5eDL4V85z7vKzDj59-347" edge="1">
          <mxGeometry width="50" height="50" relative="1" as="geometry">
            <mxPoint x="1020" y="5980" as="sourcePoint" />
            <mxPoint x="1220" y="5981" as="targetPoint" />
            <Array as="points">
              <mxPoint x="1070" y="5980" />
            </Array>
          </mxGeometry>
        </mxCell>
        <mxCell id="cPn5eDL4V85z7vKzDj59-346" value="1" style="text;html=1;strokeColor=none;fillColor=none;align=center;verticalAlign=middle;whiteSpace=wrap;rounded=0;" parent="1" vertex="1">
          <mxGeometry x="1020" y="5960" width="30" height="20" as="geometry" />
        </mxCell>
        <mxCell id="cPn5eDL4V85z7vKzDj59-347" value="M" style="text;html=1;strokeColor=none;fillColor=none;align=center;verticalAlign=middle;whiteSpace=wrap;rounded=0;" parent="1" vertex="1">
          <mxGeometry x="1200" y="5960" width="20" height="20" as="geometry" />
        </mxCell>
        <mxCell id="cPn5eDL4V85z7vKzDj59-348" value="" style="endArrow=none;html=1;rounded=0;entryX=1;entryY=1;entryDx=0;entryDy=0;" parent="1" target="cPn5eDL4V85z7vKzDj59-350" edge="1">
          <mxGeometry width="50" height="50" relative="1" as="geometry">
            <mxPoint x="1380" y="5740" as="sourcePoint" />
            <mxPoint x="1580" y="5741" as="targetPoint" />
            <Array as="points">
              <mxPoint x="1430" y="5740" />
            </Array>
          </mxGeometry>
        </mxCell>
        <mxCell id="cPn5eDL4V85z7vKzDj59-349" value="1" style="text;html=1;strokeColor=none;fillColor=none;align=center;verticalAlign=middle;whiteSpace=wrap;rounded=0;" parent="1" vertex="1">
          <mxGeometry x="1380" y="5720" width="30" height="20" as="geometry" />
        </mxCell>
        <mxCell id="cPn5eDL4V85z7vKzDj59-350" value="M" style="text;html=1;strokeColor=none;fillColor=none;align=center;verticalAlign=middle;whiteSpace=wrap;rounded=0;" parent="1" vertex="1">
          <mxGeometry x="1600" y="5720" width="20" height="20" as="geometry" />
        </mxCell>
        <mxCell id="cPn5eDL4V85z7vKzDj59-351" value="" style="endArrow=none;html=1;rounded=0;entryX=1;entryY=1;entryDx=0;entryDy=0;exitX=0;exitY=1;exitDx=0;exitDy=0;" parent="1" source="cPn5eDL4V85z7vKzDj59-353" target="cPn5eDL4V85z7vKzDj59-352" edge="1">
          <mxGeometry width="50" height="50" relative="1" as="geometry">
            <mxPoint x="1870" y="5690" as="sourcePoint" />
            <mxPoint x="1980" y="5758.5" as="targetPoint" />
            <Array as="points" />
          </mxGeometry>
        </mxCell>
        <mxCell id="cPn5eDL4V85z7vKzDj59-352" value="1" style="text;html=1;strokeColor=none;fillColor=none;align=center;verticalAlign=middle;whiteSpace=wrap;rounded=0;" parent="1" vertex="1">
          <mxGeometry x="1950" y="5740" width="30" height="20" as="geometry" />
        </mxCell>
        <mxCell id="cPn5eDL4V85z7vKzDj59-353" value="M" style="text;html=1;strokeColor=none;fillColor=none;align=center;verticalAlign=middle;whiteSpace=wrap;rounded=0;" parent="1" vertex="1">
          <mxGeometry x="1780" y="5740" width="20" height="20" as="geometry" />
        </mxCell>
        <mxCell id="cPn5eDL4V85z7vKzDj59-354" value="" style="endArrow=none;html=1;rounded=0;entryX=0.004;entryY=0.161;entryDx=0;entryDy=0;entryPerimeter=0;" parent="1" edge="1">
          <mxGeometry width="50" height="50" relative="1" as="geometry">
            <mxPoint x="1780" y="5870" as="sourcePoint" />
            <mxPoint x="2010" y="6000" as="targetPoint" />
            <Array as="points">
              <mxPoint x="2010" y="5870" />
            </Array>
          </mxGeometry>
        </mxCell>
        <mxCell id="cPn5eDL4V85z7vKzDj59-355" value="1" style="text;html=1;strokeColor=none;fillColor=none;align=center;verticalAlign=middle;whiteSpace=wrap;rounded=0;" parent="1" vertex="1">
          <mxGeometry x="2010" y="5980" width="30" height="20" as="geometry" />
        </mxCell>
        <mxCell id="cPn5eDL4V85z7vKzDj59-356" value="M" style="text;html=1;strokeColor=none;fillColor=none;align=center;verticalAlign=middle;whiteSpace=wrap;rounded=0;" parent="1" vertex="1">
          <mxGeometry x="1780" y="5846" width="20" height="20" as="geometry" />
        </mxCell>
        <mxCell id="cPn5eDL4V85z7vKzDj59-357" value="" style="endArrow=none;html=1;rounded=0;exitX=0.442;exitY=-0.005;exitDx=0;exitDy=0;exitPerimeter=0;entryX=0.443;entryY=1.001;entryDx=0;entryDy=0;entryPerimeter=0;" parent="1" source="cPn5eDL4V85z7vKzDj59-327" target="cPn5eDL4V85z7vKzDj59-326" edge="1">
          <mxGeometry width="50" height="50" relative="1" as="geometry">
            <mxPoint x="1289" y="6267" as="sourcePoint" />
            <mxPoint x="1291" y="6220" as="targetPoint" />
            <Array as="points" />
          </mxGeometry>
        </mxCell>
        <mxCell id="cPn5eDL4V85z7vKzDj59-358" value="1" style="text;html=1;strokeColor=none;fillColor=none;align=center;verticalAlign=middle;whiteSpace=wrap;rounded=0;" parent="1" vertex="1">
          <mxGeometry x="1290" y="6280" width="20" height="20" as="geometry" />
        </mxCell>
        <mxCell id="cPn5eDL4V85z7vKzDj59-359" value="M" style="text;html=1;strokeColor=none;fillColor=none;align=center;verticalAlign=middle;whiteSpace=wrap;rounded=0;" parent="1" vertex="1">
          <mxGeometry x="1290" y="6216" width="20" height="20" as="geometry" />
        </mxCell>
        <mxCell id="cPn5eDL4V85z7vKzDj59-360" value="" style="endArrow=none;html=1;rounded=0;exitX=0.182;exitY=0;exitDx=0;exitDy=0;exitPerimeter=0;" parent="1" source="cPn5eDL4V85z7vKzDj59-309" edge="1">
          <mxGeometry width="50" height="50" relative="1" as="geometry">
            <mxPoint x="1650" y="6000" as="sourcePoint" />
            <mxPoint x="1380" y="5940" as="targetPoint" />
            <Array as="points">
              <mxPoint x="1650" y="5940" />
            </Array>
          </mxGeometry>
        </mxCell>
        <mxCell id="cPn5eDL4V85z7vKzDj59-361" value="1" style="text;html=1;strokeColor=none;fillColor=none;align=center;verticalAlign=middle;whiteSpace=wrap;rounded=0;" parent="1" vertex="1">
          <mxGeometry x="1630" y="6000" width="20" height="20" as="geometry" />
        </mxCell>
        <mxCell id="cPn5eDL4V85z7vKzDj59-362" value="M" style="text;html=1;strokeColor=none;fillColor=none;align=center;verticalAlign=middle;whiteSpace=wrap;rounded=0;" parent="1" vertex="1">
          <mxGeometry x="1380" y="5940" width="20" height="20" as="geometry" />
        </mxCell>
        <mxCell id="cPn5eDL4V85z7vKzDj59-363" value="" style="endArrow=none;html=1;rounded=0;exitX=1;exitY=1;exitDx=0;exitDy=0;" parent="1" source="cPn5eDL4V85z7vKzDj59-364" edge="1">
          <mxGeometry width="50" height="50" relative="1" as="geometry">
            <mxPoint x="1381" y="6257.5" as="sourcePoint" />
            <mxPoint x="1380" y="6138" as="targetPoint" />
            <Array as="points" />
          </mxGeometry>
        </mxCell>
        <mxCell id="cPn5eDL4V85z7vKzDj59-364" value="1" style="text;html=1;strokeColor=none;fillColor=none;align=center;verticalAlign=middle;whiteSpace=wrap;rounded=0;" parent="1" vertex="1">
          <mxGeometry x="1590" y="6118" width="30" height="20" as="geometry" />
        </mxCell>
        <mxCell id="cPn5eDL4V85z7vKzDj59-365" value="M" style="text;html=1;strokeColor=none;fillColor=none;align=center;verticalAlign=middle;whiteSpace=wrap;rounded=0;" parent="1" vertex="1">
          <mxGeometry x="1380" y="6118" width="20" height="20" as="geometry" />
        </mxCell>
        <mxCell id="cPn5eDL4V85z7vKzDj59-366" value="" style="endArrow=none;html=1;rounded=0;exitX=1;exitY=1;exitDx=0;exitDy=0;entryX=1;entryY=0.5;entryDx=0;entryDy=0;" parent="1" source="cPn5eDL4V85z7vKzDj59-368" target="cPn5eDL4V85z7vKzDj59-328" edge="1">
          <mxGeometry width="50" height="50" relative="1" as="geometry">
            <mxPoint x="1690" y="6390" as="sourcePoint" />
            <mxPoint x="1380" y="6458.83" as="targetPoint" />
            <Array as="points" />
          </mxGeometry>
        </mxCell>
        <mxCell id="cPn5eDL4V85z7vKzDj59-367" value="1" style="text;html=1;strokeColor=none;fillColor=none;align=center;verticalAlign=middle;whiteSpace=wrap;rounded=0;" parent="1" vertex="1">
          <mxGeometry x="1380" y="6320" width="30" height="20" as="geometry" />
        </mxCell>
        <mxCell id="cPn5eDL4V85z7vKzDj59-368" value="M" style="text;html=1;strokeColor=none;fillColor=none;align=center;verticalAlign=middle;whiteSpace=wrap;rounded=0;" parent="1" vertex="1">
          <mxGeometry x="1600" y="6320" width="20" height="20" as="geometry" />
        </mxCell>
        <mxCell id="cPn5eDL4V85z7vKzDj59-369" value="" style="endArrow=none;html=1;rounded=0;entryX=0.438;entryY=0.002;entryDx=0;entryDy=0;entryPerimeter=0;exitX=0;exitY=1;exitDx=0;exitDy=0;" parent="1" target="cPn5eDL4V85z7vKzDj59-287" edge="1">
          <mxGeometry width="50" height="50" relative="1" as="geometry">
            <mxPoint x="2050" y="5517.5" as="sourcePoint" />
            <mxPoint x="2250" y="5516" as="targetPoint" />
            <Array as="points" />
          </mxGeometry>
        </mxCell>
        <mxCell id="cPn5eDL4V85z7vKzDj59-370" value="1" style="text;html=1;strokeColor=none;fillColor=none;align=center;verticalAlign=middle;whiteSpace=wrap;rounded=0;" parent="1" vertex="1">
          <mxGeometry x="2050" y="5516" width="30" height="20" as="geometry" />
        </mxCell>
        <mxCell id="cPn5eDL4V85z7vKzDj59-371" value="M" style="text;html=1;strokeColor=none;fillColor=none;align=center;verticalAlign=middle;whiteSpace=wrap;rounded=0;" parent="1" vertex="1">
          <mxGeometry x="2050" y="5590" width="20" height="20" as="geometry" />
        </mxCell>
        <mxCell id="cPn5eDL4V85z7vKzDj59-372" value="Title" style="swimlane;fontStyle=0;childLayout=stackLayout;horizontal=1;startSize=26;horizontalStack=0;resizeParent=1;resizeParentMax=0;resizeLast=0;collapsible=1;marginBottom=0;align=center;fontSize=14;" parent="1" vertex="1">
          <mxGeometry x="1810" y="5150" width="160" height="176" as="geometry" />
        </mxCell>
        <mxCell id="cPn5eDL4V85z7vKzDj59-373" value="&lt;u&gt;&lt;b&gt;employee_id&lt;/b&gt;&lt;/u&gt;" style="text;strokeColor=none;fillColor=none;spacingLeft=4;spacingRight=4;overflow=hidden;rotatable=0;points=[[0,0.5],[1,0.5]];portConstraint=eastwest;fontSize=12;whiteSpace=wrap;html=1;" parent="cPn5eDL4V85z7vKzDj59-372" vertex="1">
          <mxGeometry y="26" width="160" height="30" as="geometry" />
        </mxCell>
        <mxCell id="cPn5eDL4V85z7vKzDj59-374" value="&lt;u&gt;version_no&lt;/u&gt;" style="text;strokeColor=none;fillColor=none;spacingLeft=4;spacingRight=4;overflow=hidden;rotatable=0;points=[[0,0.5],[1,0.5]];portConstraint=eastwest;fontSize=12;whiteSpace=wrap;html=1;" parent="cPn5eDL4V85z7vKzDj59-372" vertex="1">
          <mxGeometry y="56" width="160" height="30" as="geometry" />
        </mxCell>
        <mxCell id="cPn5eDL4V85z7vKzDj59-375" value="begin_date" style="text;strokeColor=none;fillColor=none;spacingLeft=4;spacingRight=4;overflow=hidden;rotatable=0;points=[[0,0.5],[1,0.5]];portConstraint=eastwest;fontSize=12;whiteSpace=wrap;html=1;" parent="cPn5eDL4V85z7vKzDj59-372" vertex="1">
          <mxGeometry y="86" width="160" height="30" as="geometry" />
        </mxCell>
        <mxCell id="cPn5eDL4V85z7vKzDj59-376" value="end_date" style="text;strokeColor=none;fillColor=none;spacingLeft=4;spacingRight=4;overflow=hidden;rotatable=0;points=[[0,0.5],[1,0.5]];portConstraint=eastwest;fontSize=12;whiteSpace=wrap;html=1;" parent="cPn5eDL4V85z7vKzDj59-372" vertex="1">
          <mxGeometry y="116" width="160" height="30" as="geometry" />
        </mxCell>
        <mxCell id="cPn5eDL4V85z7vKzDj59-377" value="title" style="text;strokeColor=none;fillColor=none;spacingLeft=4;spacingRight=4;overflow=hidden;rotatable=0;points=[[0,0.5],[1,0.5]];portConstraint=eastwest;fontSize=12;whiteSpace=wrap;html=1;" parent="cPn5eDL4V85z7vKzDj59-372" vertex="1">
          <mxGeometry y="146" width="160" height="30" as="geometry" />
        </mxCell>
        <mxCell id="cPn5eDL4V85z7vKzDj59-378" value="" style="endArrow=none;html=1;rounded=0;entryX=0;entryY=0.5;entryDx=0;entryDy=0;exitX=1;exitY=0.5;exitDx=0;exitDy=0;" parent="1" source="cPn5eDL4V85z7vKzDj59-275" target="cPn5eDL4V85z7vKzDj59-374" edge="1">
          <mxGeometry width="50" height="50" relative="1" as="geometry">
            <mxPoint x="1650" y="5220" as="sourcePoint" />
            <mxPoint x="1650" y="5312.5" as="targetPoint" />
            <Array as="points" />
          </mxGeometry>
        </mxCell>
        <mxCell id="cPn5eDL4V85z7vKzDj59-379" value="1" style="text;html=1;strokeColor=none;fillColor=none;align=center;verticalAlign=middle;whiteSpace=wrap;rounded=0;" parent="1" vertex="1">
          <mxGeometry x="1600" y="5200" width="30" height="20" as="geometry" />
        </mxCell>
        <mxCell id="cPn5eDL4V85z7vKzDj59-380" value="M" style="text;html=1;strokeColor=none;fillColor=none;align=center;verticalAlign=middle;whiteSpace=wrap;rounded=0;" parent="1" vertex="1">
          <mxGeometry x="1790" y="5200" width="20" height="20" as="geometry" />
        </mxCell>
        <mxCell id="cPn5eDL4V85z7vKzDj59-381" value="&lt;font style=&quot;font-size: 32px;&quot;&gt;Transaction Management Circle K - Relational database after Nomarlization&lt;/font&gt;" style="rounded=1;whiteSpace=wrap;html=1;" parent="1" vertex="1">
          <mxGeometry x="830" y="4940" width="1320" height="60" as="geometry" />
        </mxCell>
        <mxCell id="cPn5eDL4V85z7vKzDj59-391" value="Territory" style="swimlane;fontStyle=0;childLayout=stackLayout;horizontal=1;startSize=26;horizontalStack=0;resizeParent=1;resizeParentMax=0;resizeLast=0;collapsible=1;marginBottom=0;align=center;fontSize=14;" parent="1" vertex="1">
          <mxGeometry x="600" y="5680" width="160" height="116" as="geometry" />
        </mxCell>
        <mxCell id="cPn5eDL4V85z7vKzDj59-392" value="&lt;u&gt;zip_code&lt;/u&gt;" style="text;strokeColor=none;fillColor=none;spacingLeft=4;spacingRight=4;overflow=hidden;rotatable=0;points=[[0,0.5],[1,0.5]];portConstraint=eastwest;fontSize=12;whiteSpace=wrap;html=1;" parent="cPn5eDL4V85z7vKzDj59-391" vertex="1">
          <mxGeometry y="26" width="160" height="30" as="geometry" />
        </mxCell>
        <mxCell id="cPn5eDL4V85z7vKzDj59-393" value="city" style="text;strokeColor=none;fillColor=none;spacingLeft=4;spacingRight=4;overflow=hidden;rotatable=0;points=[[0,0.5],[1,0.5]];portConstraint=eastwest;fontSize=12;whiteSpace=wrap;html=1;" parent="cPn5eDL4V85z7vKzDj59-391" vertex="1">
          <mxGeometry y="56" width="160" height="30" as="geometry" />
        </mxCell>
        <mxCell id="cPn5eDL4V85z7vKzDj59-394" value="description" style="text;strokeColor=none;fillColor=none;spacingLeft=4;spacingRight=4;overflow=hidden;rotatable=0;points=[[0,0.5],[1,0.5]];portConstraint=eastwest;fontSize=12;whiteSpace=wrap;html=1;" parent="cPn5eDL4V85z7vKzDj59-391" vertex="1">
          <mxGeometry y="86" width="160" height="30" as="geometry" />
        </mxCell>
        <mxCell id="cPn5eDL4V85z7vKzDj59-398" value="M" style="text;html=1;strokeColor=none;fillColor=none;align=center;verticalAlign=middle;whiteSpace=wrap;rounded=0;" parent="1" vertex="1">
          <mxGeometry x="840" y="5720" width="20" height="20" as="geometry" />
        </mxCell>
        <mxCell id="cPn5eDL4V85z7vKzDj59-399" value="1" style="text;html=1;strokeColor=none;fillColor=none;align=center;verticalAlign=middle;whiteSpace=wrap;rounded=0;" parent="1" vertex="1">
          <mxGeometry x="760" y="5720" width="30" height="20" as="geometry" />
        </mxCell>
        <mxCell id="cPn5eDL4V85z7vKzDj59-400" value="" style="endArrow=none;html=1;rounded=0;exitX=0.741;exitY=0.962;exitDx=0;exitDy=0;exitPerimeter=0;entryX=0.125;entryY=0.998;entryDx=0;entryDy=0;entryPerimeter=0;" parent="1" source="cPn5eDL4V85z7vKzDj59-394" target="cPn5eDL4V85z7vKzDj59-321" edge="1">
          <mxGeometry width="50" height="50" relative="1" as="geometry">
            <mxPoint x="675" y="5820" as="sourcePoint" />
            <mxPoint x="1640" y="6350" as="targetPoint" />
            <Array as="points">
              <mxPoint x="720" y="6440" />
              <mxPoint x="1640" y="6440" />
            </Array>
          </mxGeometry>
        </mxCell>
        <mxCell id="cPn5eDL4V85z7vKzDj59-401" value="1" style="text;html=1;strokeColor=none;fillColor=none;align=center;verticalAlign=middle;whiteSpace=wrap;rounded=0;" parent="1" vertex="1">
          <mxGeometry x="690" y="5796" width="30" height="20" as="geometry" />
        </mxCell>
        <mxCell id="cPn5eDL4V85z7vKzDj59-403" value="M" style="text;html=1;strokeColor=none;fillColor=none;align=center;verticalAlign=middle;whiteSpace=wrap;rounded=0;" parent="1" vertex="1">
          <mxGeometry x="1640" y="6346" width="20" height="20" as="geometry" />
        </mxCell>
        <mxCell id="cPn5eDL4V85z7vKzDj59-404" value="" style="endArrow=none;html=1;rounded=0;entryX=0;entryY=0.694;entryDx=0;entryDy=0;entryPerimeter=0;exitX=0.75;exitY=0;exitDx=0;exitDy=0;" parent="1" source="cPn5eDL4V85z7vKzDj59-391" edge="1">
          <mxGeometry width="50" height="50" relative="1" as="geometry">
            <mxPoint x="1200" y="5330" as="sourcePoint" />
            <mxPoint x="1440" y="5321" as="targetPoint" />
            <Array as="points">
              <mxPoint x="720" y="5321" />
            </Array>
          </mxGeometry>
        </mxCell>
        <mxCell id="cPn5eDL4V85z7vKzDj59-405" value="1" style="text;html=1;strokeColor=none;fillColor=none;align=center;verticalAlign=middle;whiteSpace=wrap;rounded=0;" parent="1" vertex="1">
          <mxGeometry x="690" y="5660" width="30" height="20" as="geometry" />
        </mxCell>
        <mxCell id="cPn5eDL4V85z7vKzDj59-406" value="M" style="text;html=1;strokeColor=none;fillColor=none;align=center;verticalAlign=middle;whiteSpace=wrap;rounded=0;" parent="1" vertex="1">
          <mxGeometry x="1420" y="5300" width="20" height="20" as="geometry" />
        </mxCell>
        <mxCell id="cPn5eDL4V85z7vKzDj59-407" value="SubCategory" style="swimlane;fontStyle=0;childLayout=stackLayout;horizontal=1;startSize=26;horizontalStack=0;resizeParent=1;resizeParentMax=0;resizeLast=0;collapsible=1;marginBottom=0;align=center;fontSize=14;" parent="1" vertex="1">
          <mxGeometry x="2240" y="5680" width="160" height="116" as="geometry" />
        </mxCell>
        <mxCell id="cPn5eDL4V85z7vKzDj59-408" value="&lt;u&gt;sub_category_id&lt;/u&gt;" style="text;strokeColor=none;fillColor=none;spacingLeft=4;spacingRight=4;overflow=hidden;rotatable=0;points=[[0,0.5],[1,0.5]];portConstraint=eastwest;fontSize=12;whiteSpace=wrap;html=1;" parent="cPn5eDL4V85z7vKzDj59-407" vertex="1">
          <mxGeometry y="26" width="160" height="30" as="geometry" />
        </mxCell>
        <mxCell id="cPn5eDL4V85z7vKzDj59-409" value="sub_category_name" style="text;strokeColor=none;fillColor=none;spacingLeft=4;spacingRight=4;overflow=hidden;rotatable=0;points=[[0,0.5],[1,0.5]];portConstraint=eastwest;fontSize=12;whiteSpace=wrap;html=1;" parent="cPn5eDL4V85z7vKzDj59-407" vertex="1">
          <mxGeometry y="56" width="160" height="30" as="geometry" />
        </mxCell>
        <mxCell id="cPn5eDL4V85z7vKzDj59-410" value="category" style="text;strokeColor=none;fillColor=none;spacingLeft=4;spacingRight=4;overflow=hidden;rotatable=0;points=[[0,0.5],[1,0.5]];portConstraint=eastwest;fontSize=12;whiteSpace=wrap;html=1;" parent="cPn5eDL4V85z7vKzDj59-407" vertex="1">
          <mxGeometry y="86" width="160" height="30" as="geometry" />
        </mxCell>
        <mxCell id="cPn5eDL4V85z7vKzDj59-411" value="" style="endArrow=none;html=1;rounded=0;entryX=1;entryY=1;entryDx=0;entryDy=0;" parent="1" edge="1">
          <mxGeometry width="50" height="50" relative="1" as="geometry">
            <mxPoint x="2140" y="5738" as="sourcePoint" />
            <mxPoint x="2240" y="5737.5" as="targetPoint" />
            <Array as="points" />
          </mxGeometry>
        </mxCell>
        <mxCell id="cPn5eDL4V85z7vKzDj59-412" value="1" style="text;html=1;strokeColor=none;fillColor=none;align=center;verticalAlign=middle;whiteSpace=wrap;rounded=0;" parent="1" vertex="1">
          <mxGeometry x="2210" y="5720" width="30" height="20" as="geometry" />
        </mxCell>
        <mxCell id="cPn5eDL4V85z7vKzDj59-414" value="M" style="text;html=1;strokeColor=none;fillColor=none;align=center;verticalAlign=middle;whiteSpace=wrap;rounded=0;" parent="1" vertex="1">
          <mxGeometry x="2140" y="5720" width="20" height="20" as="geometry" />
        </mxCell>
        <mxCell id="cPn5eDL4V85z7vKzDj59-390" value="" style="endArrow=none;html=1;rounded=0;exitX=0.931;exitY=0.989;exitDx=0;exitDy=0;exitPerimeter=0;entryX=1;entryY=0.659;entryDx=0;entryDy=0;entryPerimeter=0;" parent="1" edge="1">
          <mxGeometry width="50" height="50" relative="1" as="geometry">
            <mxPoint x="1349" y="1836" as="sourcePoint" />
            <mxPoint x="1360" y="1826" as="targetPoint" />
          </mxGeometry>
        </mxCell>
      </root>
    </mxGraphModel>
  </diagram>
</mxfile>
